M48
; DRILL file {KiCad (5.1.10)-1} date 08/11/22 13:18:24
; FORMAT={-:-/ absolute / inch / decimal}
; #@! TF.CreationDate,2022-08-11T13:18:24-05:00
; #@! TF.GenerationSoftware,Kicad,Pcbnew,(5.1.10)-1
; #@! TF.FileFunction,Plated,1,2,PTH
FMAT,2
INCH
T1C0.0157
T2C0.0276
T3C0.0433
T4C0.0500
%
G90
G05
T1
X1.2217Y-1.3086
X1.2217Y-1.3686
X1.3217Y-1.3086
X1.3217Y-1.3686
X1.4217Y-1.3086
X1.4217Y-1.3686
X1.5217Y-1.3086
X1.5217Y-1.3686
X1.6217Y-1.3086
X1.6217Y-1.3686
X1.7217Y-1.3086
X1.7217Y-1.3686
X1.8217Y-1.3086
X1.8217Y-1.3686
X1.9217Y-1.3086
X1.9217Y-1.3686
X2.0217Y-1.3086
X2.0217Y-1.3686
X2.1217Y-1.3086
X2.1217Y-1.3686
X2.2217Y-1.3086
X2.2217Y-1.3686
X2.3217Y-1.3086
X2.3217Y-1.3686
T2
X2.3438Y-1.75
X2.3438Y-1.8091
T3
X1.2217Y-1.0386
X1.2217Y-1.6386
X1.3217Y-1.0386
X1.3217Y-1.6386
X1.4217Y-1.0386
X1.4217Y-1.6386
X1.5217Y-1.0386
X1.5217Y-1.6386
X1.6217Y-1.0386
X1.6217Y-1.6386
X1.7217Y-1.0386
X1.7217Y-1.6386
X1.8217Y-1.0386
X1.8217Y-1.6386
X1.9217Y-1.0386
X1.9217Y-1.6386
X2.0217Y-1.0386
X2.0217Y-1.6386
X2.1217Y-1.0386
X2.1217Y-1.6386
X2.2217Y-1.0386
X2.2217Y-1.6386
X2.3217Y-1.0386
X2.3217Y-1.0386
X2.3217Y-1.6386
X2.3217Y-1.6386
T4
X-0.2323Y0.0
X-0.2323Y0.0
X-0.1969Y-1.8228
X-0.1496Y0.1969
X-0.1496Y-0.1969
X0.0Y-1.9055
X0.0Y-1.9055
X0.1969Y-1.8228
X0.5118Y0.185
X0.5118Y-0.4843
X0.5118Y-1.8228
X0.7087Y0.1024
X0.7087Y0.1024
X0.7087Y-0.5669
X0.7087Y-0.5669
X0.7087Y-1.9055
X0.7087Y-1.9055
X0.9055Y0.185
X0.9055Y-0.4843
X0.9055Y-1.8228
X1.2205Y0.3819
X1.2205Y-0.2874
X1.4173Y0.2992
X1.4173Y0.2992
X1.4173Y-0.3701
X1.4173Y-0.3701
X1.6142Y0.3819
X1.6142Y-0.2874
X1.9291Y0.3819
X1.9291Y-0.2874
X2.126Y0.2992
X2.126Y0.2992
X2.126Y-0.3701
X2.126Y-0.3701
X2.3228Y0.3819
X2.3228Y-0.2874
X2.6378Y0.185
X2.6378Y-0.4843
X2.8346Y0.1024
X2.8346Y0.1024
X2.8346Y-0.5669
X2.8346Y-0.5669
X3.0315Y0.185
X3.0315Y-0.4843
X3.3465Y0.185
X3.3465Y-0.4843
X3.5433Y0.1024
X3.5433Y0.1024
X3.5433Y-0.5669
X3.5433Y-0.5669
X3.7402Y0.185
X3.7402Y-0.4843
T0
M30
