%TF.GenerationSoftware,KiCad,Pcbnew,(5.1.10)-1*%
%TF.CreationDate,2022-08-11T13:18:27-05:00*%
%TF.ProjectId,lamia,6c616d69-612e-46b6-9963-61645f706362,v1.0.0*%
%TF.SameCoordinates,Original*%
%TF.FileFunction,Copper,L1,Top*%
%TF.FilePolarity,Positive*%
%FSLAX46Y46*%
G04 Gerber Fmt 4.6, Leading zero omitted, Abs format (unit mm)*
G04 Created by KiCad (PCBNEW (5.1.10)-1) date 2022-08-11 13:18:27*
%MOMM*%
%LPD*%
G01*
G04 APERTURE LIST*
%TA.AperFunction,SMDPad,CuDef*%
%ADD10R,2.600000X2.600000*%
%TD*%
%TA.AperFunction,ComponentPad*%
%ADD11C,2.032000*%
%TD*%
%TA.AperFunction,SMDPad,CuDef*%
%ADD12C,0.100000*%
%TD*%
%TA.AperFunction,ComponentPad*%
%ADD13C,1.600000*%
%TD*%
%TA.AperFunction,ComponentPad*%
%ADD14R,1.600000X1.600000*%
%TD*%
%TA.AperFunction,ComponentPad*%
%ADD15C,0.800000*%
%TD*%
%TA.AperFunction,SMDPad,CuDef*%
%ADD16R,0.700000X1.500000*%
%TD*%
%TA.AperFunction,SMDPad,CuDef*%
%ADD17R,1.000000X0.800000*%
%TD*%
%TA.AperFunction,SMDPad,CuDef*%
%ADD18R,0.900000X1.700000*%
%TD*%
%TA.AperFunction,ComponentPad*%
%ADD19C,1.000000*%
%TD*%
%TA.AperFunction,Conductor*%
%ADD20C,0.250000*%
%TD*%
G04 APERTURE END LIST*
D10*
%TO.P,S1,1*%
%TO.N,P9*%
X5950000Y-3275000D03*
%TO.P,S1,2*%
%TO.N,GND*%
X3750000Y8275000D03*
%TD*%
D11*
%TO.P,S2,1*%
%TO.N,P9*%
X-3800000Y5000000D03*
%TO.P,S2,2*%
%TO.N,GND*%
X-5900000Y0D03*
%TO.P,S2,1*%
%TO.N,P9*%
X-3800000Y-5000000D03*
%TO.P,S2,2*%
%TO.N,GND*%
X-5900000Y0D03*
%TD*%
D10*
%TO.P,S3,1*%
%TO.N,P8*%
X21275000Y-2550000D03*
%TO.P,S3,2*%
%TO.N,GND*%
X9725000Y-4750000D03*
%TD*%
D11*
%TO.P,S4,1*%
%TO.N,P8*%
X13000000Y-12300000D03*
%TO.P,S4,2*%
%TO.N,GND*%
X18000000Y-14400000D03*
%TO.P,S4,1*%
%TO.N,P8*%
X23000000Y-12300000D03*
%TO.P,S4,2*%
%TO.N,GND*%
X18000000Y-14400000D03*
%TD*%
D10*
%TO.P,S5,1*%
%TO.N,P7*%
X21275000Y14450000D03*
%TO.P,S5,2*%
%TO.N,GND*%
X9725000Y12250000D03*
%TD*%
D11*
%TO.P,S6,1*%
%TO.N,P7*%
X13000000Y4700000D03*
%TO.P,S6,2*%
%TO.N,GND*%
X18000000Y2600000D03*
%TO.P,S6,1*%
%TO.N,P7*%
X23000000Y4700000D03*
%TO.P,S6,2*%
%TO.N,GND*%
X18000000Y2600000D03*
%TD*%
D10*
%TO.P,S7,1*%
%TO.N,P15*%
X39275000Y2450000D03*
%TO.P,S7,2*%
%TO.N,GND*%
X27725000Y250000D03*
%TD*%
D11*
%TO.P,S8,1*%
%TO.N,P15*%
X31000000Y-7300000D03*
%TO.P,S8,2*%
%TO.N,GND*%
X36000000Y-9400000D03*
%TO.P,S8,1*%
%TO.N,P15*%
X41000000Y-7300000D03*
%TO.P,S8,2*%
%TO.N,GND*%
X36000000Y-9400000D03*
%TD*%
D10*
%TO.P,S9,1*%
%TO.N,P6*%
X39275000Y19450000D03*
%TO.P,S9,2*%
%TO.N,GND*%
X27725000Y17250000D03*
%TD*%
D11*
%TO.P,S10,1*%
%TO.N,P6*%
X31000000Y9700000D03*
%TO.P,S10,2*%
%TO.N,GND*%
X36000000Y7600000D03*
%TO.P,S10,1*%
%TO.N,P6*%
X41000000Y9700000D03*
%TO.P,S10,2*%
%TO.N,GND*%
X36000000Y7600000D03*
%TD*%
D10*
%TO.P,S11,1*%
%TO.N,P18*%
X57275000Y2450000D03*
%TO.P,S11,2*%
%TO.N,GND*%
X45725000Y250000D03*
%TD*%
D11*
%TO.P,S12,1*%
%TO.N,P18*%
X49000000Y-7300000D03*
%TO.P,S12,2*%
%TO.N,GND*%
X54000000Y-9400000D03*
%TO.P,S12,1*%
%TO.N,P18*%
X59000000Y-7300000D03*
%TO.P,S12,2*%
%TO.N,GND*%
X54000000Y-9400000D03*
%TD*%
D10*
%TO.P,S13,1*%
%TO.N,P5*%
X57275000Y19450000D03*
%TO.P,S13,2*%
%TO.N,GND*%
X45725000Y17250000D03*
%TD*%
D11*
%TO.P,S14,1*%
%TO.N,P5*%
X49000000Y9700000D03*
%TO.P,S14,2*%
%TO.N,GND*%
X54000000Y7600000D03*
%TO.P,S14,1*%
%TO.N,P5*%
X59000000Y9700000D03*
%TO.P,S14,2*%
%TO.N,GND*%
X54000000Y7600000D03*
%TD*%
D10*
%TO.P,S15,1*%
%TO.N,P19*%
X75275000Y-2550000D03*
%TO.P,S15,2*%
%TO.N,GND*%
X63725000Y-4750000D03*
%TD*%
D11*
%TO.P,S16,1*%
%TO.N,P19*%
X67000000Y-12300000D03*
%TO.P,S16,2*%
%TO.N,GND*%
X72000000Y-14400000D03*
%TO.P,S16,1*%
%TO.N,P19*%
X77000000Y-12300000D03*
%TO.P,S16,2*%
%TO.N,GND*%
X72000000Y-14400000D03*
%TD*%
D10*
%TO.P,S17,1*%
%TO.N,P4*%
X75275000Y14450000D03*
%TO.P,S17,2*%
%TO.N,GND*%
X63725000Y12250000D03*
%TD*%
D11*
%TO.P,S18,1*%
%TO.N,P4*%
X67000000Y4700000D03*
%TO.P,S18,2*%
%TO.N,GND*%
X72000000Y2600000D03*
%TO.P,S18,1*%
%TO.N,P4*%
X77000000Y4700000D03*
%TO.P,S18,2*%
%TO.N,GND*%
X72000000Y2600000D03*
%TD*%
D10*
%TO.P,S19,1*%
%TO.N,P21*%
X93275000Y-2550000D03*
%TO.P,S19,2*%
%TO.N,GND*%
X81725000Y-4750000D03*
%TD*%
D11*
%TO.P,S20,1*%
%TO.N,P21*%
X85000000Y-12300000D03*
%TO.P,S20,2*%
%TO.N,GND*%
X90000000Y-14400000D03*
%TO.P,S20,1*%
%TO.N,P21*%
X95000000Y-12300000D03*
%TO.P,S20,2*%
%TO.N,GND*%
X90000000Y-14400000D03*
%TD*%
D10*
%TO.P,S21,1*%
%TO.N,P20*%
X93275000Y14450000D03*
%TO.P,S21,2*%
%TO.N,GND*%
X81725000Y12250000D03*
%TD*%
D11*
%TO.P,S22,1*%
%TO.N,P20*%
X85000000Y4700000D03*
%TO.P,S22,2*%
%TO.N,GND*%
X90000000Y2600000D03*
%TO.P,S22,1*%
%TO.N,P20*%
X95000000Y4700000D03*
%TO.P,S22,2*%
%TO.N,GND*%
X90000000Y2600000D03*
%TD*%
D10*
%TO.P,S23,1*%
%TO.N,P10*%
X3275000Y-36550000D03*
%TO.P,S23,2*%
%TO.N,GND*%
X-8275000Y-38750000D03*
%TD*%
D11*
%TO.P,S24,1*%
%TO.N,P10*%
X-5000000Y-46300000D03*
%TO.P,S24,2*%
%TO.N,GND*%
X0Y-48400000D03*
%TO.P,S24,1*%
%TO.N,P10*%
X5000000Y-46300000D03*
%TO.P,S24,2*%
%TO.N,GND*%
X0Y-48400000D03*
%TD*%
D10*
%TO.P,S25,1*%
%TO.N,P16*%
X21275000Y-36550000D03*
%TO.P,S25,2*%
%TO.N,GND*%
X9725000Y-38750000D03*
%TD*%
D11*
%TO.P,S26,1*%
%TO.N,P16*%
X13000000Y-46300000D03*
%TO.P,S26,2*%
%TO.N,GND*%
X18000000Y-48400000D03*
%TO.P,S26,1*%
%TO.N,P16*%
X23000000Y-46300000D03*
%TO.P,S26,2*%
%TO.N,GND*%
X18000000Y-48400000D03*
%TD*%
%TA.AperFunction,SMDPad,CuDef*%
D12*
%TO.P,MCU1,2*%
%TO.N,GND*%
G36*
X56417368Y-38950360D02*
G01*
X56405293Y-38948534D01*
X56393454Y-38945538D01*
X56381963Y-38941401D01*
X56370931Y-38936163D01*
X56360463Y-38929873D01*
X56350659Y-38922591D01*
X56341612Y-38914388D01*
X55575611Y-38148388D01*
X55575326Y-38148099D01*
X55575304Y-38148079D01*
X55575281Y-38148053D01*
X55574386Y-38147146D01*
X55570759Y-38143032D01*
X55567132Y-38139004D01*
X55566743Y-38138476D01*
X55566309Y-38137984D01*
X55563124Y-38133568D01*
X55559885Y-38129174D01*
X55559548Y-38128609D01*
X55559166Y-38128079D01*
X55556418Y-38123357D01*
X55553632Y-38118684D01*
X55553355Y-38118095D01*
X55553023Y-38117525D01*
X55550737Y-38112532D01*
X55548432Y-38107634D01*
X55548214Y-38107021D01*
X55547939Y-38106421D01*
X55546154Y-38101236D01*
X55544335Y-38096129D01*
X55544177Y-38095496D01*
X55543963Y-38094874D01*
X55542692Y-38089539D01*
X55541381Y-38084279D01*
X55541286Y-38083635D01*
X55541133Y-38082993D01*
X55540383Y-38077524D01*
X55539597Y-38072198D01*
X55539566Y-38071556D01*
X55539475Y-38070895D01*
X55539264Y-38065399D01*
X55539000Y-38060000D01*
X55539000Y-35528000D01*
X55539003Y-35527602D01*
X55539001Y-35527564D01*
X55539003Y-35527520D01*
X55539012Y-35526255D01*
X55539353Y-35520837D01*
X55539639Y-35515369D01*
X55539738Y-35514713D01*
X55539779Y-35514066D01*
X55540643Y-35508734D01*
X55541466Y-35503293D01*
X55541628Y-35502653D01*
X55541732Y-35502011D01*
X55543122Y-35496749D01*
X55544462Y-35491454D01*
X55544683Y-35490840D01*
X55544851Y-35490204D01*
X55546752Y-35485091D01*
X55548598Y-35479964D01*
X55548880Y-35479370D01*
X55549108Y-35478757D01*
X55551488Y-35473879D01*
X55553837Y-35468931D01*
X55554177Y-35468365D01*
X55554462Y-35467781D01*
X55557303Y-35463162D01*
X55560127Y-35458463D01*
X55560518Y-35457936D01*
X55560861Y-35457379D01*
X55564156Y-35453038D01*
X55567408Y-35448659D01*
X55567848Y-35448174D01*
X55568244Y-35447652D01*
X55571941Y-35443660D01*
X55575611Y-35439612D01*
X56341612Y-34673612D01*
X56342854Y-34672386D01*
X56344509Y-34670927D01*
X56346055Y-34669381D01*
X56349060Y-34666915D01*
X56352015Y-34664310D01*
X56353827Y-34663003D01*
X56355538Y-34661599D01*
X56358743Y-34659457D01*
X56361920Y-34657166D01*
X56363875Y-34656028D01*
X56365737Y-34654784D01*
X56369118Y-34652977D01*
X56372475Y-34651023D01*
X56374554Y-34650071D01*
X56376556Y-34649001D01*
X56380071Y-34647545D01*
X56383579Y-34645939D01*
X56385769Y-34645185D01*
X56387889Y-34644307D01*
X56391518Y-34643206D01*
X56395126Y-34641964D01*
X56397392Y-34641424D01*
X56399627Y-34640746D01*
X56403316Y-34640012D01*
X56407006Y-34639133D01*
X56409354Y-34638811D01*
X56411659Y-34638353D01*
X56415373Y-34637987D01*
X56419105Y-34637476D01*
X56421500Y-34637384D01*
X56423867Y-34637151D01*
X56427562Y-34637151D01*
X56431309Y-34637007D01*
X56433730Y-34637151D01*
X56436133Y-34637151D01*
X56439802Y-34637512D01*
X56443500Y-34637732D01*
X56445907Y-34638113D01*
X56448341Y-34638353D01*
X56451939Y-34639069D01*
X56455563Y-34639642D01*
X56457956Y-34640265D01*
X56460373Y-34640746D01*
X56463850Y-34641801D01*
X56467380Y-34642720D01*
X56469725Y-34643583D01*
X56472111Y-34644307D01*
X56475440Y-34645686D01*
X56478841Y-34646937D01*
X56481113Y-34648035D01*
X56483444Y-34649001D01*
X56485446Y-34650071D01*
X56486595Y-34650685D01*
X56489836Y-34652252D01*
X56492019Y-34653584D01*
X56494263Y-34654784D01*
X56497211Y-34656754D01*
X56500260Y-34658615D01*
X56502320Y-34660168D01*
X56504462Y-34661599D01*
X56507170Y-34663821D01*
X56510014Y-34665964D01*
X56511945Y-34667740D01*
X56513945Y-34669381D01*
X56516405Y-34671841D01*
X56519004Y-34674231D01*
X56520767Y-34676203D01*
X56522619Y-34678055D01*
X56524815Y-34680731D01*
X56527143Y-34683335D01*
X56528720Y-34685489D01*
X56530401Y-34687538D01*
X56532307Y-34690391D01*
X56534356Y-34693190D01*
X56535729Y-34695512D01*
X56537216Y-34697737D01*
X56538821Y-34700739D01*
X56540573Y-34703702D01*
X56541725Y-34706173D01*
X56542999Y-34708556D01*
X56544291Y-34711676D01*
X56545734Y-34714770D01*
X56546649Y-34717367D01*
X56547693Y-34719889D01*
X56548667Y-34723100D01*
X56549790Y-34726289D01*
X56550452Y-34728984D01*
X56551254Y-34731627D01*
X56551902Y-34734884D01*
X56552704Y-34738149D01*
X56553105Y-34740935D01*
X56553647Y-34743659D01*
X56553970Y-34746938D01*
X56554445Y-34750237D01*
X56554574Y-34753071D01*
X56554849Y-34755867D01*
X56554849Y-34759133D01*
X56554999Y-34762436D01*
X56554849Y-34765299D01*
X56554849Y-34768133D01*
X56554532Y-34771356D01*
X56554360Y-34774632D01*
X56553928Y-34777492D01*
X56553647Y-34780341D01*
X56553020Y-34783495D01*
X56552534Y-34786707D01*
X56551819Y-34789533D01*
X56551254Y-34792373D01*
X56550326Y-34795431D01*
X56549538Y-34798546D01*
X56548542Y-34801313D01*
X56547693Y-34804111D01*
X56546481Y-34807037D01*
X56545401Y-34810037D01*
X56544128Y-34812718D01*
X56542999Y-34815444D01*
X56541520Y-34818211D01*
X56540163Y-34821069D01*
X56538622Y-34823633D01*
X56537216Y-34826263D01*
X56535486Y-34828852D01*
X56533873Y-34831537D01*
X56532069Y-34833966D01*
X56530401Y-34836462D01*
X56528440Y-34838852D01*
X56526591Y-34841341D01*
X56524549Y-34843593D01*
X56522619Y-34845945D01*
X56520448Y-34848116D01*
X56518388Y-34850388D01*
X55789000Y-35579777D01*
X55789000Y-38008223D01*
X56518388Y-38737612D01*
X56519614Y-38738854D01*
X56527690Y-38748015D01*
X56534834Y-38757920D01*
X56540977Y-38768475D01*
X56546061Y-38779579D01*
X56550036Y-38791126D01*
X56552867Y-38803006D01*
X56554524Y-38815105D01*
X56554993Y-38827309D01*
X56554268Y-38839500D01*
X56552358Y-38851563D01*
X56549280Y-38863380D01*
X56545063Y-38874841D01*
X56539748Y-38885836D01*
X56533385Y-38896260D01*
X56526036Y-38906014D01*
X56517769Y-38915004D01*
X56508665Y-38923143D01*
X56498810Y-38930356D01*
X56488298Y-38936573D01*
X56477230Y-38941734D01*
X56465711Y-38945790D01*
X56453851Y-38948704D01*
X56441763Y-38950445D01*
X56429564Y-38950999D01*
X56417368Y-38950360D01*
G37*
%TD.AperFunction*%
D13*
%TO.P,MCU1,*%
%TO.N,*%
X58970000Y-26380000D03*
X56430000Y-26380000D03*
X53890000Y-26380000D03*
X51350000Y-26380000D03*
X48810000Y-26380000D03*
X46270000Y-26380000D03*
X43730000Y-26380000D03*
X41190000Y-26380000D03*
X38650000Y-26380000D03*
X36110000Y-26380000D03*
X33570000Y-26380000D03*
X31030000Y-26380000D03*
X31030000Y-41620000D03*
X33570000Y-41620000D03*
X36110000Y-41620000D03*
X38650000Y-41620000D03*
X41190000Y-41620000D03*
X43730000Y-41620000D03*
X46270000Y-41620000D03*
X48810000Y-41620000D03*
X51350000Y-41620000D03*
X53890000Y-41620000D03*
X56430000Y-41620000D03*
X58970000Y-41620000D03*
%TA.AperFunction,SMDPad,CuDef*%
D12*
G36*
X59570000Y-27958000D02*
G01*
X58970000Y-28558000D01*
X58370000Y-27958000D01*
X58370000Y-27758000D01*
X59570000Y-27758000D01*
X59570000Y-27958000D01*
G37*
%TD.AperFunction*%
%TA.AperFunction,SMDPad,CuDef*%
%TO.P,MCU1,24*%
%TO.N,P1*%
G36*
X59570000Y-29424000D02*
G01*
X58370000Y-29424000D01*
X58370000Y-28174000D01*
X58970000Y-28774000D01*
X59570000Y-28174000D01*
X59570000Y-29424000D01*
G37*
%TD.AperFunction*%
%TA.AperFunction,SMDPad,CuDef*%
%TO.P,MCU1,*%
%TO.N,*%
G36*
X59095000Y-28150000D02*
G01*
X58845000Y-28150000D01*
X58845000Y-27150000D01*
X59095000Y-27150000D01*
X59095000Y-28150000D01*
G37*
%TD.AperFunction*%
D14*
X58970000Y-26380000D03*
%TA.AperFunction,SMDPad,CuDef*%
D12*
G36*
X56555000Y-28150000D02*
G01*
X56305000Y-28150000D01*
X56305000Y-27150000D01*
X56555000Y-27150000D01*
X56555000Y-28150000D01*
G37*
%TD.AperFunction*%
%TA.AperFunction,SMDPad,CuDef*%
G36*
X57030000Y-27958000D02*
G01*
X56430000Y-28558000D01*
X55830000Y-27958000D01*
X55830000Y-27758000D01*
X57030000Y-27758000D01*
X57030000Y-27958000D01*
G37*
%TD.AperFunction*%
%TA.AperFunction,SMDPad,CuDef*%
%TO.P,MCU1,23*%
%TO.N,P0*%
G36*
X57030000Y-29424000D02*
G01*
X55830000Y-29424000D01*
X55830000Y-28174000D01*
X56430000Y-28774000D01*
X57030000Y-28174000D01*
X57030000Y-29424000D01*
G37*
%TD.AperFunction*%
%TA.AperFunction,SMDPad,CuDef*%
%TO.P,MCU1,*%
%TO.N,*%
G36*
X54015000Y-28150000D02*
G01*
X53765000Y-28150000D01*
X53765000Y-27150000D01*
X54015000Y-27150000D01*
X54015000Y-28150000D01*
G37*
%TD.AperFunction*%
%TA.AperFunction,SMDPad,CuDef*%
G36*
X54490000Y-27958000D02*
G01*
X53890000Y-28558000D01*
X53290000Y-27958000D01*
X53290000Y-27758000D01*
X54490000Y-27758000D01*
X54490000Y-27958000D01*
G37*
%TD.AperFunction*%
%TA.AperFunction,SMDPad,CuDef*%
%TO.P,MCU1,22*%
%TO.N,GND*%
G36*
X54490000Y-29424000D02*
G01*
X53290000Y-29424000D01*
X53290000Y-28174000D01*
X53890000Y-28774000D01*
X54490000Y-28174000D01*
X54490000Y-29424000D01*
G37*
%TD.AperFunction*%
%TA.AperFunction,SMDPad,CuDef*%
%TO.P,MCU1,*%
%TO.N,*%
G36*
X51475000Y-28150000D02*
G01*
X51225000Y-28150000D01*
X51225000Y-27150000D01*
X51475000Y-27150000D01*
X51475000Y-28150000D01*
G37*
%TD.AperFunction*%
%TA.AperFunction,SMDPad,CuDef*%
G36*
X51950000Y-27958000D02*
G01*
X51350000Y-28558000D01*
X50750000Y-27958000D01*
X50750000Y-27758000D01*
X51950000Y-27758000D01*
X51950000Y-27958000D01*
G37*
%TD.AperFunction*%
%TA.AperFunction,SMDPad,CuDef*%
%TO.P,MCU1,21*%
%TO.N,GND*%
G36*
X51950000Y-29424000D02*
G01*
X50750000Y-29424000D01*
X50750000Y-28174000D01*
X51350000Y-28774000D01*
X51950000Y-28174000D01*
X51950000Y-29424000D01*
G37*
%TD.AperFunction*%
%TA.AperFunction,SMDPad,CuDef*%
%TO.P,MCU1,*%
%TO.N,*%
G36*
X48935000Y-28150000D02*
G01*
X48685000Y-28150000D01*
X48685000Y-27150000D01*
X48935000Y-27150000D01*
X48935000Y-28150000D01*
G37*
%TD.AperFunction*%
%TA.AperFunction,SMDPad,CuDef*%
G36*
X49410000Y-27958000D02*
G01*
X48810000Y-28558000D01*
X48210000Y-27958000D01*
X48210000Y-27758000D01*
X49410000Y-27758000D01*
X49410000Y-27958000D01*
G37*
%TD.AperFunction*%
%TA.AperFunction,SMDPad,CuDef*%
%TO.P,MCU1,20*%
%TO.N,P2*%
G36*
X49410000Y-29424000D02*
G01*
X48210000Y-29424000D01*
X48210000Y-28174000D01*
X48810000Y-28774000D01*
X49410000Y-28174000D01*
X49410000Y-29424000D01*
G37*
%TD.AperFunction*%
%TA.AperFunction,SMDPad,CuDef*%
%TO.P,MCU1,*%
%TO.N,*%
G36*
X46395000Y-28150000D02*
G01*
X46145000Y-28150000D01*
X46145000Y-27150000D01*
X46395000Y-27150000D01*
X46395000Y-28150000D01*
G37*
%TD.AperFunction*%
%TA.AperFunction,SMDPad,CuDef*%
G36*
X46870000Y-27958000D02*
G01*
X46270000Y-28558000D01*
X45670000Y-27958000D01*
X45670000Y-27758000D01*
X46870000Y-27758000D01*
X46870000Y-27958000D01*
G37*
%TD.AperFunction*%
%TA.AperFunction,SMDPad,CuDef*%
%TO.P,MCU1,19*%
%TO.N,P3*%
G36*
X46870000Y-29424000D02*
G01*
X45670000Y-29424000D01*
X45670000Y-28174000D01*
X46270000Y-28774000D01*
X46870000Y-28174000D01*
X46870000Y-29424000D01*
G37*
%TD.AperFunction*%
%TA.AperFunction,SMDPad,CuDef*%
%TO.P,MCU1,*%
%TO.N,*%
G36*
X43855000Y-28150000D02*
G01*
X43605000Y-28150000D01*
X43605000Y-27150000D01*
X43855000Y-27150000D01*
X43855000Y-28150000D01*
G37*
%TD.AperFunction*%
%TA.AperFunction,SMDPad,CuDef*%
G36*
X44330000Y-27958000D02*
G01*
X43730000Y-28558000D01*
X43130000Y-27958000D01*
X43130000Y-27758000D01*
X44330000Y-27758000D01*
X44330000Y-27958000D01*
G37*
%TD.AperFunction*%
%TA.AperFunction,SMDPad,CuDef*%
%TO.P,MCU1,18*%
%TO.N,P4*%
G36*
X44330000Y-29424000D02*
G01*
X43130000Y-29424000D01*
X43130000Y-28174000D01*
X43730000Y-28774000D01*
X44330000Y-28174000D01*
X44330000Y-29424000D01*
G37*
%TD.AperFunction*%
%TA.AperFunction,SMDPad,CuDef*%
%TO.P,MCU1,*%
%TO.N,*%
G36*
X41315000Y-28150000D02*
G01*
X41065000Y-28150000D01*
X41065000Y-27150000D01*
X41315000Y-27150000D01*
X41315000Y-28150000D01*
G37*
%TD.AperFunction*%
%TA.AperFunction,SMDPad,CuDef*%
G36*
X41790000Y-27958000D02*
G01*
X41190000Y-28558000D01*
X40590000Y-27958000D01*
X40590000Y-27758000D01*
X41790000Y-27758000D01*
X41790000Y-27958000D01*
G37*
%TD.AperFunction*%
%TA.AperFunction,SMDPad,CuDef*%
%TO.P,MCU1,17*%
%TO.N,P5*%
G36*
X41790000Y-29424000D02*
G01*
X40590000Y-29424000D01*
X40590000Y-28174000D01*
X41190000Y-28774000D01*
X41790000Y-28174000D01*
X41790000Y-29424000D01*
G37*
%TD.AperFunction*%
%TA.AperFunction,SMDPad,CuDef*%
%TO.P,MCU1,*%
%TO.N,*%
G36*
X38775000Y-28150000D02*
G01*
X38525000Y-28150000D01*
X38525000Y-27150000D01*
X38775000Y-27150000D01*
X38775000Y-28150000D01*
G37*
%TD.AperFunction*%
%TA.AperFunction,SMDPad,CuDef*%
G36*
X39250000Y-27958000D02*
G01*
X38650000Y-28558000D01*
X38050000Y-27958000D01*
X38050000Y-27758000D01*
X39250000Y-27758000D01*
X39250000Y-27958000D01*
G37*
%TD.AperFunction*%
%TA.AperFunction,SMDPad,CuDef*%
%TO.P,MCU1,16*%
%TO.N,P6*%
G36*
X39250000Y-29424000D02*
G01*
X38050000Y-29424000D01*
X38050000Y-28174000D01*
X38650000Y-28774000D01*
X39250000Y-28174000D01*
X39250000Y-29424000D01*
G37*
%TD.AperFunction*%
%TA.AperFunction,SMDPad,CuDef*%
%TO.P,MCU1,*%
%TO.N,*%
G36*
X36235000Y-28150000D02*
G01*
X35985000Y-28150000D01*
X35985000Y-27150000D01*
X36235000Y-27150000D01*
X36235000Y-28150000D01*
G37*
%TD.AperFunction*%
%TA.AperFunction,SMDPad,CuDef*%
G36*
X36710000Y-27958000D02*
G01*
X36110000Y-28558000D01*
X35510000Y-27958000D01*
X35510000Y-27758000D01*
X36710000Y-27758000D01*
X36710000Y-27958000D01*
G37*
%TD.AperFunction*%
%TA.AperFunction,SMDPad,CuDef*%
%TO.P,MCU1,15*%
%TO.N,P7*%
G36*
X36710000Y-29424000D02*
G01*
X35510000Y-29424000D01*
X35510000Y-28174000D01*
X36110000Y-28774000D01*
X36710000Y-28174000D01*
X36710000Y-29424000D01*
G37*
%TD.AperFunction*%
%TA.AperFunction,SMDPad,CuDef*%
%TO.P,MCU1,*%
%TO.N,*%
G36*
X33695000Y-28150000D02*
G01*
X33445000Y-28150000D01*
X33445000Y-27150000D01*
X33695000Y-27150000D01*
X33695000Y-28150000D01*
G37*
%TD.AperFunction*%
%TA.AperFunction,SMDPad,CuDef*%
G36*
X34170000Y-27958000D02*
G01*
X33570000Y-28558000D01*
X32970000Y-27958000D01*
X32970000Y-27758000D01*
X34170000Y-27758000D01*
X34170000Y-27958000D01*
G37*
%TD.AperFunction*%
%TA.AperFunction,SMDPad,CuDef*%
%TO.P,MCU1,14*%
%TO.N,P8*%
G36*
X34170000Y-29424000D02*
G01*
X32970000Y-29424000D01*
X32970000Y-28174000D01*
X33570000Y-28774000D01*
X34170000Y-28174000D01*
X34170000Y-29424000D01*
G37*
%TD.AperFunction*%
%TA.AperFunction,SMDPad,CuDef*%
%TO.P,MCU1,*%
%TO.N,*%
G36*
X31155000Y-28150000D02*
G01*
X30905000Y-28150000D01*
X30905000Y-27150000D01*
X31155000Y-27150000D01*
X31155000Y-28150000D01*
G37*
%TD.AperFunction*%
%TA.AperFunction,SMDPad,CuDef*%
G36*
X31630000Y-27958000D02*
G01*
X31030000Y-28558000D01*
X30430000Y-27958000D01*
X30430000Y-27758000D01*
X31630000Y-27758000D01*
X31630000Y-27958000D01*
G37*
%TD.AperFunction*%
%TA.AperFunction,SMDPad,CuDef*%
%TO.P,MCU1,13*%
%TO.N,P9*%
G36*
X31630000Y-29424000D02*
G01*
X30430000Y-29424000D01*
X30430000Y-28174000D01*
X31030000Y-28774000D01*
X31630000Y-28174000D01*
X31630000Y-29424000D01*
G37*
%TD.AperFunction*%
%TA.AperFunction,SMDPad,CuDef*%
%TO.P,MCU1,1*%
%TO.N,RAW*%
G36*
X58370000Y-38576000D02*
G01*
X59570000Y-38576000D01*
X59570000Y-39826000D01*
X58970000Y-39226000D01*
X58370000Y-39826000D01*
X58370000Y-38576000D01*
G37*
%TD.AperFunction*%
%TA.AperFunction,SMDPad,CuDef*%
%TO.P,MCU1,3*%
%TO.N,RST*%
G36*
X53290000Y-38576000D02*
G01*
X54490000Y-38576000D01*
X54490000Y-39826000D01*
X53890000Y-39226000D01*
X53290000Y-39826000D01*
X53290000Y-38576000D01*
G37*
%TD.AperFunction*%
%TA.AperFunction,SMDPad,CuDef*%
%TO.P,MCU1,*%
%TO.N,*%
G36*
X53765000Y-39850000D02*
G01*
X54015000Y-39850000D01*
X54015000Y-40850000D01*
X53765000Y-40850000D01*
X53765000Y-39850000D01*
G37*
%TD.AperFunction*%
%TA.AperFunction,SMDPad,CuDef*%
G36*
X53290000Y-40042000D02*
G01*
X53890000Y-39442000D01*
X54490000Y-40042000D01*
X54490000Y-40242000D01*
X53290000Y-40242000D01*
X53290000Y-40042000D01*
G37*
%TD.AperFunction*%
%TA.AperFunction,SMDPad,CuDef*%
G36*
X58370000Y-40042000D02*
G01*
X58970000Y-39442000D01*
X59570000Y-40042000D01*
X59570000Y-40242000D01*
X58370000Y-40242000D01*
X58370000Y-40042000D01*
G37*
%TD.AperFunction*%
%TA.AperFunction,SMDPad,CuDef*%
G36*
X56305000Y-39850000D02*
G01*
X56555000Y-39850000D01*
X56555000Y-40850000D01*
X56305000Y-40850000D01*
X56305000Y-39850000D01*
G37*
%TD.AperFunction*%
%TA.AperFunction,SMDPad,CuDef*%
%TO.P,MCU1,2*%
%TO.N,GND*%
G36*
X55830000Y-38576000D02*
G01*
X57030000Y-38576000D01*
X57030000Y-39826000D01*
X56430000Y-39226000D01*
X55830000Y-39826000D01*
X55830000Y-38576000D01*
G37*
%TD.AperFunction*%
%TA.AperFunction,SMDPad,CuDef*%
%TO.P,MCU1,*%
%TO.N,*%
G36*
X58845000Y-39850000D02*
G01*
X59095000Y-39850000D01*
X59095000Y-40850000D01*
X58845000Y-40850000D01*
X58845000Y-39850000D01*
G37*
%TD.AperFunction*%
%TA.AperFunction,SMDPad,CuDef*%
%TO.P,MCU1,4*%
%TO.N,VCC*%
G36*
X50750000Y-38576000D02*
G01*
X51950000Y-38576000D01*
X51950000Y-39826000D01*
X51350000Y-39226000D01*
X50750000Y-39826000D01*
X50750000Y-38576000D01*
G37*
%TD.AperFunction*%
%TA.AperFunction,SMDPad,CuDef*%
%TO.P,MCU1,*%
%TO.N,*%
G36*
X55830000Y-40042000D02*
G01*
X56430000Y-39442000D01*
X57030000Y-40042000D01*
X57030000Y-40242000D01*
X55830000Y-40242000D01*
X55830000Y-40042000D01*
G37*
%TD.AperFunction*%
%TA.AperFunction,SMDPad,CuDef*%
G36*
X50750000Y-40042000D02*
G01*
X51350000Y-39442000D01*
X51950000Y-40042000D01*
X51950000Y-40242000D01*
X50750000Y-40242000D01*
X50750000Y-40042000D01*
G37*
%TD.AperFunction*%
%TA.AperFunction,SMDPad,CuDef*%
%TO.P,MCU1,6*%
%TO.N,P20*%
G36*
X45670000Y-38576000D02*
G01*
X46870000Y-38576000D01*
X46870000Y-39826000D01*
X46270000Y-39226000D01*
X45670000Y-39826000D01*
X45670000Y-38576000D01*
G37*
%TD.AperFunction*%
%TA.AperFunction,SMDPad,CuDef*%
%TO.P,MCU1,7*%
%TO.N,P19*%
G36*
X43130000Y-38576000D02*
G01*
X44330000Y-38576000D01*
X44330000Y-39826000D01*
X43730000Y-39226000D01*
X43130000Y-39826000D01*
X43130000Y-38576000D01*
G37*
%TD.AperFunction*%
%TA.AperFunction,SMDPad,CuDef*%
%TO.P,MCU1,*%
%TO.N,*%
G36*
X30905000Y-39850000D02*
G01*
X31155000Y-39850000D01*
X31155000Y-40850000D01*
X30905000Y-40850000D01*
X30905000Y-39850000D01*
G37*
%TD.AperFunction*%
%TA.AperFunction,SMDPad,CuDef*%
G36*
X43130000Y-40042000D02*
G01*
X43730000Y-39442000D01*
X44330000Y-40042000D01*
X44330000Y-40242000D01*
X43130000Y-40242000D01*
X43130000Y-40042000D01*
G37*
%TD.AperFunction*%
%TA.AperFunction,SMDPad,CuDef*%
G36*
X35985000Y-39850000D02*
G01*
X36235000Y-39850000D01*
X36235000Y-40850000D01*
X35985000Y-40850000D01*
X35985000Y-39850000D01*
G37*
%TD.AperFunction*%
%TA.AperFunction,SMDPad,CuDef*%
%TO.P,MCU1,8*%
%TO.N,P18*%
G36*
X40590000Y-38576000D02*
G01*
X41790000Y-38576000D01*
X41790000Y-39826000D01*
X41190000Y-39226000D01*
X40590000Y-39826000D01*
X40590000Y-38576000D01*
G37*
%TD.AperFunction*%
%TA.AperFunction,SMDPad,CuDef*%
%TO.P,MCU1,*%
%TO.N,*%
G36*
X43605000Y-39850000D02*
G01*
X43855000Y-39850000D01*
X43855000Y-40850000D01*
X43605000Y-40850000D01*
X43605000Y-39850000D01*
G37*
%TD.AperFunction*%
%TA.AperFunction,SMDPad,CuDef*%
%TO.P,MCU1,12*%
%TO.N,P10*%
G36*
X30430000Y-38576000D02*
G01*
X31630000Y-38576000D01*
X31630000Y-39826000D01*
X31030000Y-39226000D01*
X30430000Y-39826000D01*
X30430000Y-38576000D01*
G37*
%TD.AperFunction*%
%TA.AperFunction,SMDPad,CuDef*%
%TO.P,MCU1,*%
%TO.N,*%
G36*
X40590000Y-40042000D02*
G01*
X41190000Y-39442000D01*
X41790000Y-40042000D01*
X41790000Y-40242000D01*
X40590000Y-40242000D01*
X40590000Y-40042000D01*
G37*
%TD.AperFunction*%
%TA.AperFunction,SMDPad,CuDef*%
G36*
X38525000Y-39850000D02*
G01*
X38775000Y-39850000D01*
X38775000Y-40850000D01*
X38525000Y-40850000D01*
X38525000Y-39850000D01*
G37*
%TD.AperFunction*%
%TA.AperFunction,SMDPad,CuDef*%
G36*
X30430000Y-40042000D02*
G01*
X31030000Y-39442000D01*
X31630000Y-40042000D01*
X31630000Y-40242000D01*
X30430000Y-40242000D01*
X30430000Y-40042000D01*
G37*
%TD.AperFunction*%
%TA.AperFunction,SMDPad,CuDef*%
G36*
X48685000Y-39850000D02*
G01*
X48935000Y-39850000D01*
X48935000Y-40850000D01*
X48685000Y-40850000D01*
X48685000Y-39850000D01*
G37*
%TD.AperFunction*%
%TA.AperFunction,SMDPad,CuDef*%
G36*
X41065000Y-39850000D02*
G01*
X41315000Y-39850000D01*
X41315000Y-40850000D01*
X41065000Y-40850000D01*
X41065000Y-39850000D01*
G37*
%TD.AperFunction*%
%TA.AperFunction,SMDPad,CuDef*%
G36*
X46145000Y-39850000D02*
G01*
X46395000Y-39850000D01*
X46395000Y-40850000D01*
X46145000Y-40850000D01*
X46145000Y-39850000D01*
G37*
%TD.AperFunction*%
%TA.AperFunction,SMDPad,CuDef*%
%TO.P,MCU1,9*%
%TO.N,P15*%
G36*
X38050000Y-38576000D02*
G01*
X39250000Y-38576000D01*
X39250000Y-39826000D01*
X38650000Y-39226000D01*
X38050000Y-39826000D01*
X38050000Y-38576000D01*
G37*
%TD.AperFunction*%
%TA.AperFunction,SMDPad,CuDef*%
%TO.P,MCU1,*%
%TO.N,*%
G36*
X51225000Y-39850000D02*
G01*
X51475000Y-39850000D01*
X51475000Y-40850000D01*
X51225000Y-40850000D01*
X51225000Y-39850000D01*
G37*
%TD.AperFunction*%
%TA.AperFunction,SMDPad,CuDef*%
G36*
X48210000Y-40042000D02*
G01*
X48810000Y-39442000D01*
X49410000Y-40042000D01*
X49410000Y-40242000D01*
X48210000Y-40242000D01*
X48210000Y-40042000D01*
G37*
%TD.AperFunction*%
%TA.AperFunction,SMDPad,CuDef*%
G36*
X45670000Y-40042000D02*
G01*
X46270000Y-39442000D01*
X46870000Y-40042000D01*
X46870000Y-40242000D01*
X45670000Y-40242000D01*
X45670000Y-40042000D01*
G37*
%TD.AperFunction*%
%TA.AperFunction,SMDPad,CuDef*%
G36*
X38050000Y-40042000D02*
G01*
X38650000Y-39442000D01*
X39250000Y-40042000D01*
X39250000Y-40242000D01*
X38050000Y-40242000D01*
X38050000Y-40042000D01*
G37*
%TD.AperFunction*%
%TA.AperFunction,SMDPad,CuDef*%
%TO.P,MCU1,10*%
%TO.N,P14*%
G36*
X35510000Y-38576000D02*
G01*
X36710000Y-38576000D01*
X36710000Y-39826000D01*
X36110000Y-39226000D01*
X35510000Y-39826000D01*
X35510000Y-38576000D01*
G37*
%TD.AperFunction*%
%TA.AperFunction,SMDPad,CuDef*%
%TO.P,MCU1,*%
%TO.N,*%
G36*
X35510000Y-40042000D02*
G01*
X36110000Y-39442000D01*
X36710000Y-40042000D01*
X36710000Y-40242000D01*
X35510000Y-40242000D01*
X35510000Y-40042000D01*
G37*
%TD.AperFunction*%
%TA.AperFunction,SMDPad,CuDef*%
G36*
X32970000Y-40042000D02*
G01*
X33570000Y-39442000D01*
X34170000Y-40042000D01*
X34170000Y-40242000D01*
X32970000Y-40242000D01*
X32970000Y-40042000D01*
G37*
%TD.AperFunction*%
%TA.AperFunction,SMDPad,CuDef*%
%TO.P,MCU1,11*%
%TO.N,P16*%
G36*
X32970000Y-38576000D02*
G01*
X34170000Y-38576000D01*
X34170000Y-39826000D01*
X33570000Y-39226000D01*
X32970000Y-39826000D01*
X32970000Y-38576000D01*
G37*
%TD.AperFunction*%
%TA.AperFunction,SMDPad,CuDef*%
%TO.P,MCU1,*%
%TO.N,*%
G36*
X33445000Y-39850000D02*
G01*
X33695000Y-39850000D01*
X33695000Y-40850000D01*
X33445000Y-40850000D01*
X33445000Y-39850000D01*
G37*
%TD.AperFunction*%
%TA.AperFunction,SMDPad,CuDef*%
%TO.P,MCU1,5*%
%TO.N,P21*%
G36*
X48210000Y-38576000D02*
G01*
X49410000Y-38576000D01*
X49410000Y-39826000D01*
X48810000Y-39226000D01*
X48210000Y-39826000D01*
X48210000Y-38576000D01*
G37*
%TD.AperFunction*%
%TA.AperFunction,SMDPad,CuDef*%
%TO.P,MCU1,23*%
%TO.N,P0*%
G36*
X56442632Y-29049640D02*
G01*
X56454707Y-29051466D01*
X56466546Y-29054462D01*
X56478037Y-29058599D01*
X56489069Y-29063837D01*
X56499537Y-29070127D01*
X56509341Y-29077409D01*
X56518388Y-29085612D01*
X57280389Y-29847612D01*
X57280674Y-29847901D01*
X57280696Y-29847921D01*
X57280719Y-29847947D01*
X57281614Y-29848854D01*
X57285241Y-29852968D01*
X57288868Y-29856996D01*
X57289257Y-29857524D01*
X57289691Y-29858016D01*
X57292876Y-29862432D01*
X57296115Y-29866826D01*
X57296452Y-29867391D01*
X57296834Y-29867921D01*
X57299582Y-29872643D01*
X57302368Y-29877316D01*
X57302645Y-29877905D01*
X57302977Y-29878475D01*
X57305263Y-29883468D01*
X57307568Y-29888366D01*
X57307786Y-29888979D01*
X57308061Y-29889579D01*
X57309846Y-29894764D01*
X57311665Y-29899871D01*
X57311823Y-29900504D01*
X57312037Y-29901126D01*
X57313310Y-29906471D01*
X57314619Y-29911721D01*
X57314714Y-29912363D01*
X57314867Y-29913006D01*
X57315618Y-29918483D01*
X57316403Y-29923802D01*
X57316434Y-29924444D01*
X57316525Y-29925105D01*
X57316736Y-29930601D01*
X57317000Y-29936000D01*
X57317000Y-32476000D01*
X57316997Y-32476398D01*
X57316999Y-32476436D01*
X57316997Y-32476480D01*
X57316988Y-32477745D01*
X57316644Y-32483213D01*
X57316360Y-32488632D01*
X57316262Y-32489278D01*
X57316221Y-32489934D01*
X57315351Y-32495301D01*
X57314534Y-32500707D01*
X57314372Y-32501347D01*
X57314268Y-32501989D01*
X57312878Y-32507251D01*
X57311538Y-32512546D01*
X57311317Y-32513159D01*
X57311149Y-32513796D01*
X57309230Y-32518955D01*
X57307401Y-32524036D01*
X57307123Y-32524621D01*
X57306892Y-32525243D01*
X57304496Y-32530156D01*
X57302163Y-32535069D01*
X57301823Y-32535635D01*
X57301538Y-32536219D01*
X57298697Y-32540838D01*
X57295873Y-32545537D01*
X57295482Y-32546064D01*
X57295139Y-32546621D01*
X57291844Y-32550962D01*
X57288592Y-32555341D01*
X57288152Y-32555826D01*
X57287756Y-32556348D01*
X57284059Y-32560340D01*
X57280389Y-32564388D01*
X56518388Y-33326388D01*
X56517146Y-33327614D01*
X56515491Y-33329073D01*
X56513945Y-33330619D01*
X56510940Y-33333085D01*
X56507985Y-33335690D01*
X56506173Y-33336997D01*
X56504462Y-33338401D01*
X56501257Y-33340543D01*
X56498080Y-33342834D01*
X56496125Y-33343972D01*
X56494263Y-33345216D01*
X56490882Y-33347023D01*
X56487525Y-33348977D01*
X56485446Y-33349929D01*
X56483444Y-33350999D01*
X56479929Y-33352455D01*
X56476421Y-33354061D01*
X56474231Y-33354815D01*
X56472111Y-33355693D01*
X56468482Y-33356794D01*
X56464874Y-33358036D01*
X56462608Y-33358576D01*
X56460373Y-33359254D01*
X56456684Y-33359988D01*
X56452994Y-33360867D01*
X56450646Y-33361189D01*
X56448341Y-33361647D01*
X56444627Y-33362013D01*
X56440895Y-33362524D01*
X56438500Y-33362616D01*
X56436133Y-33362849D01*
X56432438Y-33362849D01*
X56428691Y-33362993D01*
X56426270Y-33362849D01*
X56423867Y-33362849D01*
X56420198Y-33362488D01*
X56416500Y-33362268D01*
X56414093Y-33361887D01*
X56411659Y-33361647D01*
X56408061Y-33360931D01*
X56404437Y-33360358D01*
X56402044Y-33359735D01*
X56399627Y-33359254D01*
X56396150Y-33358199D01*
X56392620Y-33357280D01*
X56390275Y-33356417D01*
X56387889Y-33355693D01*
X56384560Y-33354314D01*
X56381159Y-33353063D01*
X56378887Y-33351965D01*
X56376556Y-33350999D01*
X56374554Y-33349929D01*
X56373405Y-33349315D01*
X56370164Y-33347748D01*
X56367981Y-33346416D01*
X56365737Y-33345216D01*
X56362789Y-33343246D01*
X56359740Y-33341385D01*
X56357680Y-33339832D01*
X56355538Y-33338401D01*
X56352830Y-33336179D01*
X56349986Y-33334036D01*
X56348055Y-33332260D01*
X56346055Y-33330619D01*
X56343595Y-33328159D01*
X56340996Y-33325769D01*
X56339233Y-33323797D01*
X56337381Y-33321945D01*
X56335185Y-33319269D01*
X56332857Y-33316665D01*
X56331280Y-33314511D01*
X56329599Y-33312462D01*
X56327693Y-33309609D01*
X56325644Y-33306810D01*
X56324271Y-33304488D01*
X56322784Y-33302263D01*
X56321179Y-33299261D01*
X56319427Y-33296298D01*
X56318275Y-33293827D01*
X56317001Y-33291444D01*
X56315709Y-33288324D01*
X56314266Y-33285230D01*
X56313351Y-33282633D01*
X56312307Y-33280111D01*
X56311333Y-33276900D01*
X56310210Y-33273711D01*
X56309548Y-33271016D01*
X56308746Y-33268373D01*
X56308098Y-33265116D01*
X56307296Y-33261851D01*
X56306895Y-33259065D01*
X56306353Y-33256341D01*
X56306030Y-33253062D01*
X56305555Y-33249763D01*
X56305426Y-33246929D01*
X56305151Y-33244133D01*
X56305151Y-33240867D01*
X56305001Y-33237564D01*
X56305151Y-33234701D01*
X56305151Y-33231867D01*
X56305468Y-33228644D01*
X56305640Y-33225368D01*
X56306072Y-33222508D01*
X56306353Y-33219659D01*
X56306980Y-33216505D01*
X56307466Y-33213293D01*
X56308181Y-33210467D01*
X56308746Y-33207627D01*
X56309674Y-33204569D01*
X56310462Y-33201454D01*
X56311458Y-33198687D01*
X56312307Y-33195889D01*
X56313519Y-33192963D01*
X56314599Y-33189963D01*
X56315872Y-33187282D01*
X56317001Y-33184556D01*
X56318480Y-33181789D01*
X56319837Y-33178931D01*
X56321378Y-33176367D01*
X56322784Y-33173737D01*
X56324514Y-33171148D01*
X56326127Y-33168463D01*
X56327931Y-33166034D01*
X56329599Y-33163538D01*
X56331560Y-33161148D01*
X56333409Y-33158659D01*
X56335451Y-33156407D01*
X56337381Y-33154055D01*
X56339552Y-33151884D01*
X56341612Y-33149612D01*
X57067000Y-32424223D01*
X57067000Y-29987777D01*
X56341612Y-29262388D01*
X56340386Y-29261146D01*
X56332310Y-29251985D01*
X56325166Y-29242080D01*
X56319023Y-29231525D01*
X56313939Y-29220421D01*
X56309964Y-29208874D01*
X56307133Y-29196994D01*
X56305476Y-29184895D01*
X56305007Y-29172691D01*
X56305732Y-29160500D01*
X56307642Y-29148437D01*
X56310720Y-29136620D01*
X56314937Y-29125159D01*
X56320252Y-29114164D01*
X56326615Y-29103740D01*
X56333964Y-29093986D01*
X56342231Y-29084996D01*
X56351335Y-29076857D01*
X56361190Y-29069644D01*
X56371702Y-29063427D01*
X56382770Y-29058266D01*
X56394289Y-29054210D01*
X56406149Y-29051296D01*
X56418237Y-29049555D01*
X56430436Y-29049001D01*
X56442632Y-29049640D01*
G37*
%TD.AperFunction*%
D15*
%TO.P,MCU1,2*%
%TO.N,GND*%
X56430000Y-34762000D03*
%TO.P,MCU1,23*%
%TO.N,P0*%
X56430000Y-33238000D03*
%TO.P,MCU1,24*%
%TO.N,P1*%
X58970000Y-33238000D03*
%TO.P,MCU1,1*%
%TO.N,RAW*%
X58970000Y-34762000D03*
%TA.AperFunction,SMDPad,CuDef*%
D12*
G36*
X58957368Y-38950360D02*
G01*
X58945293Y-38948534D01*
X58933454Y-38945538D01*
X58921963Y-38941401D01*
X58910931Y-38936163D01*
X58900463Y-38929873D01*
X58890659Y-38922591D01*
X58881612Y-38914388D01*
X58115611Y-38148388D01*
X58115326Y-38148099D01*
X58115304Y-38148079D01*
X58115281Y-38148053D01*
X58114386Y-38147146D01*
X58110759Y-38143032D01*
X58107132Y-38139004D01*
X58106743Y-38138476D01*
X58106309Y-38137984D01*
X58103124Y-38133568D01*
X58099885Y-38129174D01*
X58099548Y-38128609D01*
X58099166Y-38128079D01*
X58096418Y-38123357D01*
X58093632Y-38118684D01*
X58093355Y-38118095D01*
X58093023Y-38117525D01*
X58090737Y-38112532D01*
X58088432Y-38107634D01*
X58088214Y-38107021D01*
X58087939Y-38106421D01*
X58086154Y-38101236D01*
X58084335Y-38096129D01*
X58084177Y-38095496D01*
X58083963Y-38094874D01*
X58082692Y-38089539D01*
X58081381Y-38084279D01*
X58081286Y-38083635D01*
X58081133Y-38082993D01*
X58080383Y-38077524D01*
X58079597Y-38072198D01*
X58079566Y-38071556D01*
X58079475Y-38070895D01*
X58079264Y-38065399D01*
X58079000Y-38060000D01*
X58079000Y-35528000D01*
X58079003Y-35527602D01*
X58079001Y-35527564D01*
X58079003Y-35527520D01*
X58079012Y-35526255D01*
X58079353Y-35520837D01*
X58079639Y-35515369D01*
X58079738Y-35514713D01*
X58079779Y-35514066D01*
X58080643Y-35508734D01*
X58081466Y-35503293D01*
X58081628Y-35502653D01*
X58081732Y-35502011D01*
X58083122Y-35496749D01*
X58084462Y-35491454D01*
X58084683Y-35490840D01*
X58084851Y-35490204D01*
X58086752Y-35485091D01*
X58088598Y-35479964D01*
X58088880Y-35479370D01*
X58089108Y-35478757D01*
X58091488Y-35473879D01*
X58093837Y-35468931D01*
X58094177Y-35468365D01*
X58094462Y-35467781D01*
X58097303Y-35463162D01*
X58100127Y-35458463D01*
X58100518Y-35457936D01*
X58100861Y-35457379D01*
X58104156Y-35453038D01*
X58107408Y-35448659D01*
X58107848Y-35448174D01*
X58108244Y-35447652D01*
X58111941Y-35443660D01*
X58115611Y-35439612D01*
X58881612Y-34673612D01*
X58882854Y-34672386D01*
X58884509Y-34670927D01*
X58886055Y-34669381D01*
X58889060Y-34666915D01*
X58892015Y-34664310D01*
X58893827Y-34663003D01*
X58895538Y-34661599D01*
X58898743Y-34659457D01*
X58901920Y-34657166D01*
X58903875Y-34656028D01*
X58905737Y-34654784D01*
X58909118Y-34652977D01*
X58912475Y-34651023D01*
X58914554Y-34650071D01*
X58916556Y-34649001D01*
X58920071Y-34647545D01*
X58923579Y-34645939D01*
X58925769Y-34645185D01*
X58927889Y-34644307D01*
X58931518Y-34643206D01*
X58935126Y-34641964D01*
X58937392Y-34641424D01*
X58939627Y-34640746D01*
X58943316Y-34640012D01*
X58947006Y-34639133D01*
X58949354Y-34638811D01*
X58951659Y-34638353D01*
X58955373Y-34637987D01*
X58959105Y-34637476D01*
X58961500Y-34637384D01*
X58963867Y-34637151D01*
X58967562Y-34637151D01*
X58971309Y-34637007D01*
X58973730Y-34637151D01*
X58976133Y-34637151D01*
X58979802Y-34637512D01*
X58983500Y-34637732D01*
X58985907Y-34638113D01*
X58988341Y-34638353D01*
X58991939Y-34639069D01*
X58995563Y-34639642D01*
X58997956Y-34640265D01*
X59000373Y-34640746D01*
X59003850Y-34641801D01*
X59007380Y-34642720D01*
X59009725Y-34643583D01*
X59012111Y-34644307D01*
X59015440Y-34645686D01*
X59018841Y-34646937D01*
X59021113Y-34648035D01*
X59023444Y-34649001D01*
X59025446Y-34650071D01*
X59026595Y-34650685D01*
X59029836Y-34652252D01*
X59032019Y-34653584D01*
X59034263Y-34654784D01*
X59037211Y-34656754D01*
X59040260Y-34658615D01*
X59042320Y-34660168D01*
X59044462Y-34661599D01*
X59047170Y-34663821D01*
X59050014Y-34665964D01*
X59051945Y-34667740D01*
X59053945Y-34669381D01*
X59056405Y-34671841D01*
X59059004Y-34674231D01*
X59060767Y-34676203D01*
X59062619Y-34678055D01*
X59064815Y-34680731D01*
X59067143Y-34683335D01*
X59068720Y-34685489D01*
X59070401Y-34687538D01*
X59072307Y-34690391D01*
X59074356Y-34693190D01*
X59075729Y-34695512D01*
X59077216Y-34697737D01*
X59078821Y-34700739D01*
X59080573Y-34703702D01*
X59081725Y-34706173D01*
X59082999Y-34708556D01*
X59084291Y-34711676D01*
X59085734Y-34714770D01*
X59086649Y-34717367D01*
X59087693Y-34719889D01*
X59088667Y-34723100D01*
X59089790Y-34726289D01*
X59090452Y-34728984D01*
X59091254Y-34731627D01*
X59091902Y-34734884D01*
X59092704Y-34738149D01*
X59093105Y-34740935D01*
X59093647Y-34743659D01*
X59093970Y-34746938D01*
X59094445Y-34750237D01*
X59094574Y-34753071D01*
X59094849Y-34755867D01*
X59094849Y-34759133D01*
X59094999Y-34762436D01*
X59094849Y-34765299D01*
X59094849Y-34768133D01*
X59094532Y-34771356D01*
X59094360Y-34774632D01*
X59093928Y-34777492D01*
X59093647Y-34780341D01*
X59093020Y-34783495D01*
X59092534Y-34786707D01*
X59091819Y-34789533D01*
X59091254Y-34792373D01*
X59090326Y-34795431D01*
X59089538Y-34798546D01*
X59088542Y-34801313D01*
X59087693Y-34804111D01*
X59086481Y-34807037D01*
X59085401Y-34810037D01*
X59084128Y-34812718D01*
X59082999Y-34815444D01*
X59081520Y-34818211D01*
X59080163Y-34821069D01*
X59078622Y-34823633D01*
X59077216Y-34826263D01*
X59075486Y-34828852D01*
X59073873Y-34831537D01*
X59072069Y-34833966D01*
X59070401Y-34836462D01*
X59068440Y-34838852D01*
X59066591Y-34841341D01*
X59064549Y-34843593D01*
X59062619Y-34845945D01*
X59060448Y-34848116D01*
X59058388Y-34850388D01*
X58329000Y-35579777D01*
X58329000Y-38008223D01*
X59058388Y-38737612D01*
X59059614Y-38738854D01*
X59067690Y-38748015D01*
X59074834Y-38757920D01*
X59080977Y-38768475D01*
X59086061Y-38779579D01*
X59090036Y-38791126D01*
X59092867Y-38803006D01*
X59094524Y-38815105D01*
X59094993Y-38827309D01*
X59094268Y-38839500D01*
X59092358Y-38851563D01*
X59089280Y-38863380D01*
X59085063Y-38874841D01*
X59079748Y-38885836D01*
X59073385Y-38896260D01*
X59066036Y-38906014D01*
X59057769Y-38915004D01*
X59048665Y-38923143D01*
X59038810Y-38930356D01*
X59028298Y-38936573D01*
X59017230Y-38941734D01*
X59005711Y-38945790D01*
X58993851Y-38948704D01*
X58981763Y-38950445D01*
X58969564Y-38950999D01*
X58957368Y-38950360D01*
G37*
%TD.AperFunction*%
%TA.AperFunction,SMDPad,CuDef*%
%TO.P,MCU1,24*%
%TO.N,P1*%
G36*
X58982632Y-29049640D02*
G01*
X58994707Y-29051466D01*
X59006546Y-29054462D01*
X59018037Y-29058599D01*
X59029069Y-29063837D01*
X59039537Y-29070127D01*
X59049341Y-29077409D01*
X59058388Y-29085612D01*
X59820389Y-29847612D01*
X59820674Y-29847901D01*
X59820696Y-29847921D01*
X59820719Y-29847947D01*
X59821614Y-29848854D01*
X59825241Y-29852968D01*
X59828868Y-29856996D01*
X59829257Y-29857524D01*
X59829691Y-29858016D01*
X59832876Y-29862432D01*
X59836115Y-29866826D01*
X59836452Y-29867391D01*
X59836834Y-29867921D01*
X59839582Y-29872643D01*
X59842368Y-29877316D01*
X59842645Y-29877905D01*
X59842977Y-29878475D01*
X59845263Y-29883468D01*
X59847568Y-29888366D01*
X59847786Y-29888979D01*
X59848061Y-29889579D01*
X59849846Y-29894764D01*
X59851665Y-29899871D01*
X59851823Y-29900504D01*
X59852037Y-29901126D01*
X59853310Y-29906471D01*
X59854619Y-29911721D01*
X59854714Y-29912363D01*
X59854867Y-29913006D01*
X59855618Y-29918483D01*
X59856403Y-29923802D01*
X59856434Y-29924444D01*
X59856525Y-29925105D01*
X59856736Y-29930601D01*
X59857000Y-29936000D01*
X59857000Y-32476000D01*
X59856997Y-32476398D01*
X59856999Y-32476436D01*
X59856997Y-32476480D01*
X59856988Y-32477745D01*
X59856644Y-32483213D01*
X59856360Y-32488632D01*
X59856262Y-32489278D01*
X59856221Y-32489934D01*
X59855351Y-32495301D01*
X59854534Y-32500707D01*
X59854372Y-32501347D01*
X59854268Y-32501989D01*
X59852878Y-32507251D01*
X59851538Y-32512546D01*
X59851317Y-32513159D01*
X59851149Y-32513796D01*
X59849230Y-32518955D01*
X59847401Y-32524036D01*
X59847123Y-32524621D01*
X59846892Y-32525243D01*
X59844496Y-32530156D01*
X59842163Y-32535069D01*
X59841823Y-32535635D01*
X59841538Y-32536219D01*
X59838697Y-32540838D01*
X59835873Y-32545537D01*
X59835482Y-32546064D01*
X59835139Y-32546621D01*
X59831844Y-32550962D01*
X59828592Y-32555341D01*
X59828152Y-32555826D01*
X59827756Y-32556348D01*
X59824059Y-32560340D01*
X59820389Y-32564388D01*
X59058388Y-33326388D01*
X59057146Y-33327614D01*
X59055491Y-33329073D01*
X59053945Y-33330619D01*
X59050940Y-33333085D01*
X59047985Y-33335690D01*
X59046173Y-33336997D01*
X59044462Y-33338401D01*
X59041257Y-33340543D01*
X59038080Y-33342834D01*
X59036125Y-33343972D01*
X59034263Y-33345216D01*
X59030882Y-33347023D01*
X59027525Y-33348977D01*
X59025446Y-33349929D01*
X59023444Y-33350999D01*
X59019929Y-33352455D01*
X59016421Y-33354061D01*
X59014231Y-33354815D01*
X59012111Y-33355693D01*
X59008482Y-33356794D01*
X59004874Y-33358036D01*
X59002608Y-33358576D01*
X59000373Y-33359254D01*
X58996684Y-33359988D01*
X58992994Y-33360867D01*
X58990646Y-33361189D01*
X58988341Y-33361647D01*
X58984627Y-33362013D01*
X58980895Y-33362524D01*
X58978500Y-33362616D01*
X58976133Y-33362849D01*
X58972438Y-33362849D01*
X58968691Y-33362993D01*
X58966270Y-33362849D01*
X58963867Y-33362849D01*
X58960198Y-33362488D01*
X58956500Y-33362268D01*
X58954093Y-33361887D01*
X58951659Y-33361647D01*
X58948061Y-33360931D01*
X58944437Y-33360358D01*
X58942044Y-33359735D01*
X58939627Y-33359254D01*
X58936150Y-33358199D01*
X58932620Y-33357280D01*
X58930275Y-33356417D01*
X58927889Y-33355693D01*
X58924560Y-33354314D01*
X58921159Y-33353063D01*
X58918887Y-33351965D01*
X58916556Y-33350999D01*
X58914554Y-33349929D01*
X58913405Y-33349315D01*
X58910164Y-33347748D01*
X58907981Y-33346416D01*
X58905737Y-33345216D01*
X58902789Y-33343246D01*
X58899740Y-33341385D01*
X58897680Y-33339832D01*
X58895538Y-33338401D01*
X58892830Y-33336179D01*
X58889986Y-33334036D01*
X58888055Y-33332260D01*
X58886055Y-33330619D01*
X58883595Y-33328159D01*
X58880996Y-33325769D01*
X58879233Y-33323797D01*
X58877381Y-33321945D01*
X58875185Y-33319269D01*
X58872857Y-33316665D01*
X58871280Y-33314511D01*
X58869599Y-33312462D01*
X58867693Y-33309609D01*
X58865644Y-33306810D01*
X58864271Y-33304488D01*
X58862784Y-33302263D01*
X58861179Y-33299261D01*
X58859427Y-33296298D01*
X58858275Y-33293827D01*
X58857001Y-33291444D01*
X58855709Y-33288324D01*
X58854266Y-33285230D01*
X58853351Y-33282633D01*
X58852307Y-33280111D01*
X58851333Y-33276900D01*
X58850210Y-33273711D01*
X58849548Y-33271016D01*
X58848746Y-33268373D01*
X58848098Y-33265116D01*
X58847296Y-33261851D01*
X58846895Y-33259065D01*
X58846353Y-33256341D01*
X58846030Y-33253062D01*
X58845555Y-33249763D01*
X58845426Y-33246929D01*
X58845151Y-33244133D01*
X58845151Y-33240867D01*
X58845001Y-33237564D01*
X58845151Y-33234701D01*
X58845151Y-33231867D01*
X58845468Y-33228644D01*
X58845640Y-33225368D01*
X58846072Y-33222508D01*
X58846353Y-33219659D01*
X58846980Y-33216505D01*
X58847466Y-33213293D01*
X58848181Y-33210467D01*
X58848746Y-33207627D01*
X58849674Y-33204569D01*
X58850462Y-33201454D01*
X58851458Y-33198687D01*
X58852307Y-33195889D01*
X58853519Y-33192963D01*
X58854599Y-33189963D01*
X58855872Y-33187282D01*
X58857001Y-33184556D01*
X58858480Y-33181789D01*
X58859837Y-33178931D01*
X58861378Y-33176367D01*
X58862784Y-33173737D01*
X58864514Y-33171148D01*
X58866127Y-33168463D01*
X58867931Y-33166034D01*
X58869599Y-33163538D01*
X58871560Y-33161148D01*
X58873409Y-33158659D01*
X58875451Y-33156407D01*
X58877381Y-33154055D01*
X58879552Y-33151884D01*
X58881612Y-33149612D01*
X59607000Y-32424223D01*
X59607000Y-29987777D01*
X58881612Y-29262388D01*
X58880386Y-29261146D01*
X58872310Y-29251985D01*
X58865166Y-29242080D01*
X58859023Y-29231525D01*
X58853939Y-29220421D01*
X58849964Y-29208874D01*
X58847133Y-29196994D01*
X58845476Y-29184895D01*
X58845007Y-29172691D01*
X58845732Y-29160500D01*
X58847642Y-29148437D01*
X58850720Y-29136620D01*
X58854937Y-29125159D01*
X58860252Y-29114164D01*
X58866615Y-29103740D01*
X58873964Y-29093986D01*
X58882231Y-29084996D01*
X58891335Y-29076857D01*
X58901190Y-29069644D01*
X58911702Y-29063427D01*
X58922770Y-29058266D01*
X58934289Y-29054210D01*
X58946149Y-29051296D01*
X58958237Y-29049555D01*
X58970436Y-29049001D01*
X58982632Y-29049640D01*
G37*
%TD.AperFunction*%
D15*
%TO.P,MCU1,22*%
%TO.N,GND*%
X53890000Y-33238000D03*
%TO.P,MCU1,3*%
%TO.N,RST*%
X53890000Y-34762000D03*
%TA.AperFunction,SMDPad,CuDef*%
D12*
G36*
X53877368Y-38950360D02*
G01*
X53865293Y-38948534D01*
X53853454Y-38945538D01*
X53841963Y-38941401D01*
X53830931Y-38936163D01*
X53820463Y-38929873D01*
X53810659Y-38922591D01*
X53801612Y-38914388D01*
X53035611Y-38148388D01*
X53035326Y-38148099D01*
X53035304Y-38148079D01*
X53035281Y-38148053D01*
X53034386Y-38147146D01*
X53030759Y-38143032D01*
X53027132Y-38139004D01*
X53026743Y-38138476D01*
X53026309Y-38137984D01*
X53023124Y-38133568D01*
X53019885Y-38129174D01*
X53019548Y-38128609D01*
X53019166Y-38128079D01*
X53016418Y-38123357D01*
X53013632Y-38118684D01*
X53013355Y-38118095D01*
X53013023Y-38117525D01*
X53010737Y-38112532D01*
X53008432Y-38107634D01*
X53008214Y-38107021D01*
X53007939Y-38106421D01*
X53006154Y-38101236D01*
X53004335Y-38096129D01*
X53004177Y-38095496D01*
X53003963Y-38094874D01*
X53002692Y-38089539D01*
X53001381Y-38084279D01*
X53001286Y-38083635D01*
X53001133Y-38082993D01*
X53000383Y-38077524D01*
X52999597Y-38072198D01*
X52999566Y-38071556D01*
X52999475Y-38070895D01*
X52999264Y-38065399D01*
X52999000Y-38060000D01*
X52999000Y-35528000D01*
X52999003Y-35527602D01*
X52999001Y-35527564D01*
X52999003Y-35527520D01*
X52999012Y-35526255D01*
X52999353Y-35520837D01*
X52999639Y-35515369D01*
X52999738Y-35514713D01*
X52999779Y-35514066D01*
X53000643Y-35508734D01*
X53001466Y-35503293D01*
X53001628Y-35502653D01*
X53001732Y-35502011D01*
X53003122Y-35496749D01*
X53004462Y-35491454D01*
X53004683Y-35490840D01*
X53004851Y-35490204D01*
X53006752Y-35485091D01*
X53008598Y-35479964D01*
X53008880Y-35479370D01*
X53009108Y-35478757D01*
X53011488Y-35473879D01*
X53013837Y-35468931D01*
X53014177Y-35468365D01*
X53014462Y-35467781D01*
X53017303Y-35463162D01*
X53020127Y-35458463D01*
X53020518Y-35457936D01*
X53020861Y-35457379D01*
X53024156Y-35453038D01*
X53027408Y-35448659D01*
X53027848Y-35448174D01*
X53028244Y-35447652D01*
X53031941Y-35443660D01*
X53035611Y-35439612D01*
X53801612Y-34673612D01*
X53802854Y-34672386D01*
X53804509Y-34670927D01*
X53806055Y-34669381D01*
X53809060Y-34666915D01*
X53812015Y-34664310D01*
X53813827Y-34663003D01*
X53815538Y-34661599D01*
X53818743Y-34659457D01*
X53821920Y-34657166D01*
X53823875Y-34656028D01*
X53825737Y-34654784D01*
X53829118Y-34652977D01*
X53832475Y-34651023D01*
X53834554Y-34650071D01*
X53836556Y-34649001D01*
X53840071Y-34647545D01*
X53843579Y-34645939D01*
X53845769Y-34645185D01*
X53847889Y-34644307D01*
X53851518Y-34643206D01*
X53855126Y-34641964D01*
X53857392Y-34641424D01*
X53859627Y-34640746D01*
X53863316Y-34640012D01*
X53867006Y-34639133D01*
X53869354Y-34638811D01*
X53871659Y-34638353D01*
X53875373Y-34637987D01*
X53879105Y-34637476D01*
X53881500Y-34637384D01*
X53883867Y-34637151D01*
X53887562Y-34637151D01*
X53891309Y-34637007D01*
X53893730Y-34637151D01*
X53896133Y-34637151D01*
X53899802Y-34637512D01*
X53903500Y-34637732D01*
X53905907Y-34638113D01*
X53908341Y-34638353D01*
X53911939Y-34639069D01*
X53915563Y-34639642D01*
X53917956Y-34640265D01*
X53920373Y-34640746D01*
X53923850Y-34641801D01*
X53927380Y-34642720D01*
X53929725Y-34643583D01*
X53932111Y-34644307D01*
X53935440Y-34645686D01*
X53938841Y-34646937D01*
X53941113Y-34648035D01*
X53943444Y-34649001D01*
X53945446Y-34650071D01*
X53946595Y-34650685D01*
X53949836Y-34652252D01*
X53952019Y-34653584D01*
X53954263Y-34654784D01*
X53957211Y-34656754D01*
X53960260Y-34658615D01*
X53962320Y-34660168D01*
X53964462Y-34661599D01*
X53967170Y-34663821D01*
X53970014Y-34665964D01*
X53971945Y-34667740D01*
X53973945Y-34669381D01*
X53976405Y-34671841D01*
X53979004Y-34674231D01*
X53980767Y-34676203D01*
X53982619Y-34678055D01*
X53984815Y-34680731D01*
X53987143Y-34683335D01*
X53988720Y-34685489D01*
X53990401Y-34687538D01*
X53992307Y-34690391D01*
X53994356Y-34693190D01*
X53995729Y-34695512D01*
X53997216Y-34697737D01*
X53998821Y-34700739D01*
X54000573Y-34703702D01*
X54001725Y-34706173D01*
X54002999Y-34708556D01*
X54004291Y-34711676D01*
X54005734Y-34714770D01*
X54006649Y-34717367D01*
X54007693Y-34719889D01*
X54008667Y-34723100D01*
X54009790Y-34726289D01*
X54010452Y-34728984D01*
X54011254Y-34731627D01*
X54011902Y-34734884D01*
X54012704Y-34738149D01*
X54013105Y-34740935D01*
X54013647Y-34743659D01*
X54013970Y-34746938D01*
X54014445Y-34750237D01*
X54014574Y-34753071D01*
X54014849Y-34755867D01*
X54014849Y-34759133D01*
X54014999Y-34762436D01*
X54014849Y-34765299D01*
X54014849Y-34768133D01*
X54014532Y-34771356D01*
X54014360Y-34774632D01*
X54013928Y-34777492D01*
X54013647Y-34780341D01*
X54013020Y-34783495D01*
X54012534Y-34786707D01*
X54011819Y-34789533D01*
X54011254Y-34792373D01*
X54010326Y-34795431D01*
X54009538Y-34798546D01*
X54008542Y-34801313D01*
X54007693Y-34804111D01*
X54006481Y-34807037D01*
X54005401Y-34810037D01*
X54004128Y-34812718D01*
X54002999Y-34815444D01*
X54001520Y-34818211D01*
X54000163Y-34821069D01*
X53998622Y-34823633D01*
X53997216Y-34826263D01*
X53995486Y-34828852D01*
X53993873Y-34831537D01*
X53992069Y-34833966D01*
X53990401Y-34836462D01*
X53988440Y-34838852D01*
X53986591Y-34841341D01*
X53984549Y-34843593D01*
X53982619Y-34845945D01*
X53980448Y-34848116D01*
X53978388Y-34850388D01*
X53249000Y-35579777D01*
X53249000Y-38008223D01*
X53978388Y-38737612D01*
X53979614Y-38738854D01*
X53987690Y-38748015D01*
X53994834Y-38757920D01*
X54000977Y-38768475D01*
X54006061Y-38779579D01*
X54010036Y-38791126D01*
X54012867Y-38803006D01*
X54014524Y-38815105D01*
X54014993Y-38827309D01*
X54014268Y-38839500D01*
X54012358Y-38851563D01*
X54009280Y-38863380D01*
X54005063Y-38874841D01*
X53999748Y-38885836D01*
X53993385Y-38896260D01*
X53986036Y-38906014D01*
X53977769Y-38915004D01*
X53968665Y-38923143D01*
X53958810Y-38930356D01*
X53948298Y-38936573D01*
X53937230Y-38941734D01*
X53925711Y-38945790D01*
X53913851Y-38948704D01*
X53901763Y-38950445D01*
X53889564Y-38950999D01*
X53877368Y-38950360D01*
G37*
%TD.AperFunction*%
%TA.AperFunction,SMDPad,CuDef*%
%TO.P,MCU1,22*%
%TO.N,GND*%
G36*
X53902632Y-29049640D02*
G01*
X53914707Y-29051466D01*
X53926546Y-29054462D01*
X53938037Y-29058599D01*
X53949069Y-29063837D01*
X53959537Y-29070127D01*
X53969341Y-29077409D01*
X53978388Y-29085612D01*
X54740389Y-29847612D01*
X54740674Y-29847901D01*
X54740696Y-29847921D01*
X54740719Y-29847947D01*
X54741614Y-29848854D01*
X54745241Y-29852968D01*
X54748868Y-29856996D01*
X54749257Y-29857524D01*
X54749691Y-29858016D01*
X54752876Y-29862432D01*
X54756115Y-29866826D01*
X54756452Y-29867391D01*
X54756834Y-29867921D01*
X54759582Y-29872643D01*
X54762368Y-29877316D01*
X54762645Y-29877905D01*
X54762977Y-29878475D01*
X54765263Y-29883468D01*
X54767568Y-29888366D01*
X54767786Y-29888979D01*
X54768061Y-29889579D01*
X54769846Y-29894764D01*
X54771665Y-29899871D01*
X54771823Y-29900504D01*
X54772037Y-29901126D01*
X54773310Y-29906471D01*
X54774619Y-29911721D01*
X54774714Y-29912363D01*
X54774867Y-29913006D01*
X54775618Y-29918483D01*
X54776403Y-29923802D01*
X54776434Y-29924444D01*
X54776525Y-29925105D01*
X54776736Y-29930601D01*
X54777000Y-29936000D01*
X54777000Y-32476000D01*
X54776997Y-32476398D01*
X54776999Y-32476436D01*
X54776997Y-32476480D01*
X54776988Y-32477745D01*
X54776644Y-32483213D01*
X54776360Y-32488632D01*
X54776262Y-32489278D01*
X54776221Y-32489934D01*
X54775351Y-32495301D01*
X54774534Y-32500707D01*
X54774372Y-32501347D01*
X54774268Y-32501989D01*
X54772878Y-32507251D01*
X54771538Y-32512546D01*
X54771317Y-32513159D01*
X54771149Y-32513796D01*
X54769230Y-32518955D01*
X54767401Y-32524036D01*
X54767123Y-32524621D01*
X54766892Y-32525243D01*
X54764496Y-32530156D01*
X54762163Y-32535069D01*
X54761823Y-32535635D01*
X54761538Y-32536219D01*
X54758697Y-32540838D01*
X54755873Y-32545537D01*
X54755482Y-32546064D01*
X54755139Y-32546621D01*
X54751844Y-32550962D01*
X54748592Y-32555341D01*
X54748152Y-32555826D01*
X54747756Y-32556348D01*
X54744059Y-32560340D01*
X54740389Y-32564388D01*
X53978388Y-33326388D01*
X53977146Y-33327614D01*
X53975491Y-33329073D01*
X53973945Y-33330619D01*
X53970940Y-33333085D01*
X53967985Y-33335690D01*
X53966173Y-33336997D01*
X53964462Y-33338401D01*
X53961257Y-33340543D01*
X53958080Y-33342834D01*
X53956125Y-33343972D01*
X53954263Y-33345216D01*
X53950882Y-33347023D01*
X53947525Y-33348977D01*
X53945446Y-33349929D01*
X53943444Y-33350999D01*
X53939929Y-33352455D01*
X53936421Y-33354061D01*
X53934231Y-33354815D01*
X53932111Y-33355693D01*
X53928482Y-33356794D01*
X53924874Y-33358036D01*
X53922608Y-33358576D01*
X53920373Y-33359254D01*
X53916684Y-33359988D01*
X53912994Y-33360867D01*
X53910646Y-33361189D01*
X53908341Y-33361647D01*
X53904627Y-33362013D01*
X53900895Y-33362524D01*
X53898500Y-33362616D01*
X53896133Y-33362849D01*
X53892438Y-33362849D01*
X53888691Y-33362993D01*
X53886270Y-33362849D01*
X53883867Y-33362849D01*
X53880198Y-33362488D01*
X53876500Y-33362268D01*
X53874093Y-33361887D01*
X53871659Y-33361647D01*
X53868061Y-33360931D01*
X53864437Y-33360358D01*
X53862044Y-33359735D01*
X53859627Y-33359254D01*
X53856150Y-33358199D01*
X53852620Y-33357280D01*
X53850275Y-33356417D01*
X53847889Y-33355693D01*
X53844560Y-33354314D01*
X53841159Y-33353063D01*
X53838887Y-33351965D01*
X53836556Y-33350999D01*
X53834554Y-33349929D01*
X53833405Y-33349315D01*
X53830164Y-33347748D01*
X53827981Y-33346416D01*
X53825737Y-33345216D01*
X53822789Y-33343246D01*
X53819740Y-33341385D01*
X53817680Y-33339832D01*
X53815538Y-33338401D01*
X53812830Y-33336179D01*
X53809986Y-33334036D01*
X53808055Y-33332260D01*
X53806055Y-33330619D01*
X53803595Y-33328159D01*
X53800996Y-33325769D01*
X53799233Y-33323797D01*
X53797381Y-33321945D01*
X53795185Y-33319269D01*
X53792857Y-33316665D01*
X53791280Y-33314511D01*
X53789599Y-33312462D01*
X53787693Y-33309609D01*
X53785644Y-33306810D01*
X53784271Y-33304488D01*
X53782784Y-33302263D01*
X53781179Y-33299261D01*
X53779427Y-33296298D01*
X53778275Y-33293827D01*
X53777001Y-33291444D01*
X53775709Y-33288324D01*
X53774266Y-33285230D01*
X53773351Y-33282633D01*
X53772307Y-33280111D01*
X53771333Y-33276900D01*
X53770210Y-33273711D01*
X53769548Y-33271016D01*
X53768746Y-33268373D01*
X53768098Y-33265116D01*
X53767296Y-33261851D01*
X53766895Y-33259065D01*
X53766353Y-33256341D01*
X53766030Y-33253062D01*
X53765555Y-33249763D01*
X53765426Y-33246929D01*
X53765151Y-33244133D01*
X53765151Y-33240867D01*
X53765001Y-33237564D01*
X53765151Y-33234701D01*
X53765151Y-33231867D01*
X53765468Y-33228644D01*
X53765640Y-33225368D01*
X53766072Y-33222508D01*
X53766353Y-33219659D01*
X53766980Y-33216505D01*
X53767466Y-33213293D01*
X53768181Y-33210467D01*
X53768746Y-33207627D01*
X53769674Y-33204569D01*
X53770462Y-33201454D01*
X53771458Y-33198687D01*
X53772307Y-33195889D01*
X53773519Y-33192963D01*
X53774599Y-33189963D01*
X53775872Y-33187282D01*
X53777001Y-33184556D01*
X53778480Y-33181789D01*
X53779837Y-33178931D01*
X53781378Y-33176367D01*
X53782784Y-33173737D01*
X53784514Y-33171148D01*
X53786127Y-33168463D01*
X53787931Y-33166034D01*
X53789599Y-33163538D01*
X53791560Y-33161148D01*
X53793409Y-33158659D01*
X53795451Y-33156407D01*
X53797381Y-33154055D01*
X53799552Y-33151884D01*
X53801612Y-33149612D01*
X54527000Y-32424223D01*
X54527000Y-29987777D01*
X53801612Y-29262388D01*
X53800386Y-29261146D01*
X53792310Y-29251985D01*
X53785166Y-29242080D01*
X53779023Y-29231525D01*
X53773939Y-29220421D01*
X53769964Y-29208874D01*
X53767133Y-29196994D01*
X53765476Y-29184895D01*
X53765007Y-29172691D01*
X53765732Y-29160500D01*
X53767642Y-29148437D01*
X53770720Y-29136620D01*
X53774937Y-29125159D01*
X53780252Y-29114164D01*
X53786615Y-29103740D01*
X53793964Y-29093986D01*
X53802231Y-29084996D01*
X53811335Y-29076857D01*
X53821190Y-29069644D01*
X53831702Y-29063427D01*
X53842770Y-29058266D01*
X53854289Y-29054210D01*
X53866149Y-29051296D01*
X53878237Y-29049555D01*
X53890436Y-29049001D01*
X53902632Y-29049640D01*
G37*
%TD.AperFunction*%
D15*
%TO.P,MCU1,21*%
X51350000Y-33238000D03*
%TO.P,MCU1,4*%
%TO.N,VCC*%
X51350000Y-34762000D03*
%TA.AperFunction,SMDPad,CuDef*%
D12*
G36*
X51337368Y-38950360D02*
G01*
X51325293Y-38948534D01*
X51313454Y-38945538D01*
X51301963Y-38941401D01*
X51290931Y-38936163D01*
X51280463Y-38929873D01*
X51270659Y-38922591D01*
X51261612Y-38914388D01*
X50495611Y-38148388D01*
X50495326Y-38148099D01*
X50495304Y-38148079D01*
X50495281Y-38148053D01*
X50494386Y-38147146D01*
X50490759Y-38143032D01*
X50487132Y-38139004D01*
X50486743Y-38138476D01*
X50486309Y-38137984D01*
X50483124Y-38133568D01*
X50479885Y-38129174D01*
X50479548Y-38128609D01*
X50479166Y-38128079D01*
X50476418Y-38123357D01*
X50473632Y-38118684D01*
X50473355Y-38118095D01*
X50473023Y-38117525D01*
X50470737Y-38112532D01*
X50468432Y-38107634D01*
X50468214Y-38107021D01*
X50467939Y-38106421D01*
X50466154Y-38101236D01*
X50464335Y-38096129D01*
X50464177Y-38095496D01*
X50463963Y-38094874D01*
X50462692Y-38089539D01*
X50461381Y-38084279D01*
X50461286Y-38083635D01*
X50461133Y-38082993D01*
X50460383Y-38077524D01*
X50459597Y-38072198D01*
X50459566Y-38071556D01*
X50459475Y-38070895D01*
X50459264Y-38065399D01*
X50459000Y-38060000D01*
X50459000Y-35528000D01*
X50459003Y-35527602D01*
X50459001Y-35527564D01*
X50459003Y-35527520D01*
X50459012Y-35526255D01*
X50459353Y-35520837D01*
X50459639Y-35515369D01*
X50459738Y-35514713D01*
X50459779Y-35514066D01*
X50460643Y-35508734D01*
X50461466Y-35503293D01*
X50461628Y-35502653D01*
X50461732Y-35502011D01*
X50463122Y-35496749D01*
X50464462Y-35491454D01*
X50464683Y-35490840D01*
X50464851Y-35490204D01*
X50466752Y-35485091D01*
X50468598Y-35479964D01*
X50468880Y-35479370D01*
X50469108Y-35478757D01*
X50471488Y-35473879D01*
X50473837Y-35468931D01*
X50474177Y-35468365D01*
X50474462Y-35467781D01*
X50477303Y-35463162D01*
X50480127Y-35458463D01*
X50480518Y-35457936D01*
X50480861Y-35457379D01*
X50484156Y-35453038D01*
X50487408Y-35448659D01*
X50487848Y-35448174D01*
X50488244Y-35447652D01*
X50491941Y-35443660D01*
X50495611Y-35439612D01*
X51261612Y-34673612D01*
X51262854Y-34672386D01*
X51264509Y-34670927D01*
X51266055Y-34669381D01*
X51269060Y-34666915D01*
X51272015Y-34664310D01*
X51273827Y-34663003D01*
X51275538Y-34661599D01*
X51278743Y-34659457D01*
X51281920Y-34657166D01*
X51283875Y-34656028D01*
X51285737Y-34654784D01*
X51289118Y-34652977D01*
X51292475Y-34651023D01*
X51294554Y-34650071D01*
X51296556Y-34649001D01*
X51300071Y-34647545D01*
X51303579Y-34645939D01*
X51305769Y-34645185D01*
X51307889Y-34644307D01*
X51311518Y-34643206D01*
X51315126Y-34641964D01*
X51317392Y-34641424D01*
X51319627Y-34640746D01*
X51323316Y-34640012D01*
X51327006Y-34639133D01*
X51329354Y-34638811D01*
X51331659Y-34638353D01*
X51335373Y-34637987D01*
X51339105Y-34637476D01*
X51341500Y-34637384D01*
X51343867Y-34637151D01*
X51347562Y-34637151D01*
X51351309Y-34637007D01*
X51353730Y-34637151D01*
X51356133Y-34637151D01*
X51359802Y-34637512D01*
X51363500Y-34637732D01*
X51365907Y-34638113D01*
X51368341Y-34638353D01*
X51371939Y-34639069D01*
X51375563Y-34639642D01*
X51377956Y-34640265D01*
X51380373Y-34640746D01*
X51383850Y-34641801D01*
X51387380Y-34642720D01*
X51389725Y-34643583D01*
X51392111Y-34644307D01*
X51395440Y-34645686D01*
X51398841Y-34646937D01*
X51401113Y-34648035D01*
X51403444Y-34649001D01*
X51405446Y-34650071D01*
X51406595Y-34650685D01*
X51409836Y-34652252D01*
X51412019Y-34653584D01*
X51414263Y-34654784D01*
X51417211Y-34656754D01*
X51420260Y-34658615D01*
X51422320Y-34660168D01*
X51424462Y-34661599D01*
X51427170Y-34663821D01*
X51430014Y-34665964D01*
X51431945Y-34667740D01*
X51433945Y-34669381D01*
X51436405Y-34671841D01*
X51439004Y-34674231D01*
X51440767Y-34676203D01*
X51442619Y-34678055D01*
X51444815Y-34680731D01*
X51447143Y-34683335D01*
X51448720Y-34685489D01*
X51450401Y-34687538D01*
X51452307Y-34690391D01*
X51454356Y-34693190D01*
X51455729Y-34695512D01*
X51457216Y-34697737D01*
X51458821Y-34700739D01*
X51460573Y-34703702D01*
X51461725Y-34706173D01*
X51462999Y-34708556D01*
X51464291Y-34711676D01*
X51465734Y-34714770D01*
X51466649Y-34717367D01*
X51467693Y-34719889D01*
X51468667Y-34723100D01*
X51469790Y-34726289D01*
X51470452Y-34728984D01*
X51471254Y-34731627D01*
X51471902Y-34734884D01*
X51472704Y-34738149D01*
X51473105Y-34740935D01*
X51473647Y-34743659D01*
X51473970Y-34746938D01*
X51474445Y-34750237D01*
X51474574Y-34753071D01*
X51474849Y-34755867D01*
X51474849Y-34759133D01*
X51474999Y-34762436D01*
X51474849Y-34765299D01*
X51474849Y-34768133D01*
X51474532Y-34771356D01*
X51474360Y-34774632D01*
X51473928Y-34777492D01*
X51473647Y-34780341D01*
X51473020Y-34783495D01*
X51472534Y-34786707D01*
X51471819Y-34789533D01*
X51471254Y-34792373D01*
X51470326Y-34795431D01*
X51469538Y-34798546D01*
X51468542Y-34801313D01*
X51467693Y-34804111D01*
X51466481Y-34807037D01*
X51465401Y-34810037D01*
X51464128Y-34812718D01*
X51462999Y-34815444D01*
X51461520Y-34818211D01*
X51460163Y-34821069D01*
X51458622Y-34823633D01*
X51457216Y-34826263D01*
X51455486Y-34828852D01*
X51453873Y-34831537D01*
X51452069Y-34833966D01*
X51450401Y-34836462D01*
X51448440Y-34838852D01*
X51446591Y-34841341D01*
X51444549Y-34843593D01*
X51442619Y-34845945D01*
X51440448Y-34848116D01*
X51438388Y-34850388D01*
X50709000Y-35579777D01*
X50709000Y-38008223D01*
X51438388Y-38737612D01*
X51439614Y-38738854D01*
X51447690Y-38748015D01*
X51454834Y-38757920D01*
X51460977Y-38768475D01*
X51466061Y-38779579D01*
X51470036Y-38791126D01*
X51472867Y-38803006D01*
X51474524Y-38815105D01*
X51474993Y-38827309D01*
X51474268Y-38839500D01*
X51472358Y-38851563D01*
X51469280Y-38863380D01*
X51465063Y-38874841D01*
X51459748Y-38885836D01*
X51453385Y-38896260D01*
X51446036Y-38906014D01*
X51437769Y-38915004D01*
X51428665Y-38923143D01*
X51418810Y-38930356D01*
X51408298Y-38936573D01*
X51397230Y-38941734D01*
X51385711Y-38945790D01*
X51373851Y-38948704D01*
X51361763Y-38950445D01*
X51349564Y-38950999D01*
X51337368Y-38950360D01*
G37*
%TD.AperFunction*%
%TA.AperFunction,SMDPad,CuDef*%
%TO.P,MCU1,21*%
%TO.N,GND*%
G36*
X51362632Y-29049640D02*
G01*
X51374707Y-29051466D01*
X51386546Y-29054462D01*
X51398037Y-29058599D01*
X51409069Y-29063837D01*
X51419537Y-29070127D01*
X51429341Y-29077409D01*
X51438388Y-29085612D01*
X52200389Y-29847612D01*
X52200674Y-29847901D01*
X52200696Y-29847921D01*
X52200719Y-29847947D01*
X52201614Y-29848854D01*
X52205241Y-29852968D01*
X52208868Y-29856996D01*
X52209257Y-29857524D01*
X52209691Y-29858016D01*
X52212876Y-29862432D01*
X52216115Y-29866826D01*
X52216452Y-29867391D01*
X52216834Y-29867921D01*
X52219582Y-29872643D01*
X52222368Y-29877316D01*
X52222645Y-29877905D01*
X52222977Y-29878475D01*
X52225263Y-29883468D01*
X52227568Y-29888366D01*
X52227786Y-29888979D01*
X52228061Y-29889579D01*
X52229846Y-29894764D01*
X52231665Y-29899871D01*
X52231823Y-29900504D01*
X52232037Y-29901126D01*
X52233310Y-29906471D01*
X52234619Y-29911721D01*
X52234714Y-29912363D01*
X52234867Y-29913006D01*
X52235618Y-29918483D01*
X52236403Y-29923802D01*
X52236434Y-29924444D01*
X52236525Y-29925105D01*
X52236736Y-29930601D01*
X52237000Y-29936000D01*
X52237000Y-32476000D01*
X52236997Y-32476398D01*
X52236999Y-32476436D01*
X52236997Y-32476480D01*
X52236988Y-32477745D01*
X52236644Y-32483213D01*
X52236360Y-32488632D01*
X52236262Y-32489278D01*
X52236221Y-32489934D01*
X52235351Y-32495301D01*
X52234534Y-32500707D01*
X52234372Y-32501347D01*
X52234268Y-32501989D01*
X52232878Y-32507251D01*
X52231538Y-32512546D01*
X52231317Y-32513159D01*
X52231149Y-32513796D01*
X52229230Y-32518955D01*
X52227401Y-32524036D01*
X52227123Y-32524621D01*
X52226892Y-32525243D01*
X52224496Y-32530156D01*
X52222163Y-32535069D01*
X52221823Y-32535635D01*
X52221538Y-32536219D01*
X52218697Y-32540838D01*
X52215873Y-32545537D01*
X52215482Y-32546064D01*
X52215139Y-32546621D01*
X52211844Y-32550962D01*
X52208592Y-32555341D01*
X52208152Y-32555826D01*
X52207756Y-32556348D01*
X52204059Y-32560340D01*
X52200389Y-32564388D01*
X51438388Y-33326388D01*
X51437146Y-33327614D01*
X51435491Y-33329073D01*
X51433945Y-33330619D01*
X51430940Y-33333085D01*
X51427985Y-33335690D01*
X51426173Y-33336997D01*
X51424462Y-33338401D01*
X51421257Y-33340543D01*
X51418080Y-33342834D01*
X51416125Y-33343972D01*
X51414263Y-33345216D01*
X51410882Y-33347023D01*
X51407525Y-33348977D01*
X51405446Y-33349929D01*
X51403444Y-33350999D01*
X51399929Y-33352455D01*
X51396421Y-33354061D01*
X51394231Y-33354815D01*
X51392111Y-33355693D01*
X51388482Y-33356794D01*
X51384874Y-33358036D01*
X51382608Y-33358576D01*
X51380373Y-33359254D01*
X51376684Y-33359988D01*
X51372994Y-33360867D01*
X51370646Y-33361189D01*
X51368341Y-33361647D01*
X51364627Y-33362013D01*
X51360895Y-33362524D01*
X51358500Y-33362616D01*
X51356133Y-33362849D01*
X51352438Y-33362849D01*
X51348691Y-33362993D01*
X51346270Y-33362849D01*
X51343867Y-33362849D01*
X51340198Y-33362488D01*
X51336500Y-33362268D01*
X51334093Y-33361887D01*
X51331659Y-33361647D01*
X51328061Y-33360931D01*
X51324437Y-33360358D01*
X51322044Y-33359735D01*
X51319627Y-33359254D01*
X51316150Y-33358199D01*
X51312620Y-33357280D01*
X51310275Y-33356417D01*
X51307889Y-33355693D01*
X51304560Y-33354314D01*
X51301159Y-33353063D01*
X51298887Y-33351965D01*
X51296556Y-33350999D01*
X51294554Y-33349929D01*
X51293405Y-33349315D01*
X51290164Y-33347748D01*
X51287981Y-33346416D01*
X51285737Y-33345216D01*
X51282789Y-33343246D01*
X51279740Y-33341385D01*
X51277680Y-33339832D01*
X51275538Y-33338401D01*
X51272830Y-33336179D01*
X51269986Y-33334036D01*
X51268055Y-33332260D01*
X51266055Y-33330619D01*
X51263595Y-33328159D01*
X51260996Y-33325769D01*
X51259233Y-33323797D01*
X51257381Y-33321945D01*
X51255185Y-33319269D01*
X51252857Y-33316665D01*
X51251280Y-33314511D01*
X51249599Y-33312462D01*
X51247693Y-33309609D01*
X51245644Y-33306810D01*
X51244271Y-33304488D01*
X51242784Y-33302263D01*
X51241179Y-33299261D01*
X51239427Y-33296298D01*
X51238275Y-33293827D01*
X51237001Y-33291444D01*
X51235709Y-33288324D01*
X51234266Y-33285230D01*
X51233351Y-33282633D01*
X51232307Y-33280111D01*
X51231333Y-33276900D01*
X51230210Y-33273711D01*
X51229548Y-33271016D01*
X51228746Y-33268373D01*
X51228098Y-33265116D01*
X51227296Y-33261851D01*
X51226895Y-33259065D01*
X51226353Y-33256341D01*
X51226030Y-33253062D01*
X51225555Y-33249763D01*
X51225426Y-33246929D01*
X51225151Y-33244133D01*
X51225151Y-33240867D01*
X51225001Y-33237564D01*
X51225151Y-33234701D01*
X51225151Y-33231867D01*
X51225468Y-33228644D01*
X51225640Y-33225368D01*
X51226072Y-33222508D01*
X51226353Y-33219659D01*
X51226980Y-33216505D01*
X51227466Y-33213293D01*
X51228181Y-33210467D01*
X51228746Y-33207627D01*
X51229674Y-33204569D01*
X51230462Y-33201454D01*
X51231458Y-33198687D01*
X51232307Y-33195889D01*
X51233519Y-33192963D01*
X51234599Y-33189963D01*
X51235872Y-33187282D01*
X51237001Y-33184556D01*
X51238480Y-33181789D01*
X51239837Y-33178931D01*
X51241378Y-33176367D01*
X51242784Y-33173737D01*
X51244514Y-33171148D01*
X51246127Y-33168463D01*
X51247931Y-33166034D01*
X51249599Y-33163538D01*
X51251560Y-33161148D01*
X51253409Y-33158659D01*
X51255451Y-33156407D01*
X51257381Y-33154055D01*
X51259552Y-33151884D01*
X51261612Y-33149612D01*
X51987000Y-32424223D01*
X51987000Y-29987777D01*
X51261612Y-29262388D01*
X51260386Y-29261146D01*
X51252310Y-29251985D01*
X51245166Y-29242080D01*
X51239023Y-29231525D01*
X51233939Y-29220421D01*
X51229964Y-29208874D01*
X51227133Y-29196994D01*
X51225476Y-29184895D01*
X51225007Y-29172691D01*
X51225732Y-29160500D01*
X51227642Y-29148437D01*
X51230720Y-29136620D01*
X51234937Y-29125159D01*
X51240252Y-29114164D01*
X51246615Y-29103740D01*
X51253964Y-29093986D01*
X51262231Y-29084996D01*
X51271335Y-29076857D01*
X51281190Y-29069644D01*
X51291702Y-29063427D01*
X51302770Y-29058266D01*
X51314289Y-29054210D01*
X51326149Y-29051296D01*
X51338237Y-29049555D01*
X51350436Y-29049001D01*
X51362632Y-29049640D01*
G37*
%TD.AperFunction*%
D15*
%TO.P,MCU1,20*%
%TO.N,P2*%
X48810000Y-33238000D03*
%TO.P,MCU1,5*%
%TO.N,P21*%
X48810000Y-34762000D03*
%TA.AperFunction,SMDPad,CuDef*%
D12*
G36*
X48797368Y-38950360D02*
G01*
X48785293Y-38948534D01*
X48773454Y-38945538D01*
X48761963Y-38941401D01*
X48750931Y-38936163D01*
X48740463Y-38929873D01*
X48730659Y-38922591D01*
X48721612Y-38914388D01*
X47955611Y-38148388D01*
X47955326Y-38148099D01*
X47955304Y-38148079D01*
X47955281Y-38148053D01*
X47954386Y-38147146D01*
X47950759Y-38143032D01*
X47947132Y-38139004D01*
X47946743Y-38138476D01*
X47946309Y-38137984D01*
X47943124Y-38133568D01*
X47939885Y-38129174D01*
X47939548Y-38128609D01*
X47939166Y-38128079D01*
X47936418Y-38123357D01*
X47933632Y-38118684D01*
X47933355Y-38118095D01*
X47933023Y-38117525D01*
X47930737Y-38112532D01*
X47928432Y-38107634D01*
X47928214Y-38107021D01*
X47927939Y-38106421D01*
X47926154Y-38101236D01*
X47924335Y-38096129D01*
X47924177Y-38095496D01*
X47923963Y-38094874D01*
X47922692Y-38089539D01*
X47921381Y-38084279D01*
X47921286Y-38083635D01*
X47921133Y-38082993D01*
X47920383Y-38077524D01*
X47919597Y-38072198D01*
X47919566Y-38071556D01*
X47919475Y-38070895D01*
X47919264Y-38065399D01*
X47919000Y-38060000D01*
X47919000Y-35528000D01*
X47919003Y-35527602D01*
X47919001Y-35527564D01*
X47919003Y-35527520D01*
X47919012Y-35526255D01*
X47919353Y-35520837D01*
X47919639Y-35515369D01*
X47919738Y-35514713D01*
X47919779Y-35514066D01*
X47920643Y-35508734D01*
X47921466Y-35503293D01*
X47921628Y-35502653D01*
X47921732Y-35502011D01*
X47923122Y-35496749D01*
X47924462Y-35491454D01*
X47924683Y-35490840D01*
X47924851Y-35490204D01*
X47926752Y-35485091D01*
X47928598Y-35479964D01*
X47928880Y-35479370D01*
X47929108Y-35478757D01*
X47931488Y-35473879D01*
X47933837Y-35468931D01*
X47934177Y-35468365D01*
X47934462Y-35467781D01*
X47937303Y-35463162D01*
X47940127Y-35458463D01*
X47940518Y-35457936D01*
X47940861Y-35457379D01*
X47944156Y-35453038D01*
X47947408Y-35448659D01*
X47947848Y-35448174D01*
X47948244Y-35447652D01*
X47951941Y-35443660D01*
X47955611Y-35439612D01*
X48721612Y-34673612D01*
X48722854Y-34672386D01*
X48724509Y-34670927D01*
X48726055Y-34669381D01*
X48729060Y-34666915D01*
X48732015Y-34664310D01*
X48733827Y-34663003D01*
X48735538Y-34661599D01*
X48738743Y-34659457D01*
X48741920Y-34657166D01*
X48743875Y-34656028D01*
X48745737Y-34654784D01*
X48749118Y-34652977D01*
X48752475Y-34651023D01*
X48754554Y-34650071D01*
X48756556Y-34649001D01*
X48760071Y-34647545D01*
X48763579Y-34645939D01*
X48765769Y-34645185D01*
X48767889Y-34644307D01*
X48771518Y-34643206D01*
X48775126Y-34641964D01*
X48777392Y-34641424D01*
X48779627Y-34640746D01*
X48783316Y-34640012D01*
X48787006Y-34639133D01*
X48789354Y-34638811D01*
X48791659Y-34638353D01*
X48795373Y-34637987D01*
X48799105Y-34637476D01*
X48801500Y-34637384D01*
X48803867Y-34637151D01*
X48807562Y-34637151D01*
X48811309Y-34637007D01*
X48813730Y-34637151D01*
X48816133Y-34637151D01*
X48819802Y-34637512D01*
X48823500Y-34637732D01*
X48825907Y-34638113D01*
X48828341Y-34638353D01*
X48831939Y-34639069D01*
X48835563Y-34639642D01*
X48837956Y-34640265D01*
X48840373Y-34640746D01*
X48843850Y-34641801D01*
X48847380Y-34642720D01*
X48849725Y-34643583D01*
X48852111Y-34644307D01*
X48855440Y-34645686D01*
X48858841Y-34646937D01*
X48861113Y-34648035D01*
X48863444Y-34649001D01*
X48865446Y-34650071D01*
X48866595Y-34650685D01*
X48869836Y-34652252D01*
X48872019Y-34653584D01*
X48874263Y-34654784D01*
X48877211Y-34656754D01*
X48880260Y-34658615D01*
X48882320Y-34660168D01*
X48884462Y-34661599D01*
X48887170Y-34663821D01*
X48890014Y-34665964D01*
X48891945Y-34667740D01*
X48893945Y-34669381D01*
X48896405Y-34671841D01*
X48899004Y-34674231D01*
X48900767Y-34676203D01*
X48902619Y-34678055D01*
X48904815Y-34680731D01*
X48907143Y-34683335D01*
X48908720Y-34685489D01*
X48910401Y-34687538D01*
X48912307Y-34690391D01*
X48914356Y-34693190D01*
X48915729Y-34695512D01*
X48917216Y-34697737D01*
X48918821Y-34700739D01*
X48920573Y-34703702D01*
X48921725Y-34706173D01*
X48922999Y-34708556D01*
X48924291Y-34711676D01*
X48925734Y-34714770D01*
X48926649Y-34717367D01*
X48927693Y-34719889D01*
X48928667Y-34723100D01*
X48929790Y-34726289D01*
X48930452Y-34728984D01*
X48931254Y-34731627D01*
X48931902Y-34734884D01*
X48932704Y-34738149D01*
X48933105Y-34740935D01*
X48933647Y-34743659D01*
X48933970Y-34746938D01*
X48934445Y-34750237D01*
X48934574Y-34753071D01*
X48934849Y-34755867D01*
X48934849Y-34759133D01*
X48934999Y-34762436D01*
X48934849Y-34765299D01*
X48934849Y-34768133D01*
X48934532Y-34771356D01*
X48934360Y-34774632D01*
X48933928Y-34777492D01*
X48933647Y-34780341D01*
X48933020Y-34783495D01*
X48932534Y-34786707D01*
X48931819Y-34789533D01*
X48931254Y-34792373D01*
X48930326Y-34795431D01*
X48929538Y-34798546D01*
X48928542Y-34801313D01*
X48927693Y-34804111D01*
X48926481Y-34807037D01*
X48925401Y-34810037D01*
X48924128Y-34812718D01*
X48922999Y-34815444D01*
X48921520Y-34818211D01*
X48920163Y-34821069D01*
X48918622Y-34823633D01*
X48917216Y-34826263D01*
X48915486Y-34828852D01*
X48913873Y-34831537D01*
X48912069Y-34833966D01*
X48910401Y-34836462D01*
X48908440Y-34838852D01*
X48906591Y-34841341D01*
X48904549Y-34843593D01*
X48902619Y-34845945D01*
X48900448Y-34848116D01*
X48898388Y-34850388D01*
X48169000Y-35579777D01*
X48169000Y-38008223D01*
X48898388Y-38737612D01*
X48899614Y-38738854D01*
X48907690Y-38748015D01*
X48914834Y-38757920D01*
X48920977Y-38768475D01*
X48926061Y-38779579D01*
X48930036Y-38791126D01*
X48932867Y-38803006D01*
X48934524Y-38815105D01*
X48934993Y-38827309D01*
X48934268Y-38839500D01*
X48932358Y-38851563D01*
X48929280Y-38863380D01*
X48925063Y-38874841D01*
X48919748Y-38885836D01*
X48913385Y-38896260D01*
X48906036Y-38906014D01*
X48897769Y-38915004D01*
X48888665Y-38923143D01*
X48878810Y-38930356D01*
X48868298Y-38936573D01*
X48857230Y-38941734D01*
X48845711Y-38945790D01*
X48833851Y-38948704D01*
X48821763Y-38950445D01*
X48809564Y-38950999D01*
X48797368Y-38950360D01*
G37*
%TD.AperFunction*%
%TA.AperFunction,SMDPad,CuDef*%
%TO.P,MCU1,20*%
%TO.N,P2*%
G36*
X48822632Y-29049640D02*
G01*
X48834707Y-29051466D01*
X48846546Y-29054462D01*
X48858037Y-29058599D01*
X48869069Y-29063837D01*
X48879537Y-29070127D01*
X48889341Y-29077409D01*
X48898388Y-29085612D01*
X49660389Y-29847612D01*
X49660674Y-29847901D01*
X49660696Y-29847921D01*
X49660719Y-29847947D01*
X49661614Y-29848854D01*
X49665241Y-29852968D01*
X49668868Y-29856996D01*
X49669257Y-29857524D01*
X49669691Y-29858016D01*
X49672876Y-29862432D01*
X49676115Y-29866826D01*
X49676452Y-29867391D01*
X49676834Y-29867921D01*
X49679582Y-29872643D01*
X49682368Y-29877316D01*
X49682645Y-29877905D01*
X49682977Y-29878475D01*
X49685263Y-29883468D01*
X49687568Y-29888366D01*
X49687786Y-29888979D01*
X49688061Y-29889579D01*
X49689846Y-29894764D01*
X49691665Y-29899871D01*
X49691823Y-29900504D01*
X49692037Y-29901126D01*
X49693310Y-29906471D01*
X49694619Y-29911721D01*
X49694714Y-29912363D01*
X49694867Y-29913006D01*
X49695618Y-29918483D01*
X49696403Y-29923802D01*
X49696434Y-29924444D01*
X49696525Y-29925105D01*
X49696736Y-29930601D01*
X49697000Y-29936000D01*
X49697000Y-32476000D01*
X49696997Y-32476398D01*
X49696999Y-32476436D01*
X49696997Y-32476480D01*
X49696988Y-32477745D01*
X49696644Y-32483213D01*
X49696360Y-32488632D01*
X49696262Y-32489278D01*
X49696221Y-32489934D01*
X49695351Y-32495301D01*
X49694534Y-32500707D01*
X49694372Y-32501347D01*
X49694268Y-32501989D01*
X49692878Y-32507251D01*
X49691538Y-32512546D01*
X49691317Y-32513159D01*
X49691149Y-32513796D01*
X49689230Y-32518955D01*
X49687401Y-32524036D01*
X49687123Y-32524621D01*
X49686892Y-32525243D01*
X49684496Y-32530156D01*
X49682163Y-32535069D01*
X49681823Y-32535635D01*
X49681538Y-32536219D01*
X49678697Y-32540838D01*
X49675873Y-32545537D01*
X49675482Y-32546064D01*
X49675139Y-32546621D01*
X49671844Y-32550962D01*
X49668592Y-32555341D01*
X49668152Y-32555826D01*
X49667756Y-32556348D01*
X49664059Y-32560340D01*
X49660389Y-32564388D01*
X48898388Y-33326388D01*
X48897146Y-33327614D01*
X48895491Y-33329073D01*
X48893945Y-33330619D01*
X48890940Y-33333085D01*
X48887985Y-33335690D01*
X48886173Y-33336997D01*
X48884462Y-33338401D01*
X48881257Y-33340543D01*
X48878080Y-33342834D01*
X48876125Y-33343972D01*
X48874263Y-33345216D01*
X48870882Y-33347023D01*
X48867525Y-33348977D01*
X48865446Y-33349929D01*
X48863444Y-33350999D01*
X48859929Y-33352455D01*
X48856421Y-33354061D01*
X48854231Y-33354815D01*
X48852111Y-33355693D01*
X48848482Y-33356794D01*
X48844874Y-33358036D01*
X48842608Y-33358576D01*
X48840373Y-33359254D01*
X48836684Y-33359988D01*
X48832994Y-33360867D01*
X48830646Y-33361189D01*
X48828341Y-33361647D01*
X48824627Y-33362013D01*
X48820895Y-33362524D01*
X48818500Y-33362616D01*
X48816133Y-33362849D01*
X48812438Y-33362849D01*
X48808691Y-33362993D01*
X48806270Y-33362849D01*
X48803867Y-33362849D01*
X48800198Y-33362488D01*
X48796500Y-33362268D01*
X48794093Y-33361887D01*
X48791659Y-33361647D01*
X48788061Y-33360931D01*
X48784437Y-33360358D01*
X48782044Y-33359735D01*
X48779627Y-33359254D01*
X48776150Y-33358199D01*
X48772620Y-33357280D01*
X48770275Y-33356417D01*
X48767889Y-33355693D01*
X48764560Y-33354314D01*
X48761159Y-33353063D01*
X48758887Y-33351965D01*
X48756556Y-33350999D01*
X48754554Y-33349929D01*
X48753405Y-33349315D01*
X48750164Y-33347748D01*
X48747981Y-33346416D01*
X48745737Y-33345216D01*
X48742789Y-33343246D01*
X48739740Y-33341385D01*
X48737680Y-33339832D01*
X48735538Y-33338401D01*
X48732830Y-33336179D01*
X48729986Y-33334036D01*
X48728055Y-33332260D01*
X48726055Y-33330619D01*
X48723595Y-33328159D01*
X48720996Y-33325769D01*
X48719233Y-33323797D01*
X48717381Y-33321945D01*
X48715185Y-33319269D01*
X48712857Y-33316665D01*
X48711280Y-33314511D01*
X48709599Y-33312462D01*
X48707693Y-33309609D01*
X48705644Y-33306810D01*
X48704271Y-33304488D01*
X48702784Y-33302263D01*
X48701179Y-33299261D01*
X48699427Y-33296298D01*
X48698275Y-33293827D01*
X48697001Y-33291444D01*
X48695709Y-33288324D01*
X48694266Y-33285230D01*
X48693351Y-33282633D01*
X48692307Y-33280111D01*
X48691333Y-33276900D01*
X48690210Y-33273711D01*
X48689548Y-33271016D01*
X48688746Y-33268373D01*
X48688098Y-33265116D01*
X48687296Y-33261851D01*
X48686895Y-33259065D01*
X48686353Y-33256341D01*
X48686030Y-33253062D01*
X48685555Y-33249763D01*
X48685426Y-33246929D01*
X48685151Y-33244133D01*
X48685151Y-33240867D01*
X48685001Y-33237564D01*
X48685151Y-33234701D01*
X48685151Y-33231867D01*
X48685468Y-33228644D01*
X48685640Y-33225368D01*
X48686072Y-33222508D01*
X48686353Y-33219659D01*
X48686980Y-33216505D01*
X48687466Y-33213293D01*
X48688181Y-33210467D01*
X48688746Y-33207627D01*
X48689674Y-33204569D01*
X48690462Y-33201454D01*
X48691458Y-33198687D01*
X48692307Y-33195889D01*
X48693519Y-33192963D01*
X48694599Y-33189963D01*
X48695872Y-33187282D01*
X48697001Y-33184556D01*
X48698480Y-33181789D01*
X48699837Y-33178931D01*
X48701378Y-33176367D01*
X48702784Y-33173737D01*
X48704514Y-33171148D01*
X48706127Y-33168463D01*
X48707931Y-33166034D01*
X48709599Y-33163538D01*
X48711560Y-33161148D01*
X48713409Y-33158659D01*
X48715451Y-33156407D01*
X48717381Y-33154055D01*
X48719552Y-33151884D01*
X48721612Y-33149612D01*
X49447000Y-32424223D01*
X49447000Y-29987777D01*
X48721612Y-29262388D01*
X48720386Y-29261146D01*
X48712310Y-29251985D01*
X48705166Y-29242080D01*
X48699023Y-29231525D01*
X48693939Y-29220421D01*
X48689964Y-29208874D01*
X48687133Y-29196994D01*
X48685476Y-29184895D01*
X48685007Y-29172691D01*
X48685732Y-29160500D01*
X48687642Y-29148437D01*
X48690720Y-29136620D01*
X48694937Y-29125159D01*
X48700252Y-29114164D01*
X48706615Y-29103740D01*
X48713964Y-29093986D01*
X48722231Y-29084996D01*
X48731335Y-29076857D01*
X48741190Y-29069644D01*
X48751702Y-29063427D01*
X48762770Y-29058266D01*
X48774289Y-29054210D01*
X48786149Y-29051296D01*
X48798237Y-29049555D01*
X48810436Y-29049001D01*
X48822632Y-29049640D01*
G37*
%TD.AperFunction*%
D15*
%TO.P,MCU1,19*%
%TO.N,P3*%
X46270000Y-33238000D03*
%TO.P,MCU1,6*%
%TO.N,P20*%
X46270000Y-34762000D03*
%TA.AperFunction,SMDPad,CuDef*%
D12*
G36*
X46257368Y-38950360D02*
G01*
X46245293Y-38948534D01*
X46233454Y-38945538D01*
X46221963Y-38941401D01*
X46210931Y-38936163D01*
X46200463Y-38929873D01*
X46190659Y-38922591D01*
X46181612Y-38914388D01*
X45415611Y-38148388D01*
X45415326Y-38148099D01*
X45415304Y-38148079D01*
X45415281Y-38148053D01*
X45414386Y-38147146D01*
X45410759Y-38143032D01*
X45407132Y-38139004D01*
X45406743Y-38138476D01*
X45406309Y-38137984D01*
X45403124Y-38133568D01*
X45399885Y-38129174D01*
X45399548Y-38128609D01*
X45399166Y-38128079D01*
X45396418Y-38123357D01*
X45393632Y-38118684D01*
X45393355Y-38118095D01*
X45393023Y-38117525D01*
X45390737Y-38112532D01*
X45388432Y-38107634D01*
X45388214Y-38107021D01*
X45387939Y-38106421D01*
X45386154Y-38101236D01*
X45384335Y-38096129D01*
X45384177Y-38095496D01*
X45383963Y-38094874D01*
X45382692Y-38089539D01*
X45381381Y-38084279D01*
X45381286Y-38083635D01*
X45381133Y-38082993D01*
X45380383Y-38077524D01*
X45379597Y-38072198D01*
X45379566Y-38071556D01*
X45379475Y-38070895D01*
X45379264Y-38065399D01*
X45379000Y-38060000D01*
X45379000Y-35528000D01*
X45379003Y-35527602D01*
X45379001Y-35527564D01*
X45379003Y-35527520D01*
X45379012Y-35526255D01*
X45379353Y-35520837D01*
X45379639Y-35515369D01*
X45379738Y-35514713D01*
X45379779Y-35514066D01*
X45380643Y-35508734D01*
X45381466Y-35503293D01*
X45381628Y-35502653D01*
X45381732Y-35502011D01*
X45383122Y-35496749D01*
X45384462Y-35491454D01*
X45384683Y-35490840D01*
X45384851Y-35490204D01*
X45386752Y-35485091D01*
X45388598Y-35479964D01*
X45388880Y-35479370D01*
X45389108Y-35478757D01*
X45391488Y-35473879D01*
X45393837Y-35468931D01*
X45394177Y-35468365D01*
X45394462Y-35467781D01*
X45397303Y-35463162D01*
X45400127Y-35458463D01*
X45400518Y-35457936D01*
X45400861Y-35457379D01*
X45404156Y-35453038D01*
X45407408Y-35448659D01*
X45407848Y-35448174D01*
X45408244Y-35447652D01*
X45411941Y-35443660D01*
X45415611Y-35439612D01*
X46181612Y-34673612D01*
X46182854Y-34672386D01*
X46184509Y-34670927D01*
X46186055Y-34669381D01*
X46189060Y-34666915D01*
X46192015Y-34664310D01*
X46193827Y-34663003D01*
X46195538Y-34661599D01*
X46198743Y-34659457D01*
X46201920Y-34657166D01*
X46203875Y-34656028D01*
X46205737Y-34654784D01*
X46209118Y-34652977D01*
X46212475Y-34651023D01*
X46214554Y-34650071D01*
X46216556Y-34649001D01*
X46220071Y-34647545D01*
X46223579Y-34645939D01*
X46225769Y-34645185D01*
X46227889Y-34644307D01*
X46231518Y-34643206D01*
X46235126Y-34641964D01*
X46237392Y-34641424D01*
X46239627Y-34640746D01*
X46243316Y-34640012D01*
X46247006Y-34639133D01*
X46249354Y-34638811D01*
X46251659Y-34638353D01*
X46255373Y-34637987D01*
X46259105Y-34637476D01*
X46261500Y-34637384D01*
X46263867Y-34637151D01*
X46267562Y-34637151D01*
X46271309Y-34637007D01*
X46273730Y-34637151D01*
X46276133Y-34637151D01*
X46279802Y-34637512D01*
X46283500Y-34637732D01*
X46285907Y-34638113D01*
X46288341Y-34638353D01*
X46291939Y-34639069D01*
X46295563Y-34639642D01*
X46297956Y-34640265D01*
X46300373Y-34640746D01*
X46303850Y-34641801D01*
X46307380Y-34642720D01*
X46309725Y-34643583D01*
X46312111Y-34644307D01*
X46315440Y-34645686D01*
X46318841Y-34646937D01*
X46321113Y-34648035D01*
X46323444Y-34649001D01*
X46325446Y-34650071D01*
X46326595Y-34650685D01*
X46329836Y-34652252D01*
X46332019Y-34653584D01*
X46334263Y-34654784D01*
X46337211Y-34656754D01*
X46340260Y-34658615D01*
X46342320Y-34660168D01*
X46344462Y-34661599D01*
X46347170Y-34663821D01*
X46350014Y-34665964D01*
X46351945Y-34667740D01*
X46353945Y-34669381D01*
X46356405Y-34671841D01*
X46359004Y-34674231D01*
X46360767Y-34676203D01*
X46362619Y-34678055D01*
X46364815Y-34680731D01*
X46367143Y-34683335D01*
X46368720Y-34685489D01*
X46370401Y-34687538D01*
X46372307Y-34690391D01*
X46374356Y-34693190D01*
X46375729Y-34695512D01*
X46377216Y-34697737D01*
X46378821Y-34700739D01*
X46380573Y-34703702D01*
X46381725Y-34706173D01*
X46382999Y-34708556D01*
X46384291Y-34711676D01*
X46385734Y-34714770D01*
X46386649Y-34717367D01*
X46387693Y-34719889D01*
X46388667Y-34723100D01*
X46389790Y-34726289D01*
X46390452Y-34728984D01*
X46391254Y-34731627D01*
X46391902Y-34734884D01*
X46392704Y-34738149D01*
X46393105Y-34740935D01*
X46393647Y-34743659D01*
X46393970Y-34746938D01*
X46394445Y-34750237D01*
X46394574Y-34753071D01*
X46394849Y-34755867D01*
X46394849Y-34759133D01*
X46394999Y-34762436D01*
X46394849Y-34765299D01*
X46394849Y-34768133D01*
X46394532Y-34771356D01*
X46394360Y-34774632D01*
X46393928Y-34777492D01*
X46393647Y-34780341D01*
X46393020Y-34783495D01*
X46392534Y-34786707D01*
X46391819Y-34789533D01*
X46391254Y-34792373D01*
X46390326Y-34795431D01*
X46389538Y-34798546D01*
X46388542Y-34801313D01*
X46387693Y-34804111D01*
X46386481Y-34807037D01*
X46385401Y-34810037D01*
X46384128Y-34812718D01*
X46382999Y-34815444D01*
X46381520Y-34818211D01*
X46380163Y-34821069D01*
X46378622Y-34823633D01*
X46377216Y-34826263D01*
X46375486Y-34828852D01*
X46373873Y-34831537D01*
X46372069Y-34833966D01*
X46370401Y-34836462D01*
X46368440Y-34838852D01*
X46366591Y-34841341D01*
X46364549Y-34843593D01*
X46362619Y-34845945D01*
X46360448Y-34848116D01*
X46358388Y-34850388D01*
X45629000Y-35579777D01*
X45629000Y-38008223D01*
X46358388Y-38737612D01*
X46359614Y-38738854D01*
X46367690Y-38748015D01*
X46374834Y-38757920D01*
X46380977Y-38768475D01*
X46386061Y-38779579D01*
X46390036Y-38791126D01*
X46392867Y-38803006D01*
X46394524Y-38815105D01*
X46394993Y-38827309D01*
X46394268Y-38839500D01*
X46392358Y-38851563D01*
X46389280Y-38863380D01*
X46385063Y-38874841D01*
X46379748Y-38885836D01*
X46373385Y-38896260D01*
X46366036Y-38906014D01*
X46357769Y-38915004D01*
X46348665Y-38923143D01*
X46338810Y-38930356D01*
X46328298Y-38936573D01*
X46317230Y-38941734D01*
X46305711Y-38945790D01*
X46293851Y-38948704D01*
X46281763Y-38950445D01*
X46269564Y-38950999D01*
X46257368Y-38950360D01*
G37*
%TD.AperFunction*%
%TA.AperFunction,SMDPad,CuDef*%
%TO.P,MCU1,19*%
%TO.N,P3*%
G36*
X46282632Y-29049640D02*
G01*
X46294707Y-29051466D01*
X46306546Y-29054462D01*
X46318037Y-29058599D01*
X46329069Y-29063837D01*
X46339537Y-29070127D01*
X46349341Y-29077409D01*
X46358388Y-29085612D01*
X47120389Y-29847612D01*
X47120674Y-29847901D01*
X47120696Y-29847921D01*
X47120719Y-29847947D01*
X47121614Y-29848854D01*
X47125241Y-29852968D01*
X47128868Y-29856996D01*
X47129257Y-29857524D01*
X47129691Y-29858016D01*
X47132876Y-29862432D01*
X47136115Y-29866826D01*
X47136452Y-29867391D01*
X47136834Y-29867921D01*
X47139582Y-29872643D01*
X47142368Y-29877316D01*
X47142645Y-29877905D01*
X47142977Y-29878475D01*
X47145263Y-29883468D01*
X47147568Y-29888366D01*
X47147786Y-29888979D01*
X47148061Y-29889579D01*
X47149846Y-29894764D01*
X47151665Y-29899871D01*
X47151823Y-29900504D01*
X47152037Y-29901126D01*
X47153310Y-29906471D01*
X47154619Y-29911721D01*
X47154714Y-29912363D01*
X47154867Y-29913006D01*
X47155618Y-29918483D01*
X47156403Y-29923802D01*
X47156434Y-29924444D01*
X47156525Y-29925105D01*
X47156736Y-29930601D01*
X47157000Y-29936000D01*
X47157000Y-32476000D01*
X47156997Y-32476398D01*
X47156999Y-32476436D01*
X47156997Y-32476480D01*
X47156988Y-32477745D01*
X47156644Y-32483213D01*
X47156360Y-32488632D01*
X47156262Y-32489278D01*
X47156221Y-32489934D01*
X47155351Y-32495301D01*
X47154534Y-32500707D01*
X47154372Y-32501347D01*
X47154268Y-32501989D01*
X47152878Y-32507251D01*
X47151538Y-32512546D01*
X47151317Y-32513159D01*
X47151149Y-32513796D01*
X47149230Y-32518955D01*
X47147401Y-32524036D01*
X47147123Y-32524621D01*
X47146892Y-32525243D01*
X47144496Y-32530156D01*
X47142163Y-32535069D01*
X47141823Y-32535635D01*
X47141538Y-32536219D01*
X47138697Y-32540838D01*
X47135873Y-32545537D01*
X47135482Y-32546064D01*
X47135139Y-32546621D01*
X47131844Y-32550962D01*
X47128592Y-32555341D01*
X47128152Y-32555826D01*
X47127756Y-32556348D01*
X47124059Y-32560340D01*
X47120389Y-32564388D01*
X46358388Y-33326388D01*
X46357146Y-33327614D01*
X46355491Y-33329073D01*
X46353945Y-33330619D01*
X46350940Y-33333085D01*
X46347985Y-33335690D01*
X46346173Y-33336997D01*
X46344462Y-33338401D01*
X46341257Y-33340543D01*
X46338080Y-33342834D01*
X46336125Y-33343972D01*
X46334263Y-33345216D01*
X46330882Y-33347023D01*
X46327525Y-33348977D01*
X46325446Y-33349929D01*
X46323444Y-33350999D01*
X46319929Y-33352455D01*
X46316421Y-33354061D01*
X46314231Y-33354815D01*
X46312111Y-33355693D01*
X46308482Y-33356794D01*
X46304874Y-33358036D01*
X46302608Y-33358576D01*
X46300373Y-33359254D01*
X46296684Y-33359988D01*
X46292994Y-33360867D01*
X46290646Y-33361189D01*
X46288341Y-33361647D01*
X46284627Y-33362013D01*
X46280895Y-33362524D01*
X46278500Y-33362616D01*
X46276133Y-33362849D01*
X46272438Y-33362849D01*
X46268691Y-33362993D01*
X46266270Y-33362849D01*
X46263867Y-33362849D01*
X46260198Y-33362488D01*
X46256500Y-33362268D01*
X46254093Y-33361887D01*
X46251659Y-33361647D01*
X46248061Y-33360931D01*
X46244437Y-33360358D01*
X46242044Y-33359735D01*
X46239627Y-33359254D01*
X46236150Y-33358199D01*
X46232620Y-33357280D01*
X46230275Y-33356417D01*
X46227889Y-33355693D01*
X46224560Y-33354314D01*
X46221159Y-33353063D01*
X46218887Y-33351965D01*
X46216556Y-33350999D01*
X46214554Y-33349929D01*
X46213405Y-33349315D01*
X46210164Y-33347748D01*
X46207981Y-33346416D01*
X46205737Y-33345216D01*
X46202789Y-33343246D01*
X46199740Y-33341385D01*
X46197680Y-33339832D01*
X46195538Y-33338401D01*
X46192830Y-33336179D01*
X46189986Y-33334036D01*
X46188055Y-33332260D01*
X46186055Y-33330619D01*
X46183595Y-33328159D01*
X46180996Y-33325769D01*
X46179233Y-33323797D01*
X46177381Y-33321945D01*
X46175185Y-33319269D01*
X46172857Y-33316665D01*
X46171280Y-33314511D01*
X46169599Y-33312462D01*
X46167693Y-33309609D01*
X46165644Y-33306810D01*
X46164271Y-33304488D01*
X46162784Y-33302263D01*
X46161179Y-33299261D01*
X46159427Y-33296298D01*
X46158275Y-33293827D01*
X46157001Y-33291444D01*
X46155709Y-33288324D01*
X46154266Y-33285230D01*
X46153351Y-33282633D01*
X46152307Y-33280111D01*
X46151333Y-33276900D01*
X46150210Y-33273711D01*
X46149548Y-33271016D01*
X46148746Y-33268373D01*
X46148098Y-33265116D01*
X46147296Y-33261851D01*
X46146895Y-33259065D01*
X46146353Y-33256341D01*
X46146030Y-33253062D01*
X46145555Y-33249763D01*
X46145426Y-33246929D01*
X46145151Y-33244133D01*
X46145151Y-33240867D01*
X46145001Y-33237564D01*
X46145151Y-33234701D01*
X46145151Y-33231867D01*
X46145468Y-33228644D01*
X46145640Y-33225368D01*
X46146072Y-33222508D01*
X46146353Y-33219659D01*
X46146980Y-33216505D01*
X46147466Y-33213293D01*
X46148181Y-33210467D01*
X46148746Y-33207627D01*
X46149674Y-33204569D01*
X46150462Y-33201454D01*
X46151458Y-33198687D01*
X46152307Y-33195889D01*
X46153519Y-33192963D01*
X46154599Y-33189963D01*
X46155872Y-33187282D01*
X46157001Y-33184556D01*
X46158480Y-33181789D01*
X46159837Y-33178931D01*
X46161378Y-33176367D01*
X46162784Y-33173737D01*
X46164514Y-33171148D01*
X46166127Y-33168463D01*
X46167931Y-33166034D01*
X46169599Y-33163538D01*
X46171560Y-33161148D01*
X46173409Y-33158659D01*
X46175451Y-33156407D01*
X46177381Y-33154055D01*
X46179552Y-33151884D01*
X46181612Y-33149612D01*
X46907000Y-32424223D01*
X46907000Y-29987777D01*
X46181612Y-29262388D01*
X46180386Y-29261146D01*
X46172310Y-29251985D01*
X46165166Y-29242080D01*
X46159023Y-29231525D01*
X46153939Y-29220421D01*
X46149964Y-29208874D01*
X46147133Y-29196994D01*
X46145476Y-29184895D01*
X46145007Y-29172691D01*
X46145732Y-29160500D01*
X46147642Y-29148437D01*
X46150720Y-29136620D01*
X46154937Y-29125159D01*
X46160252Y-29114164D01*
X46166615Y-29103740D01*
X46173964Y-29093986D01*
X46182231Y-29084996D01*
X46191335Y-29076857D01*
X46201190Y-29069644D01*
X46211702Y-29063427D01*
X46222770Y-29058266D01*
X46234289Y-29054210D01*
X46246149Y-29051296D01*
X46258237Y-29049555D01*
X46270436Y-29049001D01*
X46282632Y-29049640D01*
G37*
%TD.AperFunction*%
D15*
%TO.P,MCU1,18*%
%TO.N,P4*%
X43730000Y-33238000D03*
%TO.P,MCU1,7*%
%TO.N,P19*%
X43730000Y-34762000D03*
%TA.AperFunction,SMDPad,CuDef*%
D12*
G36*
X43717368Y-38950360D02*
G01*
X43705293Y-38948534D01*
X43693454Y-38945538D01*
X43681963Y-38941401D01*
X43670931Y-38936163D01*
X43660463Y-38929873D01*
X43650659Y-38922591D01*
X43641612Y-38914388D01*
X42875611Y-38148388D01*
X42875326Y-38148099D01*
X42875304Y-38148079D01*
X42875281Y-38148053D01*
X42874386Y-38147146D01*
X42870759Y-38143032D01*
X42867132Y-38139004D01*
X42866743Y-38138476D01*
X42866309Y-38137984D01*
X42863124Y-38133568D01*
X42859885Y-38129174D01*
X42859548Y-38128609D01*
X42859166Y-38128079D01*
X42856418Y-38123357D01*
X42853632Y-38118684D01*
X42853355Y-38118095D01*
X42853023Y-38117525D01*
X42850737Y-38112532D01*
X42848432Y-38107634D01*
X42848214Y-38107021D01*
X42847939Y-38106421D01*
X42846154Y-38101236D01*
X42844335Y-38096129D01*
X42844177Y-38095496D01*
X42843963Y-38094874D01*
X42842692Y-38089539D01*
X42841381Y-38084279D01*
X42841286Y-38083635D01*
X42841133Y-38082993D01*
X42840383Y-38077524D01*
X42839597Y-38072198D01*
X42839566Y-38071556D01*
X42839475Y-38070895D01*
X42839264Y-38065399D01*
X42839000Y-38060000D01*
X42839000Y-35528000D01*
X42839003Y-35527602D01*
X42839001Y-35527564D01*
X42839003Y-35527520D01*
X42839012Y-35526255D01*
X42839353Y-35520837D01*
X42839639Y-35515369D01*
X42839738Y-35514713D01*
X42839779Y-35514066D01*
X42840643Y-35508734D01*
X42841466Y-35503293D01*
X42841628Y-35502653D01*
X42841732Y-35502011D01*
X42843122Y-35496749D01*
X42844462Y-35491454D01*
X42844683Y-35490840D01*
X42844851Y-35490204D01*
X42846752Y-35485091D01*
X42848598Y-35479964D01*
X42848880Y-35479370D01*
X42849108Y-35478757D01*
X42851488Y-35473879D01*
X42853837Y-35468931D01*
X42854177Y-35468365D01*
X42854462Y-35467781D01*
X42857303Y-35463162D01*
X42860127Y-35458463D01*
X42860518Y-35457936D01*
X42860861Y-35457379D01*
X42864156Y-35453038D01*
X42867408Y-35448659D01*
X42867848Y-35448174D01*
X42868244Y-35447652D01*
X42871941Y-35443660D01*
X42875611Y-35439612D01*
X43641612Y-34673612D01*
X43642854Y-34672386D01*
X43644509Y-34670927D01*
X43646055Y-34669381D01*
X43649060Y-34666915D01*
X43652015Y-34664310D01*
X43653827Y-34663003D01*
X43655538Y-34661599D01*
X43658743Y-34659457D01*
X43661920Y-34657166D01*
X43663875Y-34656028D01*
X43665737Y-34654784D01*
X43669118Y-34652977D01*
X43672475Y-34651023D01*
X43674554Y-34650071D01*
X43676556Y-34649001D01*
X43680071Y-34647545D01*
X43683579Y-34645939D01*
X43685769Y-34645185D01*
X43687889Y-34644307D01*
X43691518Y-34643206D01*
X43695126Y-34641964D01*
X43697392Y-34641424D01*
X43699627Y-34640746D01*
X43703316Y-34640012D01*
X43707006Y-34639133D01*
X43709354Y-34638811D01*
X43711659Y-34638353D01*
X43715373Y-34637987D01*
X43719105Y-34637476D01*
X43721500Y-34637384D01*
X43723867Y-34637151D01*
X43727562Y-34637151D01*
X43731309Y-34637007D01*
X43733730Y-34637151D01*
X43736133Y-34637151D01*
X43739802Y-34637512D01*
X43743500Y-34637732D01*
X43745907Y-34638113D01*
X43748341Y-34638353D01*
X43751939Y-34639069D01*
X43755563Y-34639642D01*
X43757956Y-34640265D01*
X43760373Y-34640746D01*
X43763850Y-34641801D01*
X43767380Y-34642720D01*
X43769725Y-34643583D01*
X43772111Y-34644307D01*
X43775440Y-34645686D01*
X43778841Y-34646937D01*
X43781113Y-34648035D01*
X43783444Y-34649001D01*
X43785446Y-34650071D01*
X43786595Y-34650685D01*
X43789836Y-34652252D01*
X43792019Y-34653584D01*
X43794263Y-34654784D01*
X43797211Y-34656754D01*
X43800260Y-34658615D01*
X43802320Y-34660168D01*
X43804462Y-34661599D01*
X43807170Y-34663821D01*
X43810014Y-34665964D01*
X43811945Y-34667740D01*
X43813945Y-34669381D01*
X43816405Y-34671841D01*
X43819004Y-34674231D01*
X43820767Y-34676203D01*
X43822619Y-34678055D01*
X43824815Y-34680731D01*
X43827143Y-34683335D01*
X43828720Y-34685489D01*
X43830401Y-34687538D01*
X43832307Y-34690391D01*
X43834356Y-34693190D01*
X43835729Y-34695512D01*
X43837216Y-34697737D01*
X43838821Y-34700739D01*
X43840573Y-34703702D01*
X43841725Y-34706173D01*
X43842999Y-34708556D01*
X43844291Y-34711676D01*
X43845734Y-34714770D01*
X43846649Y-34717367D01*
X43847693Y-34719889D01*
X43848667Y-34723100D01*
X43849790Y-34726289D01*
X43850452Y-34728984D01*
X43851254Y-34731627D01*
X43851902Y-34734884D01*
X43852704Y-34738149D01*
X43853105Y-34740935D01*
X43853647Y-34743659D01*
X43853970Y-34746938D01*
X43854445Y-34750237D01*
X43854574Y-34753071D01*
X43854849Y-34755867D01*
X43854849Y-34759133D01*
X43854999Y-34762436D01*
X43854849Y-34765299D01*
X43854849Y-34768133D01*
X43854532Y-34771356D01*
X43854360Y-34774632D01*
X43853928Y-34777492D01*
X43853647Y-34780341D01*
X43853020Y-34783495D01*
X43852534Y-34786707D01*
X43851819Y-34789533D01*
X43851254Y-34792373D01*
X43850326Y-34795431D01*
X43849538Y-34798546D01*
X43848542Y-34801313D01*
X43847693Y-34804111D01*
X43846481Y-34807037D01*
X43845401Y-34810037D01*
X43844128Y-34812718D01*
X43842999Y-34815444D01*
X43841520Y-34818211D01*
X43840163Y-34821069D01*
X43838622Y-34823633D01*
X43837216Y-34826263D01*
X43835486Y-34828852D01*
X43833873Y-34831537D01*
X43832069Y-34833966D01*
X43830401Y-34836462D01*
X43828440Y-34838852D01*
X43826591Y-34841341D01*
X43824549Y-34843593D01*
X43822619Y-34845945D01*
X43820448Y-34848116D01*
X43818388Y-34850388D01*
X43089000Y-35579777D01*
X43089000Y-38008223D01*
X43818388Y-38737612D01*
X43819614Y-38738854D01*
X43827690Y-38748015D01*
X43834834Y-38757920D01*
X43840977Y-38768475D01*
X43846061Y-38779579D01*
X43850036Y-38791126D01*
X43852867Y-38803006D01*
X43854524Y-38815105D01*
X43854993Y-38827309D01*
X43854268Y-38839500D01*
X43852358Y-38851563D01*
X43849280Y-38863380D01*
X43845063Y-38874841D01*
X43839748Y-38885836D01*
X43833385Y-38896260D01*
X43826036Y-38906014D01*
X43817769Y-38915004D01*
X43808665Y-38923143D01*
X43798810Y-38930356D01*
X43788298Y-38936573D01*
X43777230Y-38941734D01*
X43765711Y-38945790D01*
X43753851Y-38948704D01*
X43741763Y-38950445D01*
X43729564Y-38950999D01*
X43717368Y-38950360D01*
G37*
%TD.AperFunction*%
%TA.AperFunction,SMDPad,CuDef*%
%TO.P,MCU1,18*%
%TO.N,P4*%
G36*
X43742632Y-29049640D02*
G01*
X43754707Y-29051466D01*
X43766546Y-29054462D01*
X43778037Y-29058599D01*
X43789069Y-29063837D01*
X43799537Y-29070127D01*
X43809341Y-29077409D01*
X43818388Y-29085612D01*
X44580389Y-29847612D01*
X44580674Y-29847901D01*
X44580696Y-29847921D01*
X44580719Y-29847947D01*
X44581614Y-29848854D01*
X44585241Y-29852968D01*
X44588868Y-29856996D01*
X44589257Y-29857524D01*
X44589691Y-29858016D01*
X44592876Y-29862432D01*
X44596115Y-29866826D01*
X44596452Y-29867391D01*
X44596834Y-29867921D01*
X44599582Y-29872643D01*
X44602368Y-29877316D01*
X44602645Y-29877905D01*
X44602977Y-29878475D01*
X44605263Y-29883468D01*
X44607568Y-29888366D01*
X44607786Y-29888979D01*
X44608061Y-29889579D01*
X44609846Y-29894764D01*
X44611665Y-29899871D01*
X44611823Y-29900504D01*
X44612037Y-29901126D01*
X44613310Y-29906471D01*
X44614619Y-29911721D01*
X44614714Y-29912363D01*
X44614867Y-29913006D01*
X44615618Y-29918483D01*
X44616403Y-29923802D01*
X44616434Y-29924444D01*
X44616525Y-29925105D01*
X44616736Y-29930601D01*
X44617000Y-29936000D01*
X44617000Y-32476000D01*
X44616997Y-32476398D01*
X44616999Y-32476436D01*
X44616997Y-32476480D01*
X44616988Y-32477745D01*
X44616644Y-32483213D01*
X44616360Y-32488632D01*
X44616262Y-32489278D01*
X44616221Y-32489934D01*
X44615351Y-32495301D01*
X44614534Y-32500707D01*
X44614372Y-32501347D01*
X44614268Y-32501989D01*
X44612878Y-32507251D01*
X44611538Y-32512546D01*
X44611317Y-32513159D01*
X44611149Y-32513796D01*
X44609230Y-32518955D01*
X44607401Y-32524036D01*
X44607123Y-32524621D01*
X44606892Y-32525243D01*
X44604496Y-32530156D01*
X44602163Y-32535069D01*
X44601823Y-32535635D01*
X44601538Y-32536219D01*
X44598697Y-32540838D01*
X44595873Y-32545537D01*
X44595482Y-32546064D01*
X44595139Y-32546621D01*
X44591844Y-32550962D01*
X44588592Y-32555341D01*
X44588152Y-32555826D01*
X44587756Y-32556348D01*
X44584059Y-32560340D01*
X44580389Y-32564388D01*
X43818388Y-33326388D01*
X43817146Y-33327614D01*
X43815491Y-33329073D01*
X43813945Y-33330619D01*
X43810940Y-33333085D01*
X43807985Y-33335690D01*
X43806173Y-33336997D01*
X43804462Y-33338401D01*
X43801257Y-33340543D01*
X43798080Y-33342834D01*
X43796125Y-33343972D01*
X43794263Y-33345216D01*
X43790882Y-33347023D01*
X43787525Y-33348977D01*
X43785446Y-33349929D01*
X43783444Y-33350999D01*
X43779929Y-33352455D01*
X43776421Y-33354061D01*
X43774231Y-33354815D01*
X43772111Y-33355693D01*
X43768482Y-33356794D01*
X43764874Y-33358036D01*
X43762608Y-33358576D01*
X43760373Y-33359254D01*
X43756684Y-33359988D01*
X43752994Y-33360867D01*
X43750646Y-33361189D01*
X43748341Y-33361647D01*
X43744627Y-33362013D01*
X43740895Y-33362524D01*
X43738500Y-33362616D01*
X43736133Y-33362849D01*
X43732438Y-33362849D01*
X43728691Y-33362993D01*
X43726270Y-33362849D01*
X43723867Y-33362849D01*
X43720198Y-33362488D01*
X43716500Y-33362268D01*
X43714093Y-33361887D01*
X43711659Y-33361647D01*
X43708061Y-33360931D01*
X43704437Y-33360358D01*
X43702044Y-33359735D01*
X43699627Y-33359254D01*
X43696150Y-33358199D01*
X43692620Y-33357280D01*
X43690275Y-33356417D01*
X43687889Y-33355693D01*
X43684560Y-33354314D01*
X43681159Y-33353063D01*
X43678887Y-33351965D01*
X43676556Y-33350999D01*
X43674554Y-33349929D01*
X43673405Y-33349315D01*
X43670164Y-33347748D01*
X43667981Y-33346416D01*
X43665737Y-33345216D01*
X43662789Y-33343246D01*
X43659740Y-33341385D01*
X43657680Y-33339832D01*
X43655538Y-33338401D01*
X43652830Y-33336179D01*
X43649986Y-33334036D01*
X43648055Y-33332260D01*
X43646055Y-33330619D01*
X43643595Y-33328159D01*
X43640996Y-33325769D01*
X43639233Y-33323797D01*
X43637381Y-33321945D01*
X43635185Y-33319269D01*
X43632857Y-33316665D01*
X43631280Y-33314511D01*
X43629599Y-33312462D01*
X43627693Y-33309609D01*
X43625644Y-33306810D01*
X43624271Y-33304488D01*
X43622784Y-33302263D01*
X43621179Y-33299261D01*
X43619427Y-33296298D01*
X43618275Y-33293827D01*
X43617001Y-33291444D01*
X43615709Y-33288324D01*
X43614266Y-33285230D01*
X43613351Y-33282633D01*
X43612307Y-33280111D01*
X43611333Y-33276900D01*
X43610210Y-33273711D01*
X43609548Y-33271016D01*
X43608746Y-33268373D01*
X43608098Y-33265116D01*
X43607296Y-33261851D01*
X43606895Y-33259065D01*
X43606353Y-33256341D01*
X43606030Y-33253062D01*
X43605555Y-33249763D01*
X43605426Y-33246929D01*
X43605151Y-33244133D01*
X43605151Y-33240867D01*
X43605001Y-33237564D01*
X43605151Y-33234701D01*
X43605151Y-33231867D01*
X43605468Y-33228644D01*
X43605640Y-33225368D01*
X43606072Y-33222508D01*
X43606353Y-33219659D01*
X43606980Y-33216505D01*
X43607466Y-33213293D01*
X43608181Y-33210467D01*
X43608746Y-33207627D01*
X43609674Y-33204569D01*
X43610462Y-33201454D01*
X43611458Y-33198687D01*
X43612307Y-33195889D01*
X43613519Y-33192963D01*
X43614599Y-33189963D01*
X43615872Y-33187282D01*
X43617001Y-33184556D01*
X43618480Y-33181789D01*
X43619837Y-33178931D01*
X43621378Y-33176367D01*
X43622784Y-33173737D01*
X43624514Y-33171148D01*
X43626127Y-33168463D01*
X43627931Y-33166034D01*
X43629599Y-33163538D01*
X43631560Y-33161148D01*
X43633409Y-33158659D01*
X43635451Y-33156407D01*
X43637381Y-33154055D01*
X43639552Y-33151884D01*
X43641612Y-33149612D01*
X44367000Y-32424223D01*
X44367000Y-29987777D01*
X43641612Y-29262388D01*
X43640386Y-29261146D01*
X43632310Y-29251985D01*
X43625166Y-29242080D01*
X43619023Y-29231525D01*
X43613939Y-29220421D01*
X43609964Y-29208874D01*
X43607133Y-29196994D01*
X43605476Y-29184895D01*
X43605007Y-29172691D01*
X43605732Y-29160500D01*
X43607642Y-29148437D01*
X43610720Y-29136620D01*
X43614937Y-29125159D01*
X43620252Y-29114164D01*
X43626615Y-29103740D01*
X43633964Y-29093986D01*
X43642231Y-29084996D01*
X43651335Y-29076857D01*
X43661190Y-29069644D01*
X43671702Y-29063427D01*
X43682770Y-29058266D01*
X43694289Y-29054210D01*
X43706149Y-29051296D01*
X43718237Y-29049555D01*
X43730436Y-29049001D01*
X43742632Y-29049640D01*
G37*
%TD.AperFunction*%
D15*
%TO.P,MCU1,17*%
%TO.N,P5*%
X41190000Y-33238000D03*
%TO.P,MCU1,8*%
%TO.N,P18*%
X41190000Y-34762000D03*
%TA.AperFunction,SMDPad,CuDef*%
D12*
G36*
X41177368Y-38950360D02*
G01*
X41165293Y-38948534D01*
X41153454Y-38945538D01*
X41141963Y-38941401D01*
X41130931Y-38936163D01*
X41120463Y-38929873D01*
X41110659Y-38922591D01*
X41101612Y-38914388D01*
X40335611Y-38148388D01*
X40335326Y-38148099D01*
X40335304Y-38148079D01*
X40335281Y-38148053D01*
X40334386Y-38147146D01*
X40330759Y-38143032D01*
X40327132Y-38139004D01*
X40326743Y-38138476D01*
X40326309Y-38137984D01*
X40323124Y-38133568D01*
X40319885Y-38129174D01*
X40319548Y-38128609D01*
X40319166Y-38128079D01*
X40316418Y-38123357D01*
X40313632Y-38118684D01*
X40313355Y-38118095D01*
X40313023Y-38117525D01*
X40310737Y-38112532D01*
X40308432Y-38107634D01*
X40308214Y-38107021D01*
X40307939Y-38106421D01*
X40306154Y-38101236D01*
X40304335Y-38096129D01*
X40304177Y-38095496D01*
X40303963Y-38094874D01*
X40302692Y-38089539D01*
X40301381Y-38084279D01*
X40301286Y-38083635D01*
X40301133Y-38082993D01*
X40300383Y-38077524D01*
X40299597Y-38072198D01*
X40299566Y-38071556D01*
X40299475Y-38070895D01*
X40299264Y-38065399D01*
X40299000Y-38060000D01*
X40299000Y-35528000D01*
X40299003Y-35527602D01*
X40299001Y-35527564D01*
X40299003Y-35527520D01*
X40299012Y-35526255D01*
X40299353Y-35520837D01*
X40299639Y-35515369D01*
X40299738Y-35514713D01*
X40299779Y-35514066D01*
X40300643Y-35508734D01*
X40301466Y-35503293D01*
X40301628Y-35502653D01*
X40301732Y-35502011D01*
X40303122Y-35496749D01*
X40304462Y-35491454D01*
X40304683Y-35490840D01*
X40304851Y-35490204D01*
X40306752Y-35485091D01*
X40308598Y-35479964D01*
X40308880Y-35479370D01*
X40309108Y-35478757D01*
X40311488Y-35473879D01*
X40313837Y-35468931D01*
X40314177Y-35468365D01*
X40314462Y-35467781D01*
X40317303Y-35463162D01*
X40320127Y-35458463D01*
X40320518Y-35457936D01*
X40320861Y-35457379D01*
X40324156Y-35453038D01*
X40327408Y-35448659D01*
X40327848Y-35448174D01*
X40328244Y-35447652D01*
X40331941Y-35443660D01*
X40335611Y-35439612D01*
X41101612Y-34673612D01*
X41102854Y-34672386D01*
X41104509Y-34670927D01*
X41106055Y-34669381D01*
X41109060Y-34666915D01*
X41112015Y-34664310D01*
X41113827Y-34663003D01*
X41115538Y-34661599D01*
X41118743Y-34659457D01*
X41121920Y-34657166D01*
X41123875Y-34656028D01*
X41125737Y-34654784D01*
X41129118Y-34652977D01*
X41132475Y-34651023D01*
X41134554Y-34650071D01*
X41136556Y-34649001D01*
X41140071Y-34647545D01*
X41143579Y-34645939D01*
X41145769Y-34645185D01*
X41147889Y-34644307D01*
X41151518Y-34643206D01*
X41155126Y-34641964D01*
X41157392Y-34641424D01*
X41159627Y-34640746D01*
X41163316Y-34640012D01*
X41167006Y-34639133D01*
X41169354Y-34638811D01*
X41171659Y-34638353D01*
X41175373Y-34637987D01*
X41179105Y-34637476D01*
X41181500Y-34637384D01*
X41183867Y-34637151D01*
X41187562Y-34637151D01*
X41191309Y-34637007D01*
X41193730Y-34637151D01*
X41196133Y-34637151D01*
X41199802Y-34637512D01*
X41203500Y-34637732D01*
X41205907Y-34638113D01*
X41208341Y-34638353D01*
X41211939Y-34639069D01*
X41215563Y-34639642D01*
X41217956Y-34640265D01*
X41220373Y-34640746D01*
X41223850Y-34641801D01*
X41227380Y-34642720D01*
X41229725Y-34643583D01*
X41232111Y-34644307D01*
X41235440Y-34645686D01*
X41238841Y-34646937D01*
X41241113Y-34648035D01*
X41243444Y-34649001D01*
X41245446Y-34650071D01*
X41246595Y-34650685D01*
X41249836Y-34652252D01*
X41252019Y-34653584D01*
X41254263Y-34654784D01*
X41257211Y-34656754D01*
X41260260Y-34658615D01*
X41262320Y-34660168D01*
X41264462Y-34661599D01*
X41267170Y-34663821D01*
X41270014Y-34665964D01*
X41271945Y-34667740D01*
X41273945Y-34669381D01*
X41276405Y-34671841D01*
X41279004Y-34674231D01*
X41280767Y-34676203D01*
X41282619Y-34678055D01*
X41284815Y-34680731D01*
X41287143Y-34683335D01*
X41288720Y-34685489D01*
X41290401Y-34687538D01*
X41292307Y-34690391D01*
X41294356Y-34693190D01*
X41295729Y-34695512D01*
X41297216Y-34697737D01*
X41298821Y-34700739D01*
X41300573Y-34703702D01*
X41301725Y-34706173D01*
X41302999Y-34708556D01*
X41304291Y-34711676D01*
X41305734Y-34714770D01*
X41306649Y-34717367D01*
X41307693Y-34719889D01*
X41308667Y-34723100D01*
X41309790Y-34726289D01*
X41310452Y-34728984D01*
X41311254Y-34731627D01*
X41311902Y-34734884D01*
X41312704Y-34738149D01*
X41313105Y-34740935D01*
X41313647Y-34743659D01*
X41313970Y-34746938D01*
X41314445Y-34750237D01*
X41314574Y-34753071D01*
X41314849Y-34755867D01*
X41314849Y-34759133D01*
X41314999Y-34762436D01*
X41314849Y-34765299D01*
X41314849Y-34768133D01*
X41314532Y-34771356D01*
X41314360Y-34774632D01*
X41313928Y-34777492D01*
X41313647Y-34780341D01*
X41313020Y-34783495D01*
X41312534Y-34786707D01*
X41311819Y-34789533D01*
X41311254Y-34792373D01*
X41310326Y-34795431D01*
X41309538Y-34798546D01*
X41308542Y-34801313D01*
X41307693Y-34804111D01*
X41306481Y-34807037D01*
X41305401Y-34810037D01*
X41304128Y-34812718D01*
X41302999Y-34815444D01*
X41301520Y-34818211D01*
X41300163Y-34821069D01*
X41298622Y-34823633D01*
X41297216Y-34826263D01*
X41295486Y-34828852D01*
X41293873Y-34831537D01*
X41292069Y-34833966D01*
X41290401Y-34836462D01*
X41288440Y-34838852D01*
X41286591Y-34841341D01*
X41284549Y-34843593D01*
X41282619Y-34845945D01*
X41280448Y-34848116D01*
X41278388Y-34850388D01*
X40549000Y-35579777D01*
X40549000Y-38008223D01*
X41278388Y-38737612D01*
X41279614Y-38738854D01*
X41287690Y-38748015D01*
X41294834Y-38757920D01*
X41300977Y-38768475D01*
X41306061Y-38779579D01*
X41310036Y-38791126D01*
X41312867Y-38803006D01*
X41314524Y-38815105D01*
X41314993Y-38827309D01*
X41314268Y-38839500D01*
X41312358Y-38851563D01*
X41309280Y-38863380D01*
X41305063Y-38874841D01*
X41299748Y-38885836D01*
X41293385Y-38896260D01*
X41286036Y-38906014D01*
X41277769Y-38915004D01*
X41268665Y-38923143D01*
X41258810Y-38930356D01*
X41248298Y-38936573D01*
X41237230Y-38941734D01*
X41225711Y-38945790D01*
X41213851Y-38948704D01*
X41201763Y-38950445D01*
X41189564Y-38950999D01*
X41177368Y-38950360D01*
G37*
%TD.AperFunction*%
%TA.AperFunction,SMDPad,CuDef*%
%TO.P,MCU1,17*%
%TO.N,P5*%
G36*
X41202632Y-29049640D02*
G01*
X41214707Y-29051466D01*
X41226546Y-29054462D01*
X41238037Y-29058599D01*
X41249069Y-29063837D01*
X41259537Y-29070127D01*
X41269341Y-29077409D01*
X41278388Y-29085612D01*
X42040389Y-29847612D01*
X42040674Y-29847901D01*
X42040696Y-29847921D01*
X42040719Y-29847947D01*
X42041614Y-29848854D01*
X42045241Y-29852968D01*
X42048868Y-29856996D01*
X42049257Y-29857524D01*
X42049691Y-29858016D01*
X42052876Y-29862432D01*
X42056115Y-29866826D01*
X42056452Y-29867391D01*
X42056834Y-29867921D01*
X42059582Y-29872643D01*
X42062368Y-29877316D01*
X42062645Y-29877905D01*
X42062977Y-29878475D01*
X42065263Y-29883468D01*
X42067568Y-29888366D01*
X42067786Y-29888979D01*
X42068061Y-29889579D01*
X42069846Y-29894764D01*
X42071665Y-29899871D01*
X42071823Y-29900504D01*
X42072037Y-29901126D01*
X42073310Y-29906471D01*
X42074619Y-29911721D01*
X42074714Y-29912363D01*
X42074867Y-29913006D01*
X42075618Y-29918483D01*
X42076403Y-29923802D01*
X42076434Y-29924444D01*
X42076525Y-29925105D01*
X42076736Y-29930601D01*
X42077000Y-29936000D01*
X42077000Y-32476000D01*
X42076997Y-32476398D01*
X42076999Y-32476436D01*
X42076997Y-32476480D01*
X42076988Y-32477745D01*
X42076644Y-32483213D01*
X42076360Y-32488632D01*
X42076262Y-32489278D01*
X42076221Y-32489934D01*
X42075351Y-32495301D01*
X42074534Y-32500707D01*
X42074372Y-32501347D01*
X42074268Y-32501989D01*
X42072878Y-32507251D01*
X42071538Y-32512546D01*
X42071317Y-32513159D01*
X42071149Y-32513796D01*
X42069230Y-32518955D01*
X42067401Y-32524036D01*
X42067123Y-32524621D01*
X42066892Y-32525243D01*
X42064496Y-32530156D01*
X42062163Y-32535069D01*
X42061823Y-32535635D01*
X42061538Y-32536219D01*
X42058697Y-32540838D01*
X42055873Y-32545537D01*
X42055482Y-32546064D01*
X42055139Y-32546621D01*
X42051844Y-32550962D01*
X42048592Y-32555341D01*
X42048152Y-32555826D01*
X42047756Y-32556348D01*
X42044059Y-32560340D01*
X42040389Y-32564388D01*
X41278388Y-33326388D01*
X41277146Y-33327614D01*
X41275491Y-33329073D01*
X41273945Y-33330619D01*
X41270940Y-33333085D01*
X41267985Y-33335690D01*
X41266173Y-33336997D01*
X41264462Y-33338401D01*
X41261257Y-33340543D01*
X41258080Y-33342834D01*
X41256125Y-33343972D01*
X41254263Y-33345216D01*
X41250882Y-33347023D01*
X41247525Y-33348977D01*
X41245446Y-33349929D01*
X41243444Y-33350999D01*
X41239929Y-33352455D01*
X41236421Y-33354061D01*
X41234231Y-33354815D01*
X41232111Y-33355693D01*
X41228482Y-33356794D01*
X41224874Y-33358036D01*
X41222608Y-33358576D01*
X41220373Y-33359254D01*
X41216684Y-33359988D01*
X41212994Y-33360867D01*
X41210646Y-33361189D01*
X41208341Y-33361647D01*
X41204627Y-33362013D01*
X41200895Y-33362524D01*
X41198500Y-33362616D01*
X41196133Y-33362849D01*
X41192438Y-33362849D01*
X41188691Y-33362993D01*
X41186270Y-33362849D01*
X41183867Y-33362849D01*
X41180198Y-33362488D01*
X41176500Y-33362268D01*
X41174093Y-33361887D01*
X41171659Y-33361647D01*
X41168061Y-33360931D01*
X41164437Y-33360358D01*
X41162044Y-33359735D01*
X41159627Y-33359254D01*
X41156150Y-33358199D01*
X41152620Y-33357280D01*
X41150275Y-33356417D01*
X41147889Y-33355693D01*
X41144560Y-33354314D01*
X41141159Y-33353063D01*
X41138887Y-33351965D01*
X41136556Y-33350999D01*
X41134554Y-33349929D01*
X41133405Y-33349315D01*
X41130164Y-33347748D01*
X41127981Y-33346416D01*
X41125737Y-33345216D01*
X41122789Y-33343246D01*
X41119740Y-33341385D01*
X41117680Y-33339832D01*
X41115538Y-33338401D01*
X41112830Y-33336179D01*
X41109986Y-33334036D01*
X41108055Y-33332260D01*
X41106055Y-33330619D01*
X41103595Y-33328159D01*
X41100996Y-33325769D01*
X41099233Y-33323797D01*
X41097381Y-33321945D01*
X41095185Y-33319269D01*
X41092857Y-33316665D01*
X41091280Y-33314511D01*
X41089599Y-33312462D01*
X41087693Y-33309609D01*
X41085644Y-33306810D01*
X41084271Y-33304488D01*
X41082784Y-33302263D01*
X41081179Y-33299261D01*
X41079427Y-33296298D01*
X41078275Y-33293827D01*
X41077001Y-33291444D01*
X41075709Y-33288324D01*
X41074266Y-33285230D01*
X41073351Y-33282633D01*
X41072307Y-33280111D01*
X41071333Y-33276900D01*
X41070210Y-33273711D01*
X41069548Y-33271016D01*
X41068746Y-33268373D01*
X41068098Y-33265116D01*
X41067296Y-33261851D01*
X41066895Y-33259065D01*
X41066353Y-33256341D01*
X41066030Y-33253062D01*
X41065555Y-33249763D01*
X41065426Y-33246929D01*
X41065151Y-33244133D01*
X41065151Y-33240867D01*
X41065001Y-33237564D01*
X41065151Y-33234701D01*
X41065151Y-33231867D01*
X41065468Y-33228644D01*
X41065640Y-33225368D01*
X41066072Y-33222508D01*
X41066353Y-33219659D01*
X41066980Y-33216505D01*
X41067466Y-33213293D01*
X41068181Y-33210467D01*
X41068746Y-33207627D01*
X41069674Y-33204569D01*
X41070462Y-33201454D01*
X41071458Y-33198687D01*
X41072307Y-33195889D01*
X41073519Y-33192963D01*
X41074599Y-33189963D01*
X41075872Y-33187282D01*
X41077001Y-33184556D01*
X41078480Y-33181789D01*
X41079837Y-33178931D01*
X41081378Y-33176367D01*
X41082784Y-33173737D01*
X41084514Y-33171148D01*
X41086127Y-33168463D01*
X41087931Y-33166034D01*
X41089599Y-33163538D01*
X41091560Y-33161148D01*
X41093409Y-33158659D01*
X41095451Y-33156407D01*
X41097381Y-33154055D01*
X41099552Y-33151884D01*
X41101612Y-33149612D01*
X41827000Y-32424223D01*
X41827000Y-29987777D01*
X41101612Y-29262388D01*
X41100386Y-29261146D01*
X41092310Y-29251985D01*
X41085166Y-29242080D01*
X41079023Y-29231525D01*
X41073939Y-29220421D01*
X41069964Y-29208874D01*
X41067133Y-29196994D01*
X41065476Y-29184895D01*
X41065007Y-29172691D01*
X41065732Y-29160500D01*
X41067642Y-29148437D01*
X41070720Y-29136620D01*
X41074937Y-29125159D01*
X41080252Y-29114164D01*
X41086615Y-29103740D01*
X41093964Y-29093986D01*
X41102231Y-29084996D01*
X41111335Y-29076857D01*
X41121190Y-29069644D01*
X41131702Y-29063427D01*
X41142770Y-29058266D01*
X41154289Y-29054210D01*
X41166149Y-29051296D01*
X41178237Y-29049555D01*
X41190436Y-29049001D01*
X41202632Y-29049640D01*
G37*
%TD.AperFunction*%
D15*
%TO.P,MCU1,16*%
%TO.N,P6*%
X38650000Y-33238000D03*
%TO.P,MCU1,9*%
%TO.N,P15*%
X38650000Y-34762000D03*
%TA.AperFunction,SMDPad,CuDef*%
D12*
G36*
X38637368Y-38950360D02*
G01*
X38625293Y-38948534D01*
X38613454Y-38945538D01*
X38601963Y-38941401D01*
X38590931Y-38936163D01*
X38580463Y-38929873D01*
X38570659Y-38922591D01*
X38561612Y-38914388D01*
X37795611Y-38148388D01*
X37795326Y-38148099D01*
X37795304Y-38148079D01*
X37795281Y-38148053D01*
X37794386Y-38147146D01*
X37790759Y-38143032D01*
X37787132Y-38139004D01*
X37786743Y-38138476D01*
X37786309Y-38137984D01*
X37783124Y-38133568D01*
X37779885Y-38129174D01*
X37779548Y-38128609D01*
X37779166Y-38128079D01*
X37776418Y-38123357D01*
X37773632Y-38118684D01*
X37773355Y-38118095D01*
X37773023Y-38117525D01*
X37770737Y-38112532D01*
X37768432Y-38107634D01*
X37768214Y-38107021D01*
X37767939Y-38106421D01*
X37766154Y-38101236D01*
X37764335Y-38096129D01*
X37764177Y-38095496D01*
X37763963Y-38094874D01*
X37762692Y-38089539D01*
X37761381Y-38084279D01*
X37761286Y-38083635D01*
X37761133Y-38082993D01*
X37760383Y-38077524D01*
X37759597Y-38072198D01*
X37759566Y-38071556D01*
X37759475Y-38070895D01*
X37759264Y-38065399D01*
X37759000Y-38060000D01*
X37759000Y-35528000D01*
X37759003Y-35527602D01*
X37759001Y-35527564D01*
X37759003Y-35527520D01*
X37759012Y-35526255D01*
X37759353Y-35520837D01*
X37759639Y-35515369D01*
X37759738Y-35514713D01*
X37759779Y-35514066D01*
X37760643Y-35508734D01*
X37761466Y-35503293D01*
X37761628Y-35502653D01*
X37761732Y-35502011D01*
X37763122Y-35496749D01*
X37764462Y-35491454D01*
X37764683Y-35490840D01*
X37764851Y-35490204D01*
X37766752Y-35485091D01*
X37768598Y-35479964D01*
X37768880Y-35479370D01*
X37769108Y-35478757D01*
X37771488Y-35473879D01*
X37773837Y-35468931D01*
X37774177Y-35468365D01*
X37774462Y-35467781D01*
X37777303Y-35463162D01*
X37780127Y-35458463D01*
X37780518Y-35457936D01*
X37780861Y-35457379D01*
X37784156Y-35453038D01*
X37787408Y-35448659D01*
X37787848Y-35448174D01*
X37788244Y-35447652D01*
X37791941Y-35443660D01*
X37795611Y-35439612D01*
X38561612Y-34673612D01*
X38562854Y-34672386D01*
X38564509Y-34670927D01*
X38566055Y-34669381D01*
X38569060Y-34666915D01*
X38572015Y-34664310D01*
X38573827Y-34663003D01*
X38575538Y-34661599D01*
X38578743Y-34659457D01*
X38581920Y-34657166D01*
X38583875Y-34656028D01*
X38585737Y-34654784D01*
X38589118Y-34652977D01*
X38592475Y-34651023D01*
X38594554Y-34650071D01*
X38596556Y-34649001D01*
X38600071Y-34647545D01*
X38603579Y-34645939D01*
X38605769Y-34645185D01*
X38607889Y-34644307D01*
X38611518Y-34643206D01*
X38615126Y-34641964D01*
X38617392Y-34641424D01*
X38619627Y-34640746D01*
X38623316Y-34640012D01*
X38627006Y-34639133D01*
X38629354Y-34638811D01*
X38631659Y-34638353D01*
X38635373Y-34637987D01*
X38639105Y-34637476D01*
X38641500Y-34637384D01*
X38643867Y-34637151D01*
X38647562Y-34637151D01*
X38651309Y-34637007D01*
X38653730Y-34637151D01*
X38656133Y-34637151D01*
X38659802Y-34637512D01*
X38663500Y-34637732D01*
X38665907Y-34638113D01*
X38668341Y-34638353D01*
X38671939Y-34639069D01*
X38675563Y-34639642D01*
X38677956Y-34640265D01*
X38680373Y-34640746D01*
X38683850Y-34641801D01*
X38687380Y-34642720D01*
X38689725Y-34643583D01*
X38692111Y-34644307D01*
X38695440Y-34645686D01*
X38698841Y-34646937D01*
X38701113Y-34648035D01*
X38703444Y-34649001D01*
X38705446Y-34650071D01*
X38706595Y-34650685D01*
X38709836Y-34652252D01*
X38712019Y-34653584D01*
X38714263Y-34654784D01*
X38717211Y-34656754D01*
X38720260Y-34658615D01*
X38722320Y-34660168D01*
X38724462Y-34661599D01*
X38727170Y-34663821D01*
X38730014Y-34665964D01*
X38731945Y-34667740D01*
X38733945Y-34669381D01*
X38736405Y-34671841D01*
X38739004Y-34674231D01*
X38740767Y-34676203D01*
X38742619Y-34678055D01*
X38744815Y-34680731D01*
X38747143Y-34683335D01*
X38748720Y-34685489D01*
X38750401Y-34687538D01*
X38752307Y-34690391D01*
X38754356Y-34693190D01*
X38755729Y-34695512D01*
X38757216Y-34697737D01*
X38758821Y-34700739D01*
X38760573Y-34703702D01*
X38761725Y-34706173D01*
X38762999Y-34708556D01*
X38764291Y-34711676D01*
X38765734Y-34714770D01*
X38766649Y-34717367D01*
X38767693Y-34719889D01*
X38768667Y-34723100D01*
X38769790Y-34726289D01*
X38770452Y-34728984D01*
X38771254Y-34731627D01*
X38771902Y-34734884D01*
X38772704Y-34738149D01*
X38773105Y-34740935D01*
X38773647Y-34743659D01*
X38773970Y-34746938D01*
X38774445Y-34750237D01*
X38774574Y-34753071D01*
X38774849Y-34755867D01*
X38774849Y-34759133D01*
X38774999Y-34762436D01*
X38774849Y-34765299D01*
X38774849Y-34768133D01*
X38774532Y-34771356D01*
X38774360Y-34774632D01*
X38773928Y-34777492D01*
X38773647Y-34780341D01*
X38773020Y-34783495D01*
X38772534Y-34786707D01*
X38771819Y-34789533D01*
X38771254Y-34792373D01*
X38770326Y-34795431D01*
X38769538Y-34798546D01*
X38768542Y-34801313D01*
X38767693Y-34804111D01*
X38766481Y-34807037D01*
X38765401Y-34810037D01*
X38764128Y-34812718D01*
X38762999Y-34815444D01*
X38761520Y-34818211D01*
X38760163Y-34821069D01*
X38758622Y-34823633D01*
X38757216Y-34826263D01*
X38755486Y-34828852D01*
X38753873Y-34831537D01*
X38752069Y-34833966D01*
X38750401Y-34836462D01*
X38748440Y-34838852D01*
X38746591Y-34841341D01*
X38744549Y-34843593D01*
X38742619Y-34845945D01*
X38740448Y-34848116D01*
X38738388Y-34850388D01*
X38009000Y-35579777D01*
X38009000Y-38008223D01*
X38738388Y-38737612D01*
X38739614Y-38738854D01*
X38747690Y-38748015D01*
X38754834Y-38757920D01*
X38760977Y-38768475D01*
X38766061Y-38779579D01*
X38770036Y-38791126D01*
X38772867Y-38803006D01*
X38774524Y-38815105D01*
X38774993Y-38827309D01*
X38774268Y-38839500D01*
X38772358Y-38851563D01*
X38769280Y-38863380D01*
X38765063Y-38874841D01*
X38759748Y-38885836D01*
X38753385Y-38896260D01*
X38746036Y-38906014D01*
X38737769Y-38915004D01*
X38728665Y-38923143D01*
X38718810Y-38930356D01*
X38708298Y-38936573D01*
X38697230Y-38941734D01*
X38685711Y-38945790D01*
X38673851Y-38948704D01*
X38661763Y-38950445D01*
X38649564Y-38950999D01*
X38637368Y-38950360D01*
G37*
%TD.AperFunction*%
%TA.AperFunction,SMDPad,CuDef*%
%TO.P,MCU1,16*%
%TO.N,P6*%
G36*
X38662632Y-29049640D02*
G01*
X38674707Y-29051466D01*
X38686546Y-29054462D01*
X38698037Y-29058599D01*
X38709069Y-29063837D01*
X38719537Y-29070127D01*
X38729341Y-29077409D01*
X38738388Y-29085612D01*
X39500389Y-29847612D01*
X39500674Y-29847901D01*
X39500696Y-29847921D01*
X39500719Y-29847947D01*
X39501614Y-29848854D01*
X39505241Y-29852968D01*
X39508868Y-29856996D01*
X39509257Y-29857524D01*
X39509691Y-29858016D01*
X39512876Y-29862432D01*
X39516115Y-29866826D01*
X39516452Y-29867391D01*
X39516834Y-29867921D01*
X39519582Y-29872643D01*
X39522368Y-29877316D01*
X39522645Y-29877905D01*
X39522977Y-29878475D01*
X39525263Y-29883468D01*
X39527568Y-29888366D01*
X39527786Y-29888979D01*
X39528061Y-29889579D01*
X39529846Y-29894764D01*
X39531665Y-29899871D01*
X39531823Y-29900504D01*
X39532037Y-29901126D01*
X39533310Y-29906471D01*
X39534619Y-29911721D01*
X39534714Y-29912363D01*
X39534867Y-29913006D01*
X39535618Y-29918483D01*
X39536403Y-29923802D01*
X39536434Y-29924444D01*
X39536525Y-29925105D01*
X39536736Y-29930601D01*
X39537000Y-29936000D01*
X39537000Y-32476000D01*
X39536997Y-32476398D01*
X39536999Y-32476436D01*
X39536997Y-32476480D01*
X39536988Y-32477745D01*
X39536644Y-32483213D01*
X39536360Y-32488632D01*
X39536262Y-32489278D01*
X39536221Y-32489934D01*
X39535351Y-32495301D01*
X39534534Y-32500707D01*
X39534372Y-32501347D01*
X39534268Y-32501989D01*
X39532878Y-32507251D01*
X39531538Y-32512546D01*
X39531317Y-32513159D01*
X39531149Y-32513796D01*
X39529230Y-32518955D01*
X39527401Y-32524036D01*
X39527123Y-32524621D01*
X39526892Y-32525243D01*
X39524496Y-32530156D01*
X39522163Y-32535069D01*
X39521823Y-32535635D01*
X39521538Y-32536219D01*
X39518697Y-32540838D01*
X39515873Y-32545537D01*
X39515482Y-32546064D01*
X39515139Y-32546621D01*
X39511844Y-32550962D01*
X39508592Y-32555341D01*
X39508152Y-32555826D01*
X39507756Y-32556348D01*
X39504059Y-32560340D01*
X39500389Y-32564388D01*
X38738388Y-33326388D01*
X38737146Y-33327614D01*
X38735491Y-33329073D01*
X38733945Y-33330619D01*
X38730940Y-33333085D01*
X38727985Y-33335690D01*
X38726173Y-33336997D01*
X38724462Y-33338401D01*
X38721257Y-33340543D01*
X38718080Y-33342834D01*
X38716125Y-33343972D01*
X38714263Y-33345216D01*
X38710882Y-33347023D01*
X38707525Y-33348977D01*
X38705446Y-33349929D01*
X38703444Y-33350999D01*
X38699929Y-33352455D01*
X38696421Y-33354061D01*
X38694231Y-33354815D01*
X38692111Y-33355693D01*
X38688482Y-33356794D01*
X38684874Y-33358036D01*
X38682608Y-33358576D01*
X38680373Y-33359254D01*
X38676684Y-33359988D01*
X38672994Y-33360867D01*
X38670646Y-33361189D01*
X38668341Y-33361647D01*
X38664627Y-33362013D01*
X38660895Y-33362524D01*
X38658500Y-33362616D01*
X38656133Y-33362849D01*
X38652438Y-33362849D01*
X38648691Y-33362993D01*
X38646270Y-33362849D01*
X38643867Y-33362849D01*
X38640198Y-33362488D01*
X38636500Y-33362268D01*
X38634093Y-33361887D01*
X38631659Y-33361647D01*
X38628061Y-33360931D01*
X38624437Y-33360358D01*
X38622044Y-33359735D01*
X38619627Y-33359254D01*
X38616150Y-33358199D01*
X38612620Y-33357280D01*
X38610275Y-33356417D01*
X38607889Y-33355693D01*
X38604560Y-33354314D01*
X38601159Y-33353063D01*
X38598887Y-33351965D01*
X38596556Y-33350999D01*
X38594554Y-33349929D01*
X38593405Y-33349315D01*
X38590164Y-33347748D01*
X38587981Y-33346416D01*
X38585737Y-33345216D01*
X38582789Y-33343246D01*
X38579740Y-33341385D01*
X38577680Y-33339832D01*
X38575538Y-33338401D01*
X38572830Y-33336179D01*
X38569986Y-33334036D01*
X38568055Y-33332260D01*
X38566055Y-33330619D01*
X38563595Y-33328159D01*
X38560996Y-33325769D01*
X38559233Y-33323797D01*
X38557381Y-33321945D01*
X38555185Y-33319269D01*
X38552857Y-33316665D01*
X38551280Y-33314511D01*
X38549599Y-33312462D01*
X38547693Y-33309609D01*
X38545644Y-33306810D01*
X38544271Y-33304488D01*
X38542784Y-33302263D01*
X38541179Y-33299261D01*
X38539427Y-33296298D01*
X38538275Y-33293827D01*
X38537001Y-33291444D01*
X38535709Y-33288324D01*
X38534266Y-33285230D01*
X38533351Y-33282633D01*
X38532307Y-33280111D01*
X38531333Y-33276900D01*
X38530210Y-33273711D01*
X38529548Y-33271016D01*
X38528746Y-33268373D01*
X38528098Y-33265116D01*
X38527296Y-33261851D01*
X38526895Y-33259065D01*
X38526353Y-33256341D01*
X38526030Y-33253062D01*
X38525555Y-33249763D01*
X38525426Y-33246929D01*
X38525151Y-33244133D01*
X38525151Y-33240867D01*
X38525001Y-33237564D01*
X38525151Y-33234701D01*
X38525151Y-33231867D01*
X38525468Y-33228644D01*
X38525640Y-33225368D01*
X38526072Y-33222508D01*
X38526353Y-33219659D01*
X38526980Y-33216505D01*
X38527466Y-33213293D01*
X38528181Y-33210467D01*
X38528746Y-33207627D01*
X38529674Y-33204569D01*
X38530462Y-33201454D01*
X38531458Y-33198687D01*
X38532307Y-33195889D01*
X38533519Y-33192963D01*
X38534599Y-33189963D01*
X38535872Y-33187282D01*
X38537001Y-33184556D01*
X38538480Y-33181789D01*
X38539837Y-33178931D01*
X38541378Y-33176367D01*
X38542784Y-33173737D01*
X38544514Y-33171148D01*
X38546127Y-33168463D01*
X38547931Y-33166034D01*
X38549599Y-33163538D01*
X38551560Y-33161148D01*
X38553409Y-33158659D01*
X38555451Y-33156407D01*
X38557381Y-33154055D01*
X38559552Y-33151884D01*
X38561612Y-33149612D01*
X39287000Y-32424223D01*
X39287000Y-29987777D01*
X38561612Y-29262388D01*
X38560386Y-29261146D01*
X38552310Y-29251985D01*
X38545166Y-29242080D01*
X38539023Y-29231525D01*
X38533939Y-29220421D01*
X38529964Y-29208874D01*
X38527133Y-29196994D01*
X38525476Y-29184895D01*
X38525007Y-29172691D01*
X38525732Y-29160500D01*
X38527642Y-29148437D01*
X38530720Y-29136620D01*
X38534937Y-29125159D01*
X38540252Y-29114164D01*
X38546615Y-29103740D01*
X38553964Y-29093986D01*
X38562231Y-29084996D01*
X38571335Y-29076857D01*
X38581190Y-29069644D01*
X38591702Y-29063427D01*
X38602770Y-29058266D01*
X38614289Y-29054210D01*
X38626149Y-29051296D01*
X38638237Y-29049555D01*
X38650436Y-29049001D01*
X38662632Y-29049640D01*
G37*
%TD.AperFunction*%
D15*
%TO.P,MCU1,15*%
%TO.N,P7*%
X36110000Y-33238000D03*
%TO.P,MCU1,10*%
%TO.N,P14*%
X36110000Y-34762000D03*
%TA.AperFunction,SMDPad,CuDef*%
D12*
G36*
X36097368Y-38950360D02*
G01*
X36085293Y-38948534D01*
X36073454Y-38945538D01*
X36061963Y-38941401D01*
X36050931Y-38936163D01*
X36040463Y-38929873D01*
X36030659Y-38922591D01*
X36021612Y-38914388D01*
X35255611Y-38148388D01*
X35255326Y-38148099D01*
X35255304Y-38148079D01*
X35255281Y-38148053D01*
X35254386Y-38147146D01*
X35250759Y-38143032D01*
X35247132Y-38139004D01*
X35246743Y-38138476D01*
X35246309Y-38137984D01*
X35243124Y-38133568D01*
X35239885Y-38129174D01*
X35239548Y-38128609D01*
X35239166Y-38128079D01*
X35236418Y-38123357D01*
X35233632Y-38118684D01*
X35233355Y-38118095D01*
X35233023Y-38117525D01*
X35230737Y-38112532D01*
X35228432Y-38107634D01*
X35228214Y-38107021D01*
X35227939Y-38106421D01*
X35226154Y-38101236D01*
X35224335Y-38096129D01*
X35224177Y-38095496D01*
X35223963Y-38094874D01*
X35222692Y-38089539D01*
X35221381Y-38084279D01*
X35221286Y-38083635D01*
X35221133Y-38082993D01*
X35220383Y-38077524D01*
X35219597Y-38072198D01*
X35219566Y-38071556D01*
X35219475Y-38070895D01*
X35219264Y-38065399D01*
X35219000Y-38060000D01*
X35219000Y-35528000D01*
X35219003Y-35527602D01*
X35219001Y-35527564D01*
X35219003Y-35527520D01*
X35219012Y-35526255D01*
X35219353Y-35520837D01*
X35219639Y-35515369D01*
X35219738Y-35514713D01*
X35219779Y-35514066D01*
X35220643Y-35508734D01*
X35221466Y-35503293D01*
X35221628Y-35502653D01*
X35221732Y-35502011D01*
X35223122Y-35496749D01*
X35224462Y-35491454D01*
X35224683Y-35490840D01*
X35224851Y-35490204D01*
X35226752Y-35485091D01*
X35228598Y-35479964D01*
X35228880Y-35479370D01*
X35229108Y-35478757D01*
X35231488Y-35473879D01*
X35233837Y-35468931D01*
X35234177Y-35468365D01*
X35234462Y-35467781D01*
X35237303Y-35463162D01*
X35240127Y-35458463D01*
X35240518Y-35457936D01*
X35240861Y-35457379D01*
X35244156Y-35453038D01*
X35247408Y-35448659D01*
X35247848Y-35448174D01*
X35248244Y-35447652D01*
X35251941Y-35443660D01*
X35255611Y-35439612D01*
X36021612Y-34673612D01*
X36022854Y-34672386D01*
X36024509Y-34670927D01*
X36026055Y-34669381D01*
X36029060Y-34666915D01*
X36032015Y-34664310D01*
X36033827Y-34663003D01*
X36035538Y-34661599D01*
X36038743Y-34659457D01*
X36041920Y-34657166D01*
X36043875Y-34656028D01*
X36045737Y-34654784D01*
X36049118Y-34652977D01*
X36052475Y-34651023D01*
X36054554Y-34650071D01*
X36056556Y-34649001D01*
X36060071Y-34647545D01*
X36063579Y-34645939D01*
X36065769Y-34645185D01*
X36067889Y-34644307D01*
X36071518Y-34643206D01*
X36075126Y-34641964D01*
X36077392Y-34641424D01*
X36079627Y-34640746D01*
X36083316Y-34640012D01*
X36087006Y-34639133D01*
X36089354Y-34638811D01*
X36091659Y-34638353D01*
X36095373Y-34637987D01*
X36099105Y-34637476D01*
X36101500Y-34637384D01*
X36103867Y-34637151D01*
X36107562Y-34637151D01*
X36111309Y-34637007D01*
X36113730Y-34637151D01*
X36116133Y-34637151D01*
X36119802Y-34637512D01*
X36123500Y-34637732D01*
X36125907Y-34638113D01*
X36128341Y-34638353D01*
X36131939Y-34639069D01*
X36135563Y-34639642D01*
X36137956Y-34640265D01*
X36140373Y-34640746D01*
X36143850Y-34641801D01*
X36147380Y-34642720D01*
X36149725Y-34643583D01*
X36152111Y-34644307D01*
X36155440Y-34645686D01*
X36158841Y-34646937D01*
X36161113Y-34648035D01*
X36163444Y-34649001D01*
X36165446Y-34650071D01*
X36166595Y-34650685D01*
X36169836Y-34652252D01*
X36172019Y-34653584D01*
X36174263Y-34654784D01*
X36177211Y-34656754D01*
X36180260Y-34658615D01*
X36182320Y-34660168D01*
X36184462Y-34661599D01*
X36187170Y-34663821D01*
X36190014Y-34665964D01*
X36191945Y-34667740D01*
X36193945Y-34669381D01*
X36196405Y-34671841D01*
X36199004Y-34674231D01*
X36200767Y-34676203D01*
X36202619Y-34678055D01*
X36204815Y-34680731D01*
X36207143Y-34683335D01*
X36208720Y-34685489D01*
X36210401Y-34687538D01*
X36212307Y-34690391D01*
X36214356Y-34693190D01*
X36215729Y-34695512D01*
X36217216Y-34697737D01*
X36218821Y-34700739D01*
X36220573Y-34703702D01*
X36221725Y-34706173D01*
X36222999Y-34708556D01*
X36224291Y-34711676D01*
X36225734Y-34714770D01*
X36226649Y-34717367D01*
X36227693Y-34719889D01*
X36228667Y-34723100D01*
X36229790Y-34726289D01*
X36230452Y-34728984D01*
X36231254Y-34731627D01*
X36231902Y-34734884D01*
X36232704Y-34738149D01*
X36233105Y-34740935D01*
X36233647Y-34743659D01*
X36233970Y-34746938D01*
X36234445Y-34750237D01*
X36234574Y-34753071D01*
X36234849Y-34755867D01*
X36234849Y-34759133D01*
X36234999Y-34762436D01*
X36234849Y-34765299D01*
X36234849Y-34768133D01*
X36234532Y-34771356D01*
X36234360Y-34774632D01*
X36233928Y-34777492D01*
X36233647Y-34780341D01*
X36233020Y-34783495D01*
X36232534Y-34786707D01*
X36231819Y-34789533D01*
X36231254Y-34792373D01*
X36230326Y-34795431D01*
X36229538Y-34798546D01*
X36228542Y-34801313D01*
X36227693Y-34804111D01*
X36226481Y-34807037D01*
X36225401Y-34810037D01*
X36224128Y-34812718D01*
X36222999Y-34815444D01*
X36221520Y-34818211D01*
X36220163Y-34821069D01*
X36218622Y-34823633D01*
X36217216Y-34826263D01*
X36215486Y-34828852D01*
X36213873Y-34831537D01*
X36212069Y-34833966D01*
X36210401Y-34836462D01*
X36208440Y-34838852D01*
X36206591Y-34841341D01*
X36204549Y-34843593D01*
X36202619Y-34845945D01*
X36200448Y-34848116D01*
X36198388Y-34850388D01*
X35469000Y-35579777D01*
X35469000Y-38008223D01*
X36198388Y-38737612D01*
X36199614Y-38738854D01*
X36207690Y-38748015D01*
X36214834Y-38757920D01*
X36220977Y-38768475D01*
X36226061Y-38779579D01*
X36230036Y-38791126D01*
X36232867Y-38803006D01*
X36234524Y-38815105D01*
X36234993Y-38827309D01*
X36234268Y-38839500D01*
X36232358Y-38851563D01*
X36229280Y-38863380D01*
X36225063Y-38874841D01*
X36219748Y-38885836D01*
X36213385Y-38896260D01*
X36206036Y-38906014D01*
X36197769Y-38915004D01*
X36188665Y-38923143D01*
X36178810Y-38930356D01*
X36168298Y-38936573D01*
X36157230Y-38941734D01*
X36145711Y-38945790D01*
X36133851Y-38948704D01*
X36121763Y-38950445D01*
X36109564Y-38950999D01*
X36097368Y-38950360D01*
G37*
%TD.AperFunction*%
%TA.AperFunction,SMDPad,CuDef*%
%TO.P,MCU1,15*%
%TO.N,P7*%
G36*
X36122632Y-29049640D02*
G01*
X36134707Y-29051466D01*
X36146546Y-29054462D01*
X36158037Y-29058599D01*
X36169069Y-29063837D01*
X36179537Y-29070127D01*
X36189341Y-29077409D01*
X36198388Y-29085612D01*
X36960389Y-29847612D01*
X36960674Y-29847901D01*
X36960696Y-29847921D01*
X36960719Y-29847947D01*
X36961614Y-29848854D01*
X36965241Y-29852968D01*
X36968868Y-29856996D01*
X36969257Y-29857524D01*
X36969691Y-29858016D01*
X36972876Y-29862432D01*
X36976115Y-29866826D01*
X36976452Y-29867391D01*
X36976834Y-29867921D01*
X36979582Y-29872643D01*
X36982368Y-29877316D01*
X36982645Y-29877905D01*
X36982977Y-29878475D01*
X36985263Y-29883468D01*
X36987568Y-29888366D01*
X36987786Y-29888979D01*
X36988061Y-29889579D01*
X36989846Y-29894764D01*
X36991665Y-29899871D01*
X36991823Y-29900504D01*
X36992037Y-29901126D01*
X36993310Y-29906471D01*
X36994619Y-29911721D01*
X36994714Y-29912363D01*
X36994867Y-29913006D01*
X36995618Y-29918483D01*
X36996403Y-29923802D01*
X36996434Y-29924444D01*
X36996525Y-29925105D01*
X36996736Y-29930601D01*
X36997000Y-29936000D01*
X36997000Y-32476000D01*
X36996997Y-32476398D01*
X36996999Y-32476436D01*
X36996997Y-32476480D01*
X36996988Y-32477745D01*
X36996644Y-32483213D01*
X36996360Y-32488632D01*
X36996262Y-32489278D01*
X36996221Y-32489934D01*
X36995351Y-32495301D01*
X36994534Y-32500707D01*
X36994372Y-32501347D01*
X36994268Y-32501989D01*
X36992878Y-32507251D01*
X36991538Y-32512546D01*
X36991317Y-32513159D01*
X36991149Y-32513796D01*
X36989230Y-32518955D01*
X36987401Y-32524036D01*
X36987123Y-32524621D01*
X36986892Y-32525243D01*
X36984496Y-32530156D01*
X36982163Y-32535069D01*
X36981823Y-32535635D01*
X36981538Y-32536219D01*
X36978697Y-32540838D01*
X36975873Y-32545537D01*
X36975482Y-32546064D01*
X36975139Y-32546621D01*
X36971844Y-32550962D01*
X36968592Y-32555341D01*
X36968152Y-32555826D01*
X36967756Y-32556348D01*
X36964059Y-32560340D01*
X36960389Y-32564388D01*
X36198388Y-33326388D01*
X36197146Y-33327614D01*
X36195491Y-33329073D01*
X36193945Y-33330619D01*
X36190940Y-33333085D01*
X36187985Y-33335690D01*
X36186173Y-33336997D01*
X36184462Y-33338401D01*
X36181257Y-33340543D01*
X36178080Y-33342834D01*
X36176125Y-33343972D01*
X36174263Y-33345216D01*
X36170882Y-33347023D01*
X36167525Y-33348977D01*
X36165446Y-33349929D01*
X36163444Y-33350999D01*
X36159929Y-33352455D01*
X36156421Y-33354061D01*
X36154231Y-33354815D01*
X36152111Y-33355693D01*
X36148482Y-33356794D01*
X36144874Y-33358036D01*
X36142608Y-33358576D01*
X36140373Y-33359254D01*
X36136684Y-33359988D01*
X36132994Y-33360867D01*
X36130646Y-33361189D01*
X36128341Y-33361647D01*
X36124627Y-33362013D01*
X36120895Y-33362524D01*
X36118500Y-33362616D01*
X36116133Y-33362849D01*
X36112438Y-33362849D01*
X36108691Y-33362993D01*
X36106270Y-33362849D01*
X36103867Y-33362849D01*
X36100198Y-33362488D01*
X36096500Y-33362268D01*
X36094093Y-33361887D01*
X36091659Y-33361647D01*
X36088061Y-33360931D01*
X36084437Y-33360358D01*
X36082044Y-33359735D01*
X36079627Y-33359254D01*
X36076150Y-33358199D01*
X36072620Y-33357280D01*
X36070275Y-33356417D01*
X36067889Y-33355693D01*
X36064560Y-33354314D01*
X36061159Y-33353063D01*
X36058887Y-33351965D01*
X36056556Y-33350999D01*
X36054554Y-33349929D01*
X36053405Y-33349315D01*
X36050164Y-33347748D01*
X36047981Y-33346416D01*
X36045737Y-33345216D01*
X36042789Y-33343246D01*
X36039740Y-33341385D01*
X36037680Y-33339832D01*
X36035538Y-33338401D01*
X36032830Y-33336179D01*
X36029986Y-33334036D01*
X36028055Y-33332260D01*
X36026055Y-33330619D01*
X36023595Y-33328159D01*
X36020996Y-33325769D01*
X36019233Y-33323797D01*
X36017381Y-33321945D01*
X36015185Y-33319269D01*
X36012857Y-33316665D01*
X36011280Y-33314511D01*
X36009599Y-33312462D01*
X36007693Y-33309609D01*
X36005644Y-33306810D01*
X36004271Y-33304488D01*
X36002784Y-33302263D01*
X36001179Y-33299261D01*
X35999427Y-33296298D01*
X35998275Y-33293827D01*
X35997001Y-33291444D01*
X35995709Y-33288324D01*
X35994266Y-33285230D01*
X35993351Y-33282633D01*
X35992307Y-33280111D01*
X35991333Y-33276900D01*
X35990210Y-33273711D01*
X35989548Y-33271016D01*
X35988746Y-33268373D01*
X35988098Y-33265116D01*
X35987296Y-33261851D01*
X35986895Y-33259065D01*
X35986353Y-33256341D01*
X35986030Y-33253062D01*
X35985555Y-33249763D01*
X35985426Y-33246929D01*
X35985151Y-33244133D01*
X35985151Y-33240867D01*
X35985001Y-33237564D01*
X35985151Y-33234701D01*
X35985151Y-33231867D01*
X35985468Y-33228644D01*
X35985640Y-33225368D01*
X35986072Y-33222508D01*
X35986353Y-33219659D01*
X35986980Y-33216505D01*
X35987466Y-33213293D01*
X35988181Y-33210467D01*
X35988746Y-33207627D01*
X35989674Y-33204569D01*
X35990462Y-33201454D01*
X35991458Y-33198687D01*
X35992307Y-33195889D01*
X35993519Y-33192963D01*
X35994599Y-33189963D01*
X35995872Y-33187282D01*
X35997001Y-33184556D01*
X35998480Y-33181789D01*
X35999837Y-33178931D01*
X36001378Y-33176367D01*
X36002784Y-33173737D01*
X36004514Y-33171148D01*
X36006127Y-33168463D01*
X36007931Y-33166034D01*
X36009599Y-33163538D01*
X36011560Y-33161148D01*
X36013409Y-33158659D01*
X36015451Y-33156407D01*
X36017381Y-33154055D01*
X36019552Y-33151884D01*
X36021612Y-33149612D01*
X36747000Y-32424223D01*
X36747000Y-29987777D01*
X36021612Y-29262388D01*
X36020386Y-29261146D01*
X36012310Y-29251985D01*
X36005166Y-29242080D01*
X35999023Y-29231525D01*
X35993939Y-29220421D01*
X35989964Y-29208874D01*
X35987133Y-29196994D01*
X35985476Y-29184895D01*
X35985007Y-29172691D01*
X35985732Y-29160500D01*
X35987642Y-29148437D01*
X35990720Y-29136620D01*
X35994937Y-29125159D01*
X36000252Y-29114164D01*
X36006615Y-29103740D01*
X36013964Y-29093986D01*
X36022231Y-29084996D01*
X36031335Y-29076857D01*
X36041190Y-29069644D01*
X36051702Y-29063427D01*
X36062770Y-29058266D01*
X36074289Y-29054210D01*
X36086149Y-29051296D01*
X36098237Y-29049555D01*
X36110436Y-29049001D01*
X36122632Y-29049640D01*
G37*
%TD.AperFunction*%
D15*
%TO.P,MCU1,14*%
%TO.N,P8*%
X33570000Y-33238000D03*
%TO.P,MCU1,11*%
%TO.N,P16*%
X33570000Y-34762000D03*
%TA.AperFunction,SMDPad,CuDef*%
D12*
G36*
X33557368Y-38950360D02*
G01*
X33545293Y-38948534D01*
X33533454Y-38945538D01*
X33521963Y-38941401D01*
X33510931Y-38936163D01*
X33500463Y-38929873D01*
X33490659Y-38922591D01*
X33481612Y-38914388D01*
X32715611Y-38148388D01*
X32715326Y-38148099D01*
X32715304Y-38148079D01*
X32715281Y-38148053D01*
X32714386Y-38147146D01*
X32710759Y-38143032D01*
X32707132Y-38139004D01*
X32706743Y-38138476D01*
X32706309Y-38137984D01*
X32703124Y-38133568D01*
X32699885Y-38129174D01*
X32699548Y-38128609D01*
X32699166Y-38128079D01*
X32696418Y-38123357D01*
X32693632Y-38118684D01*
X32693355Y-38118095D01*
X32693023Y-38117525D01*
X32690737Y-38112532D01*
X32688432Y-38107634D01*
X32688214Y-38107021D01*
X32687939Y-38106421D01*
X32686154Y-38101236D01*
X32684335Y-38096129D01*
X32684177Y-38095496D01*
X32683963Y-38094874D01*
X32682692Y-38089539D01*
X32681381Y-38084279D01*
X32681286Y-38083635D01*
X32681133Y-38082993D01*
X32680383Y-38077524D01*
X32679597Y-38072198D01*
X32679566Y-38071556D01*
X32679475Y-38070895D01*
X32679264Y-38065399D01*
X32679000Y-38060000D01*
X32679000Y-35528000D01*
X32679003Y-35527602D01*
X32679001Y-35527564D01*
X32679003Y-35527520D01*
X32679012Y-35526255D01*
X32679353Y-35520837D01*
X32679639Y-35515369D01*
X32679738Y-35514713D01*
X32679779Y-35514066D01*
X32680643Y-35508734D01*
X32681466Y-35503293D01*
X32681628Y-35502653D01*
X32681732Y-35502011D01*
X32683122Y-35496749D01*
X32684462Y-35491454D01*
X32684683Y-35490840D01*
X32684851Y-35490204D01*
X32686752Y-35485091D01*
X32688598Y-35479964D01*
X32688880Y-35479370D01*
X32689108Y-35478757D01*
X32691488Y-35473879D01*
X32693837Y-35468931D01*
X32694177Y-35468365D01*
X32694462Y-35467781D01*
X32697303Y-35463162D01*
X32700127Y-35458463D01*
X32700518Y-35457936D01*
X32700861Y-35457379D01*
X32704156Y-35453038D01*
X32707408Y-35448659D01*
X32707848Y-35448174D01*
X32708244Y-35447652D01*
X32711941Y-35443660D01*
X32715611Y-35439612D01*
X33481612Y-34673612D01*
X33482854Y-34672386D01*
X33484509Y-34670927D01*
X33486055Y-34669381D01*
X33489060Y-34666915D01*
X33492015Y-34664310D01*
X33493827Y-34663003D01*
X33495538Y-34661599D01*
X33498743Y-34659457D01*
X33501920Y-34657166D01*
X33503875Y-34656028D01*
X33505737Y-34654784D01*
X33509118Y-34652977D01*
X33512475Y-34651023D01*
X33514554Y-34650071D01*
X33516556Y-34649001D01*
X33520071Y-34647545D01*
X33523579Y-34645939D01*
X33525769Y-34645185D01*
X33527889Y-34644307D01*
X33531518Y-34643206D01*
X33535126Y-34641964D01*
X33537392Y-34641424D01*
X33539627Y-34640746D01*
X33543316Y-34640012D01*
X33547006Y-34639133D01*
X33549354Y-34638811D01*
X33551659Y-34638353D01*
X33555373Y-34637987D01*
X33559105Y-34637476D01*
X33561500Y-34637384D01*
X33563867Y-34637151D01*
X33567562Y-34637151D01*
X33571309Y-34637007D01*
X33573730Y-34637151D01*
X33576133Y-34637151D01*
X33579802Y-34637512D01*
X33583500Y-34637732D01*
X33585907Y-34638113D01*
X33588341Y-34638353D01*
X33591939Y-34639069D01*
X33595563Y-34639642D01*
X33597956Y-34640265D01*
X33600373Y-34640746D01*
X33603850Y-34641801D01*
X33607380Y-34642720D01*
X33609725Y-34643583D01*
X33612111Y-34644307D01*
X33615440Y-34645686D01*
X33618841Y-34646937D01*
X33621113Y-34648035D01*
X33623444Y-34649001D01*
X33625446Y-34650071D01*
X33626595Y-34650685D01*
X33629836Y-34652252D01*
X33632019Y-34653584D01*
X33634263Y-34654784D01*
X33637211Y-34656754D01*
X33640260Y-34658615D01*
X33642320Y-34660168D01*
X33644462Y-34661599D01*
X33647170Y-34663821D01*
X33650014Y-34665964D01*
X33651945Y-34667740D01*
X33653945Y-34669381D01*
X33656405Y-34671841D01*
X33659004Y-34674231D01*
X33660767Y-34676203D01*
X33662619Y-34678055D01*
X33664815Y-34680731D01*
X33667143Y-34683335D01*
X33668720Y-34685489D01*
X33670401Y-34687538D01*
X33672307Y-34690391D01*
X33674356Y-34693190D01*
X33675729Y-34695512D01*
X33677216Y-34697737D01*
X33678821Y-34700739D01*
X33680573Y-34703702D01*
X33681725Y-34706173D01*
X33682999Y-34708556D01*
X33684291Y-34711676D01*
X33685734Y-34714770D01*
X33686649Y-34717367D01*
X33687693Y-34719889D01*
X33688667Y-34723100D01*
X33689790Y-34726289D01*
X33690452Y-34728984D01*
X33691254Y-34731627D01*
X33691902Y-34734884D01*
X33692704Y-34738149D01*
X33693105Y-34740935D01*
X33693647Y-34743659D01*
X33693970Y-34746938D01*
X33694445Y-34750237D01*
X33694574Y-34753071D01*
X33694849Y-34755867D01*
X33694849Y-34759133D01*
X33694999Y-34762436D01*
X33694849Y-34765299D01*
X33694849Y-34768133D01*
X33694532Y-34771356D01*
X33694360Y-34774632D01*
X33693928Y-34777492D01*
X33693647Y-34780341D01*
X33693020Y-34783495D01*
X33692534Y-34786707D01*
X33691819Y-34789533D01*
X33691254Y-34792373D01*
X33690326Y-34795431D01*
X33689538Y-34798546D01*
X33688542Y-34801313D01*
X33687693Y-34804111D01*
X33686481Y-34807037D01*
X33685401Y-34810037D01*
X33684128Y-34812718D01*
X33682999Y-34815444D01*
X33681520Y-34818211D01*
X33680163Y-34821069D01*
X33678622Y-34823633D01*
X33677216Y-34826263D01*
X33675486Y-34828852D01*
X33673873Y-34831537D01*
X33672069Y-34833966D01*
X33670401Y-34836462D01*
X33668440Y-34838852D01*
X33666591Y-34841341D01*
X33664549Y-34843593D01*
X33662619Y-34845945D01*
X33660448Y-34848116D01*
X33658388Y-34850388D01*
X32929000Y-35579777D01*
X32929000Y-38008223D01*
X33658388Y-38737612D01*
X33659614Y-38738854D01*
X33667690Y-38748015D01*
X33674834Y-38757920D01*
X33680977Y-38768475D01*
X33686061Y-38779579D01*
X33690036Y-38791126D01*
X33692867Y-38803006D01*
X33694524Y-38815105D01*
X33694993Y-38827309D01*
X33694268Y-38839500D01*
X33692358Y-38851563D01*
X33689280Y-38863380D01*
X33685063Y-38874841D01*
X33679748Y-38885836D01*
X33673385Y-38896260D01*
X33666036Y-38906014D01*
X33657769Y-38915004D01*
X33648665Y-38923143D01*
X33638810Y-38930356D01*
X33628298Y-38936573D01*
X33617230Y-38941734D01*
X33605711Y-38945790D01*
X33593851Y-38948704D01*
X33581763Y-38950445D01*
X33569564Y-38950999D01*
X33557368Y-38950360D01*
G37*
%TD.AperFunction*%
%TA.AperFunction,SMDPad,CuDef*%
%TO.P,MCU1,14*%
%TO.N,P8*%
G36*
X33582632Y-29049640D02*
G01*
X33594707Y-29051466D01*
X33606546Y-29054462D01*
X33618037Y-29058599D01*
X33629069Y-29063837D01*
X33639537Y-29070127D01*
X33649341Y-29077409D01*
X33658388Y-29085612D01*
X34420389Y-29847612D01*
X34420674Y-29847901D01*
X34420696Y-29847921D01*
X34420719Y-29847947D01*
X34421614Y-29848854D01*
X34425241Y-29852968D01*
X34428868Y-29856996D01*
X34429257Y-29857524D01*
X34429691Y-29858016D01*
X34432876Y-29862432D01*
X34436115Y-29866826D01*
X34436452Y-29867391D01*
X34436834Y-29867921D01*
X34439582Y-29872643D01*
X34442368Y-29877316D01*
X34442645Y-29877905D01*
X34442977Y-29878475D01*
X34445263Y-29883468D01*
X34447568Y-29888366D01*
X34447786Y-29888979D01*
X34448061Y-29889579D01*
X34449846Y-29894764D01*
X34451665Y-29899871D01*
X34451823Y-29900504D01*
X34452037Y-29901126D01*
X34453310Y-29906471D01*
X34454619Y-29911721D01*
X34454714Y-29912363D01*
X34454867Y-29913006D01*
X34455618Y-29918483D01*
X34456403Y-29923802D01*
X34456434Y-29924444D01*
X34456525Y-29925105D01*
X34456736Y-29930601D01*
X34457000Y-29936000D01*
X34457000Y-32476000D01*
X34456997Y-32476398D01*
X34456999Y-32476436D01*
X34456997Y-32476480D01*
X34456988Y-32477745D01*
X34456644Y-32483213D01*
X34456360Y-32488632D01*
X34456262Y-32489278D01*
X34456221Y-32489934D01*
X34455351Y-32495301D01*
X34454534Y-32500707D01*
X34454372Y-32501347D01*
X34454268Y-32501989D01*
X34452878Y-32507251D01*
X34451538Y-32512546D01*
X34451317Y-32513159D01*
X34451149Y-32513796D01*
X34449230Y-32518955D01*
X34447401Y-32524036D01*
X34447123Y-32524621D01*
X34446892Y-32525243D01*
X34444496Y-32530156D01*
X34442163Y-32535069D01*
X34441823Y-32535635D01*
X34441538Y-32536219D01*
X34438697Y-32540838D01*
X34435873Y-32545537D01*
X34435482Y-32546064D01*
X34435139Y-32546621D01*
X34431844Y-32550962D01*
X34428592Y-32555341D01*
X34428152Y-32555826D01*
X34427756Y-32556348D01*
X34424059Y-32560340D01*
X34420389Y-32564388D01*
X33658388Y-33326388D01*
X33657146Y-33327614D01*
X33655491Y-33329073D01*
X33653945Y-33330619D01*
X33650940Y-33333085D01*
X33647985Y-33335690D01*
X33646173Y-33336997D01*
X33644462Y-33338401D01*
X33641257Y-33340543D01*
X33638080Y-33342834D01*
X33636125Y-33343972D01*
X33634263Y-33345216D01*
X33630882Y-33347023D01*
X33627525Y-33348977D01*
X33625446Y-33349929D01*
X33623444Y-33350999D01*
X33619929Y-33352455D01*
X33616421Y-33354061D01*
X33614231Y-33354815D01*
X33612111Y-33355693D01*
X33608482Y-33356794D01*
X33604874Y-33358036D01*
X33602608Y-33358576D01*
X33600373Y-33359254D01*
X33596684Y-33359988D01*
X33592994Y-33360867D01*
X33590646Y-33361189D01*
X33588341Y-33361647D01*
X33584627Y-33362013D01*
X33580895Y-33362524D01*
X33578500Y-33362616D01*
X33576133Y-33362849D01*
X33572438Y-33362849D01*
X33568691Y-33362993D01*
X33566270Y-33362849D01*
X33563867Y-33362849D01*
X33560198Y-33362488D01*
X33556500Y-33362268D01*
X33554093Y-33361887D01*
X33551659Y-33361647D01*
X33548061Y-33360931D01*
X33544437Y-33360358D01*
X33542044Y-33359735D01*
X33539627Y-33359254D01*
X33536150Y-33358199D01*
X33532620Y-33357280D01*
X33530275Y-33356417D01*
X33527889Y-33355693D01*
X33524560Y-33354314D01*
X33521159Y-33353063D01*
X33518887Y-33351965D01*
X33516556Y-33350999D01*
X33514554Y-33349929D01*
X33513405Y-33349315D01*
X33510164Y-33347748D01*
X33507981Y-33346416D01*
X33505737Y-33345216D01*
X33502789Y-33343246D01*
X33499740Y-33341385D01*
X33497680Y-33339832D01*
X33495538Y-33338401D01*
X33492830Y-33336179D01*
X33489986Y-33334036D01*
X33488055Y-33332260D01*
X33486055Y-33330619D01*
X33483595Y-33328159D01*
X33480996Y-33325769D01*
X33479233Y-33323797D01*
X33477381Y-33321945D01*
X33475185Y-33319269D01*
X33472857Y-33316665D01*
X33471280Y-33314511D01*
X33469599Y-33312462D01*
X33467693Y-33309609D01*
X33465644Y-33306810D01*
X33464271Y-33304488D01*
X33462784Y-33302263D01*
X33461179Y-33299261D01*
X33459427Y-33296298D01*
X33458275Y-33293827D01*
X33457001Y-33291444D01*
X33455709Y-33288324D01*
X33454266Y-33285230D01*
X33453351Y-33282633D01*
X33452307Y-33280111D01*
X33451333Y-33276900D01*
X33450210Y-33273711D01*
X33449548Y-33271016D01*
X33448746Y-33268373D01*
X33448098Y-33265116D01*
X33447296Y-33261851D01*
X33446895Y-33259065D01*
X33446353Y-33256341D01*
X33446030Y-33253062D01*
X33445555Y-33249763D01*
X33445426Y-33246929D01*
X33445151Y-33244133D01*
X33445151Y-33240867D01*
X33445001Y-33237564D01*
X33445151Y-33234701D01*
X33445151Y-33231867D01*
X33445468Y-33228644D01*
X33445640Y-33225368D01*
X33446072Y-33222508D01*
X33446353Y-33219659D01*
X33446980Y-33216505D01*
X33447466Y-33213293D01*
X33448181Y-33210467D01*
X33448746Y-33207627D01*
X33449674Y-33204569D01*
X33450462Y-33201454D01*
X33451458Y-33198687D01*
X33452307Y-33195889D01*
X33453519Y-33192963D01*
X33454599Y-33189963D01*
X33455872Y-33187282D01*
X33457001Y-33184556D01*
X33458480Y-33181789D01*
X33459837Y-33178931D01*
X33461378Y-33176367D01*
X33462784Y-33173737D01*
X33464514Y-33171148D01*
X33466127Y-33168463D01*
X33467931Y-33166034D01*
X33469599Y-33163538D01*
X33471560Y-33161148D01*
X33473409Y-33158659D01*
X33475451Y-33156407D01*
X33477381Y-33154055D01*
X33479552Y-33151884D01*
X33481612Y-33149612D01*
X34207000Y-32424223D01*
X34207000Y-29987777D01*
X33481612Y-29262388D01*
X33480386Y-29261146D01*
X33472310Y-29251985D01*
X33465166Y-29242080D01*
X33459023Y-29231525D01*
X33453939Y-29220421D01*
X33449964Y-29208874D01*
X33447133Y-29196994D01*
X33445476Y-29184895D01*
X33445007Y-29172691D01*
X33445732Y-29160500D01*
X33447642Y-29148437D01*
X33450720Y-29136620D01*
X33454937Y-29125159D01*
X33460252Y-29114164D01*
X33466615Y-29103740D01*
X33473964Y-29093986D01*
X33482231Y-29084996D01*
X33491335Y-29076857D01*
X33501190Y-29069644D01*
X33511702Y-29063427D01*
X33522770Y-29058266D01*
X33534289Y-29054210D01*
X33546149Y-29051296D01*
X33558237Y-29049555D01*
X33570436Y-29049001D01*
X33582632Y-29049640D01*
G37*
%TD.AperFunction*%
D15*
%TO.P,MCU1,13*%
%TO.N,P9*%
X31030000Y-33238000D03*
%TO.P,MCU1,12*%
%TO.N,P10*%
X31030000Y-34762000D03*
%TA.AperFunction,SMDPad,CuDef*%
D12*
G36*
X31017368Y-38950360D02*
G01*
X31005293Y-38948534D01*
X30993454Y-38945538D01*
X30981963Y-38941401D01*
X30970931Y-38936163D01*
X30960463Y-38929873D01*
X30950659Y-38922591D01*
X30941612Y-38914388D01*
X30175611Y-38148388D01*
X30175326Y-38148099D01*
X30175304Y-38148079D01*
X30175281Y-38148053D01*
X30174386Y-38147146D01*
X30170759Y-38143032D01*
X30167132Y-38139004D01*
X30166743Y-38138476D01*
X30166309Y-38137984D01*
X30163124Y-38133568D01*
X30159885Y-38129174D01*
X30159548Y-38128609D01*
X30159166Y-38128079D01*
X30156418Y-38123357D01*
X30153632Y-38118684D01*
X30153355Y-38118095D01*
X30153023Y-38117525D01*
X30150737Y-38112532D01*
X30148432Y-38107634D01*
X30148214Y-38107021D01*
X30147939Y-38106421D01*
X30146154Y-38101236D01*
X30144335Y-38096129D01*
X30144177Y-38095496D01*
X30143963Y-38094874D01*
X30142692Y-38089539D01*
X30141381Y-38084279D01*
X30141286Y-38083635D01*
X30141133Y-38082993D01*
X30140383Y-38077524D01*
X30139597Y-38072198D01*
X30139566Y-38071556D01*
X30139475Y-38070895D01*
X30139264Y-38065399D01*
X30139000Y-38060000D01*
X30139000Y-35528000D01*
X30139003Y-35527602D01*
X30139001Y-35527564D01*
X30139003Y-35527520D01*
X30139012Y-35526255D01*
X30139353Y-35520837D01*
X30139639Y-35515369D01*
X30139738Y-35514713D01*
X30139779Y-35514066D01*
X30140643Y-35508734D01*
X30141466Y-35503293D01*
X30141628Y-35502653D01*
X30141732Y-35502011D01*
X30143122Y-35496749D01*
X30144462Y-35491454D01*
X30144683Y-35490840D01*
X30144851Y-35490204D01*
X30146752Y-35485091D01*
X30148598Y-35479964D01*
X30148880Y-35479370D01*
X30149108Y-35478757D01*
X30151488Y-35473879D01*
X30153837Y-35468931D01*
X30154177Y-35468365D01*
X30154462Y-35467781D01*
X30157303Y-35463162D01*
X30160127Y-35458463D01*
X30160518Y-35457936D01*
X30160861Y-35457379D01*
X30164156Y-35453038D01*
X30167408Y-35448659D01*
X30167848Y-35448174D01*
X30168244Y-35447652D01*
X30171941Y-35443660D01*
X30175611Y-35439612D01*
X30941612Y-34673612D01*
X30942854Y-34672386D01*
X30944509Y-34670927D01*
X30946055Y-34669381D01*
X30949060Y-34666915D01*
X30952015Y-34664310D01*
X30953827Y-34663003D01*
X30955538Y-34661599D01*
X30958743Y-34659457D01*
X30961920Y-34657166D01*
X30963875Y-34656028D01*
X30965737Y-34654784D01*
X30969118Y-34652977D01*
X30972475Y-34651023D01*
X30974554Y-34650071D01*
X30976556Y-34649001D01*
X30980071Y-34647545D01*
X30983579Y-34645939D01*
X30985769Y-34645185D01*
X30987889Y-34644307D01*
X30991518Y-34643206D01*
X30995126Y-34641964D01*
X30997392Y-34641424D01*
X30999627Y-34640746D01*
X31003316Y-34640012D01*
X31007006Y-34639133D01*
X31009354Y-34638811D01*
X31011659Y-34638353D01*
X31015373Y-34637987D01*
X31019105Y-34637476D01*
X31021500Y-34637384D01*
X31023867Y-34637151D01*
X31027562Y-34637151D01*
X31031309Y-34637007D01*
X31033730Y-34637151D01*
X31036133Y-34637151D01*
X31039802Y-34637512D01*
X31043500Y-34637732D01*
X31045907Y-34638113D01*
X31048341Y-34638353D01*
X31051939Y-34639069D01*
X31055563Y-34639642D01*
X31057956Y-34640265D01*
X31060373Y-34640746D01*
X31063850Y-34641801D01*
X31067380Y-34642720D01*
X31069725Y-34643583D01*
X31072111Y-34644307D01*
X31075440Y-34645686D01*
X31078841Y-34646937D01*
X31081113Y-34648035D01*
X31083444Y-34649001D01*
X31085446Y-34650071D01*
X31086595Y-34650685D01*
X31089836Y-34652252D01*
X31092019Y-34653584D01*
X31094263Y-34654784D01*
X31097211Y-34656754D01*
X31100260Y-34658615D01*
X31102320Y-34660168D01*
X31104462Y-34661599D01*
X31107170Y-34663821D01*
X31110014Y-34665964D01*
X31111945Y-34667740D01*
X31113945Y-34669381D01*
X31116405Y-34671841D01*
X31119004Y-34674231D01*
X31120767Y-34676203D01*
X31122619Y-34678055D01*
X31124815Y-34680731D01*
X31127143Y-34683335D01*
X31128720Y-34685489D01*
X31130401Y-34687538D01*
X31132307Y-34690391D01*
X31134356Y-34693190D01*
X31135729Y-34695512D01*
X31137216Y-34697737D01*
X31138821Y-34700739D01*
X31140573Y-34703702D01*
X31141725Y-34706173D01*
X31142999Y-34708556D01*
X31144291Y-34711676D01*
X31145734Y-34714770D01*
X31146649Y-34717367D01*
X31147693Y-34719889D01*
X31148667Y-34723100D01*
X31149790Y-34726289D01*
X31150452Y-34728984D01*
X31151254Y-34731627D01*
X31151902Y-34734884D01*
X31152704Y-34738149D01*
X31153105Y-34740935D01*
X31153647Y-34743659D01*
X31153970Y-34746938D01*
X31154445Y-34750237D01*
X31154574Y-34753071D01*
X31154849Y-34755867D01*
X31154849Y-34759133D01*
X31154999Y-34762436D01*
X31154849Y-34765299D01*
X31154849Y-34768133D01*
X31154532Y-34771356D01*
X31154360Y-34774632D01*
X31153928Y-34777492D01*
X31153647Y-34780341D01*
X31153020Y-34783495D01*
X31152534Y-34786707D01*
X31151819Y-34789533D01*
X31151254Y-34792373D01*
X31150326Y-34795431D01*
X31149538Y-34798546D01*
X31148542Y-34801313D01*
X31147693Y-34804111D01*
X31146481Y-34807037D01*
X31145401Y-34810037D01*
X31144128Y-34812718D01*
X31142999Y-34815444D01*
X31141520Y-34818211D01*
X31140163Y-34821069D01*
X31138622Y-34823633D01*
X31137216Y-34826263D01*
X31135486Y-34828852D01*
X31133873Y-34831537D01*
X31132069Y-34833966D01*
X31130401Y-34836462D01*
X31128440Y-34838852D01*
X31126591Y-34841341D01*
X31124549Y-34843593D01*
X31122619Y-34845945D01*
X31120448Y-34848116D01*
X31118388Y-34850388D01*
X30389000Y-35579777D01*
X30389000Y-38008223D01*
X31118388Y-38737612D01*
X31119614Y-38738854D01*
X31127690Y-38748015D01*
X31134834Y-38757920D01*
X31140977Y-38768475D01*
X31146061Y-38779579D01*
X31150036Y-38791126D01*
X31152867Y-38803006D01*
X31154524Y-38815105D01*
X31154993Y-38827309D01*
X31154268Y-38839500D01*
X31152358Y-38851563D01*
X31149280Y-38863380D01*
X31145063Y-38874841D01*
X31139748Y-38885836D01*
X31133385Y-38896260D01*
X31126036Y-38906014D01*
X31117769Y-38915004D01*
X31108665Y-38923143D01*
X31098810Y-38930356D01*
X31088298Y-38936573D01*
X31077230Y-38941734D01*
X31065711Y-38945790D01*
X31053851Y-38948704D01*
X31041763Y-38950445D01*
X31029564Y-38950999D01*
X31017368Y-38950360D01*
G37*
%TD.AperFunction*%
%TA.AperFunction,SMDPad,CuDef*%
%TO.P,MCU1,13*%
%TO.N,P9*%
G36*
X31042632Y-29049640D02*
G01*
X31054707Y-29051466D01*
X31066546Y-29054462D01*
X31078037Y-29058599D01*
X31089069Y-29063837D01*
X31099537Y-29070127D01*
X31109341Y-29077409D01*
X31118388Y-29085612D01*
X31880389Y-29847612D01*
X31880674Y-29847901D01*
X31880696Y-29847921D01*
X31880719Y-29847947D01*
X31881614Y-29848854D01*
X31885241Y-29852968D01*
X31888868Y-29856996D01*
X31889257Y-29857524D01*
X31889691Y-29858016D01*
X31892876Y-29862432D01*
X31896115Y-29866826D01*
X31896452Y-29867391D01*
X31896834Y-29867921D01*
X31899582Y-29872643D01*
X31902368Y-29877316D01*
X31902645Y-29877905D01*
X31902977Y-29878475D01*
X31905263Y-29883468D01*
X31907568Y-29888366D01*
X31907786Y-29888979D01*
X31908061Y-29889579D01*
X31909846Y-29894764D01*
X31911665Y-29899871D01*
X31911823Y-29900504D01*
X31912037Y-29901126D01*
X31913310Y-29906471D01*
X31914619Y-29911721D01*
X31914714Y-29912363D01*
X31914867Y-29913006D01*
X31915618Y-29918483D01*
X31916403Y-29923802D01*
X31916434Y-29924444D01*
X31916525Y-29925105D01*
X31916736Y-29930601D01*
X31917000Y-29936000D01*
X31917000Y-32476000D01*
X31916997Y-32476398D01*
X31916999Y-32476436D01*
X31916997Y-32476480D01*
X31916988Y-32477745D01*
X31916644Y-32483213D01*
X31916360Y-32488632D01*
X31916262Y-32489278D01*
X31916221Y-32489934D01*
X31915351Y-32495301D01*
X31914534Y-32500707D01*
X31914372Y-32501347D01*
X31914268Y-32501989D01*
X31912878Y-32507251D01*
X31911538Y-32512546D01*
X31911317Y-32513159D01*
X31911149Y-32513796D01*
X31909230Y-32518955D01*
X31907401Y-32524036D01*
X31907123Y-32524621D01*
X31906892Y-32525243D01*
X31904496Y-32530156D01*
X31902163Y-32535069D01*
X31901823Y-32535635D01*
X31901538Y-32536219D01*
X31898697Y-32540838D01*
X31895873Y-32545537D01*
X31895482Y-32546064D01*
X31895139Y-32546621D01*
X31891844Y-32550962D01*
X31888592Y-32555341D01*
X31888152Y-32555826D01*
X31887756Y-32556348D01*
X31884059Y-32560340D01*
X31880389Y-32564388D01*
X31118388Y-33326388D01*
X31117146Y-33327614D01*
X31115491Y-33329073D01*
X31113945Y-33330619D01*
X31110940Y-33333085D01*
X31107985Y-33335690D01*
X31106173Y-33336997D01*
X31104462Y-33338401D01*
X31101257Y-33340543D01*
X31098080Y-33342834D01*
X31096125Y-33343972D01*
X31094263Y-33345216D01*
X31090882Y-33347023D01*
X31087525Y-33348977D01*
X31085446Y-33349929D01*
X31083444Y-33350999D01*
X31079929Y-33352455D01*
X31076421Y-33354061D01*
X31074231Y-33354815D01*
X31072111Y-33355693D01*
X31068482Y-33356794D01*
X31064874Y-33358036D01*
X31062608Y-33358576D01*
X31060373Y-33359254D01*
X31056684Y-33359988D01*
X31052994Y-33360867D01*
X31050646Y-33361189D01*
X31048341Y-33361647D01*
X31044627Y-33362013D01*
X31040895Y-33362524D01*
X31038500Y-33362616D01*
X31036133Y-33362849D01*
X31032438Y-33362849D01*
X31028691Y-33362993D01*
X31026270Y-33362849D01*
X31023867Y-33362849D01*
X31020198Y-33362488D01*
X31016500Y-33362268D01*
X31014093Y-33361887D01*
X31011659Y-33361647D01*
X31008061Y-33360931D01*
X31004437Y-33360358D01*
X31002044Y-33359735D01*
X30999627Y-33359254D01*
X30996150Y-33358199D01*
X30992620Y-33357280D01*
X30990275Y-33356417D01*
X30987889Y-33355693D01*
X30984560Y-33354314D01*
X30981159Y-33353063D01*
X30978887Y-33351965D01*
X30976556Y-33350999D01*
X30974554Y-33349929D01*
X30973405Y-33349315D01*
X30970164Y-33347748D01*
X30967981Y-33346416D01*
X30965737Y-33345216D01*
X30962789Y-33343246D01*
X30959740Y-33341385D01*
X30957680Y-33339832D01*
X30955538Y-33338401D01*
X30952830Y-33336179D01*
X30949986Y-33334036D01*
X30948055Y-33332260D01*
X30946055Y-33330619D01*
X30943595Y-33328159D01*
X30940996Y-33325769D01*
X30939233Y-33323797D01*
X30937381Y-33321945D01*
X30935185Y-33319269D01*
X30932857Y-33316665D01*
X30931280Y-33314511D01*
X30929599Y-33312462D01*
X30927693Y-33309609D01*
X30925644Y-33306810D01*
X30924271Y-33304488D01*
X30922784Y-33302263D01*
X30921179Y-33299261D01*
X30919427Y-33296298D01*
X30918275Y-33293827D01*
X30917001Y-33291444D01*
X30915709Y-33288324D01*
X30914266Y-33285230D01*
X30913351Y-33282633D01*
X30912307Y-33280111D01*
X30911333Y-33276900D01*
X30910210Y-33273711D01*
X30909548Y-33271016D01*
X30908746Y-33268373D01*
X30908098Y-33265116D01*
X30907296Y-33261851D01*
X30906895Y-33259065D01*
X30906353Y-33256341D01*
X30906030Y-33253062D01*
X30905555Y-33249763D01*
X30905426Y-33246929D01*
X30905151Y-33244133D01*
X30905151Y-33240867D01*
X30905001Y-33237564D01*
X30905151Y-33234701D01*
X30905151Y-33231867D01*
X30905468Y-33228644D01*
X30905640Y-33225368D01*
X30906072Y-33222508D01*
X30906353Y-33219659D01*
X30906980Y-33216505D01*
X30907466Y-33213293D01*
X30908181Y-33210467D01*
X30908746Y-33207627D01*
X30909674Y-33204569D01*
X30910462Y-33201454D01*
X30911458Y-33198687D01*
X30912307Y-33195889D01*
X30913519Y-33192963D01*
X30914599Y-33189963D01*
X30915872Y-33187282D01*
X30917001Y-33184556D01*
X30918480Y-33181789D01*
X30919837Y-33178931D01*
X30921378Y-33176367D01*
X30922784Y-33173737D01*
X30924514Y-33171148D01*
X30926127Y-33168463D01*
X30927931Y-33166034D01*
X30929599Y-33163538D01*
X30931560Y-33161148D01*
X30933409Y-33158659D01*
X30935451Y-33156407D01*
X30937381Y-33154055D01*
X30939552Y-33151884D01*
X30941612Y-33149612D01*
X31667000Y-32424223D01*
X31667000Y-29987777D01*
X30941612Y-29262388D01*
X30940386Y-29261146D01*
X30932310Y-29251985D01*
X30925166Y-29242080D01*
X30919023Y-29231525D01*
X30913939Y-29220421D01*
X30909964Y-29208874D01*
X30907133Y-29196994D01*
X30905476Y-29184895D01*
X30905007Y-29172691D01*
X30905732Y-29160500D01*
X30907642Y-29148437D01*
X30910720Y-29136620D01*
X30914937Y-29125159D01*
X30920252Y-29114164D01*
X30926615Y-29103740D01*
X30933964Y-29093986D01*
X30942231Y-29084996D01*
X30951335Y-29076857D01*
X30961190Y-29069644D01*
X30971702Y-29063427D01*
X30982770Y-29058266D01*
X30994289Y-29054210D01*
X31006149Y-29051296D01*
X31018237Y-29049555D01*
X31030436Y-29049001D01*
X31042632Y-29049640D01*
G37*
%TD.AperFunction*%
%TD*%
D16*
%TO.P,,1*%
%TO.N,pos*%
X40612500Y-46988750D03*
%TO.P,,2*%
%TO.N,RAW*%
X43612500Y-46988750D03*
%TO.P,,3*%
%TO.N,N/C*%
X45112500Y-46988750D03*
D17*
%TO.P,,*%
%TO.N,*%
X39212500Y-49848750D03*
X46512500Y-49848750D03*
X46512500Y-47638750D03*
X39212500Y-47638750D03*
%TD*%
D18*
%TO.P,,1*%
%TO.N,RST*%
X57150000Y-45243750D03*
%TO.P,,2*%
%TO.N,GND*%
X53750000Y-45243750D03*
%TD*%
D19*
%TO.P,,1*%
%TO.N,pos*%
X59531250Y-45950000D03*
%TO.P,,2*%
%TO.N,GND*%
X59531250Y-44450000D03*
%TD*%
D20*
%TO.N,P9*%
X-3800000Y5000000D02*
X-3800000Y-5000000D01*
X5849999Y-3174999D02*
X5950000Y-3275000D01*
X-1974999Y-3174999D02*
X5849999Y-3174999D01*
X-3800000Y-5000000D02*
X-1974999Y-3174999D01*
X29904999Y-32112999D02*
X29904999Y-20101251D01*
X31030000Y-33238000D02*
X29904999Y-32112999D01*
X29904999Y-20101251D02*
X27266248Y-17462500D01*
X8662500Y-17462500D02*
X-3800000Y-5000000D01*
X27266248Y-17462500D02*
X8662500Y-17462500D01*
%TO.N,GND*%
X-4884682Y-48400000D02*
X0Y-48400000D01*
X-8275000Y-45009682D02*
X-4884682Y-48400000D01*
X-8275000Y-38750000D02*
X-8275000Y-45009682D01*
X13115318Y-48400000D02*
X18000000Y-48400000D01*
X9725000Y-45009682D02*
X13115318Y-48400000D01*
X9725000Y-38750000D02*
X9725000Y-45009682D01*
X50133990Y-34454010D02*
X51350000Y-33238000D01*
X50133990Y-42327740D02*
X50133990Y-34454010D01*
X53050000Y-45243750D02*
X50133990Y-42327740D01*
X53750000Y-45243750D02*
X53050000Y-45243750D01*
X57753990Y-36085990D02*
X56430000Y-34762000D01*
X57753990Y-42672740D02*
X57753990Y-36085990D01*
X59531250Y-44450000D02*
X57753990Y-42672740D01*
X51350000Y-33238000D02*
X53890000Y-33238000D01*
X54906000Y-33238000D02*
X56430000Y-34762000D01*
X53890000Y-33238000D02*
X54906000Y-33238000D01*
X81725000Y7440318D02*
X81725000Y12250000D01*
X76884682Y2600000D02*
X81725000Y7440318D01*
X72000000Y2600000D02*
X76884682Y2600000D01*
X81725000Y-9559682D02*
X81725000Y-4750000D01*
X76884682Y-14400000D02*
X81725000Y-9559682D01*
X72000000Y-14400000D02*
X76884682Y-14400000D01*
X59075000Y-9400000D02*
X63725000Y-4750000D01*
X54000000Y-9400000D02*
X59075000Y-9400000D01*
X59075000Y7600000D02*
X63725000Y12250000D01*
X54000000Y7600000D02*
X59075000Y7600000D01*
X45725000Y-4559682D02*
X45725000Y250000D01*
X40884682Y-9400000D02*
X45725000Y-4559682D01*
X36000000Y-9400000D02*
X40884682Y-9400000D01*
X45725000Y12440318D02*
X45725000Y17250000D01*
X40884682Y7600000D02*
X45725000Y12440318D01*
X36000000Y7600000D02*
X40884682Y7600000D01*
X9725000Y-11009682D02*
X9725000Y-4750000D01*
X13115318Y-14400000D02*
X9725000Y-11009682D01*
X18000000Y-14400000D02*
X13115318Y-14400000D01*
X-5900000Y4884682D02*
X-2509682Y8275000D01*
X-2509682Y8275000D02*
X3750000Y8275000D01*
X-5900000Y0D02*
X-5900000Y4884682D01*
X3750000Y8275000D02*
X3750000Y9306250D01*
X6693750Y12250000D02*
X9725000Y12250000D01*
X3750000Y9306250D02*
X6693750Y12250000D01*
X9725000Y5990318D02*
X9725000Y12250000D01*
X13115318Y2600000D02*
X9725000Y5990318D01*
X18000000Y2600000D02*
X13115318Y2600000D01*
X14725000Y17250000D02*
X27725000Y17250000D01*
X9725000Y12250000D02*
X14725000Y17250000D01*
X35075000Y7600000D02*
X36000000Y7600000D01*
X27725000Y250000D02*
X35075000Y7600000D01*
X53075000Y7600000D02*
X54000000Y7600000D01*
X45725000Y250000D02*
X53075000Y7600000D01*
X63725000Y5990318D02*
X63725000Y12250000D01*
X67115318Y2600000D02*
X63725000Y5990318D01*
X72000000Y2600000D02*
X67115318Y2600000D01*
%TO.N,P8*%
X13000000Y-12300000D02*
X23000000Y-12300000D01*
X21174999Y-2650001D02*
X21275000Y-2550000D01*
X21174999Y-10474999D02*
X21174999Y-2650001D01*
X23000000Y-12300000D02*
X21174999Y-10474999D01*
X32444999Y-21744999D02*
X23000000Y-12300000D01*
X32444999Y-32112999D02*
X32444999Y-21744999D01*
X33570000Y-33238000D02*
X32444999Y-32112999D01*
%TO.N,P7*%
X21174999Y14349999D02*
X21275000Y14450000D01*
X21174999Y6525001D02*
X21174999Y14349999D01*
X23000000Y4700000D02*
X21174999Y6525001D01*
X23000000Y4700000D02*
X13000000Y4700000D01*
X34984999Y-32112999D02*
X36110000Y-33238000D01*
X34984999Y-23648589D02*
X34984999Y-32112999D01*
X24825001Y-13488591D02*
X34984999Y-23648589D01*
X24825001Y2874999D02*
X24825001Y-13488591D01*
X23000000Y4700000D02*
X24825001Y2874999D01*
%TO.N,P15*%
X31000000Y-7300000D02*
X41000000Y-7300000D01*
X39174999Y2349999D02*
X39275000Y2450000D01*
X39174999Y-5474999D02*
X39174999Y2349999D01*
X41000000Y-7300000D02*
X39174999Y-5474999D01*
X39862010Y-33549990D02*
X38650000Y-34762000D01*
X39862010Y-16162010D02*
X39862010Y-33549990D01*
X31000000Y-7300000D02*
X39862010Y-16162010D01*
%TO.N,P6*%
X31000000Y9700000D02*
X41000000Y9700000D01*
X39174999Y19349999D02*
X39275000Y19450000D01*
X39174999Y11525001D02*
X39174999Y19349999D01*
X41000000Y9700000D02*
X39174999Y11525001D01*
X31000000Y9700000D02*
X25400000Y4100000D01*
X37524999Y-32112999D02*
X38650000Y-33238000D01*
X37524999Y-25552179D02*
X37524999Y-32112999D01*
X25400000Y-13427180D02*
X37524999Y-25552179D01*
X25400000Y4100000D02*
X25400000Y-13427180D01*
%TO.N,P18*%
X49000000Y-7300000D02*
X59000000Y-7300000D01*
X57174999Y2349999D02*
X57275000Y2450000D01*
X57174999Y-5474999D02*
X57174999Y2349999D01*
X59000000Y-7300000D02*
X57174999Y-5474999D01*
X42604999Y-33347001D02*
X41190000Y-34762000D01*
X42604999Y-13695001D02*
X42604999Y-33347001D01*
X49000000Y-7300000D02*
X42604999Y-13695001D01*
%TO.N,P5*%
X49000000Y9700000D02*
X59000000Y9700000D01*
X57174999Y19349999D02*
X57275000Y19450000D01*
X57174999Y11525001D02*
X57174999Y19349999D01*
X59000000Y9700000D02*
X57174999Y11525001D01*
%TO.N,P19*%
X67000000Y-12300000D02*
X77000000Y-12300000D01*
X75174999Y-2650001D02*
X75275000Y-2550000D01*
X75174999Y-10474999D02*
X75174999Y-2650001D01*
X77000000Y-12300000D02*
X75174999Y-10474999D01*
X44942010Y-33549990D02*
X43730000Y-34762000D01*
X44942010Y-26042988D02*
X44942010Y-33549990D01*
X58684998Y-12300000D02*
X44942010Y-26042988D01*
X67000000Y-12300000D02*
X58684998Y-12300000D01*
%TO.N,P4*%
X67000000Y4700000D02*
X77000000Y4700000D01*
X75174999Y14349999D02*
X75275000Y14450000D01*
X75174999Y6525001D02*
X75174999Y14349999D01*
X77000000Y4700000D02*
X75174999Y6525001D01*
%TO.N,P21*%
X85000000Y-12300000D02*
X95000000Y-12300000D01*
X93174999Y-10474999D02*
X93174999Y-2650001D01*
X93174999Y-2650001D02*
X93275000Y-2550000D01*
X95000000Y-12300000D02*
X93174999Y-10474999D01*
X50022010Y-33549990D02*
X48810000Y-34762000D01*
X50022010Y-26042988D02*
X50022010Y-33549990D01*
X85000000Y-12300000D02*
X79837500Y-17462500D01*
X58602498Y-17462500D02*
X50732499Y-25332499D01*
X79837500Y-17462500D02*
X58602498Y-17462500D01*
X50732499Y-25332499D02*
X50022010Y-26042988D01*
X50809999Y-25254999D02*
X50732499Y-25332499D01*
%TO.N,P20*%
X85000000Y4700000D02*
X95000000Y4700000D01*
X93174999Y14349999D02*
X93275000Y14450000D01*
X93174999Y6525001D02*
X93174999Y14349999D01*
X95000000Y4700000D02*
X93174999Y6525001D01*
X47625000Y-33407000D02*
X46270000Y-34762000D01*
X47625000Y-25899998D02*
X47625000Y-33407000D01*
X56856248Y-16668750D02*
X48668749Y-24856249D01*
X86825001Y2874999D02*
X86825001Y-8490317D01*
X78646568Y-16668750D02*
X56856248Y-16668750D01*
X85000000Y4700000D02*
X86825001Y2874999D01*
X48668749Y-24856249D02*
X47625000Y-25899998D01*
X86825001Y-8490317D02*
X78646568Y-16668750D01*
X48720009Y-24804989D02*
X48668749Y-24856249D01*
%TO.N,P10*%
X-5000000Y-46300000D02*
X5000000Y-46300000D01*
X3174999Y-36650001D02*
X3275000Y-36550000D01*
X3174999Y-44474999D02*
X3174999Y-36650001D01*
X5000000Y-46300000D02*
X3174999Y-44474999D01*
X30992999Y-34724999D02*
X31030000Y-34762000D01*
X5100001Y-34724999D02*
X30992999Y-34724999D01*
X3275000Y-36550000D02*
X5100001Y-34724999D01*
%TO.N,P16*%
X13000000Y-46300000D02*
X23000000Y-46300000D01*
X21174999Y-36650001D02*
X21275000Y-36550000D01*
X21174999Y-44474999D02*
X21174999Y-36650001D01*
X23000000Y-46300000D02*
X21174999Y-44474999D01*
X21275000Y-36550000D02*
X21275000Y-35875000D01*
X34695001Y-35887001D02*
X33570000Y-34762000D01*
X34695001Y-42160001D02*
X34695001Y-35887001D01*
X34110001Y-42745001D02*
X34695001Y-42160001D01*
X30489999Y-42745001D02*
X34110001Y-42745001D01*
X24294998Y-36550000D02*
X30489999Y-42745001D01*
X21275000Y-36550000D02*
X24294998Y-36550000D01*
%TO.N,RAW*%
X43612500Y-45988750D02*
X44357500Y-45243750D01*
X43612500Y-46988750D02*
X43612500Y-45988750D01*
X60356251Y-36148251D02*
X58970000Y-34762000D01*
X60356251Y-46346001D02*
X60356251Y-36148251D01*
X58627242Y-48075010D02*
X60356251Y-46346001D01*
X50613600Y-48075010D02*
X58627242Y-48075010D01*
X47782340Y-45243750D02*
X50613600Y-48075010D01*
X44357500Y-45243750D02*
X47782340Y-45243750D01*
%TO.N,RST*%
X55213990Y-36085990D02*
X53890000Y-34762000D01*
X55213990Y-43307740D02*
X55213990Y-36085990D01*
X57150000Y-45243750D02*
X55213990Y-43307740D01*
%TO.N,pos*%
X59531250Y-45950000D02*
X57856250Y-47625000D01*
X57856250Y-47625000D02*
X50800000Y-47625000D01*
X50800000Y-47625000D02*
X47625000Y-44450000D01*
X43151250Y-44450000D02*
X40612500Y-46988750D01*
X47625000Y-44450000D02*
X43151250Y-44450000D01*
%TD*%
M02*
