M48
; DRILL file {KiCad (5.1.10)-1} date 08/11/22 13:18:24
; FORMAT={-:-/ absolute / inch / decimal}
; #@! TF.CreationDate,2022-08-11T13:18:24-05:00
; #@! TF.GenerationSoftware,Kicad,Pcbnew,(5.1.10)-1
; #@! TF.FileFunction,NonPlated,1,2,NPTH
FMAT,2
INCH
T1C0.0354
T2C0.0670
T3C0.1181
T4C0.1350
%
G90
G05
T1
X1.6284Y-1.9192
X1.6284Y-1.9192
X1.7466Y-1.9192
X1.7466Y-1.9192
T2
X-0.2165Y-1.6732
X-0.2165Y-1.6732
X0.0Y0.2165
X0.0Y0.2165
X0.0Y-0.2165
X0.0Y-0.2165
X0.2165Y-1.6732
X0.2165Y-1.6732
X0.4921Y0.3346
X0.4921Y0.3346
X0.4921Y-0.3346
X0.4921Y-0.3346
X0.4921Y-1.6732
X0.4921Y-1.6732
X0.9252Y0.3346
X0.9252Y0.3346
X0.9252Y-0.3346
X0.9252Y-0.3346
X0.9252Y-1.6732
X0.9252Y-1.6732
X1.2008Y0.5315
X1.2008Y0.5315
X1.2008Y-0.1378
X1.2008Y-0.1378
X1.6339Y0.5315
X1.6339Y0.5315
X1.6339Y-0.1378
X1.6339Y-0.1378
X1.9094Y0.5315
X1.9094Y0.5315
X1.9094Y-0.1378
X1.9094Y-0.1378
X2.3425Y0.5315
X2.3425Y0.5315
X2.3425Y-0.1378
X2.3425Y-0.1378
X2.6181Y0.3346
X2.6181Y0.3346
X2.6181Y-0.3346
X2.6181Y-0.3346
X3.0512Y0.3346
X3.0512Y0.3346
X3.0512Y-0.3346
X3.0512Y-0.3346
X3.3268Y0.3346
X3.3268Y0.3346
X3.3268Y-0.3346
X3.3268Y-0.3346
X3.7598Y0.3346
X3.7598Y0.3346
X3.7598Y-0.3346
X3.7598Y-0.3346
T3
X-0.1969Y-1.5256
X0.0Y-1.439
X0.0Y-1.439
X0.1476Y0.1969
X0.1476Y-0.1969
X0.1969Y-1.5256
X0.2343Y0.0
X0.2343Y0.0
X0.5118Y0.4823
X0.5118Y-0.187
X0.5118Y-1.5256
X0.7087Y0.5689
X0.7087Y0.5689
X0.7087Y-0.1004
X0.7087Y-0.1004
X0.7087Y-1.439
X0.7087Y-1.439
X0.9055Y0.4823
X0.9055Y-0.187
X0.9055Y-1.5256
X1.2205Y0.6791
X1.2205Y0.0098
X1.4173Y0.7657
X1.4173Y0.7657
X1.4173Y0.0965
X1.4173Y0.0965
X1.6142Y0.6791
X1.6142Y0.0098
X1.9291Y0.6791
X1.9291Y0.0098
X2.126Y0.7657
X2.126Y0.7657
X2.126Y0.0965
X2.126Y0.0965
X2.3228Y0.6791
X2.3228Y0.0098
X2.6378Y0.4823
X2.6378Y-0.187
X2.8346Y0.5689
X2.8346Y0.5689
X2.8346Y-0.1004
X2.8346Y-0.1004
X3.0315Y0.4823
X3.0315Y-0.187
X3.3465Y0.4823
X3.3465Y-0.187
X3.5433Y0.5689
X3.5433Y0.5689
X3.5433Y-0.1004
X3.5433Y-0.1004
X3.7402Y0.4823
X3.7402Y-0.187
T4
X0.0Y0.0
X0.0Y0.0
X0.0Y-1.6732
X0.0Y-1.6732
X0.7087Y0.3346
X0.7087Y0.3346
X0.7087Y-0.3346
X0.7087Y-0.3346
X0.7087Y-1.6732
X0.7087Y-1.6732
X1.4173Y0.5315
X1.4173Y0.5315
X1.4173Y-0.1378
X1.4173Y-0.1378
X2.126Y0.5315
X2.126Y0.5315
X2.126Y-0.1378
X2.126Y-0.1378
X2.8346Y0.3346
X2.8346Y0.3346
X2.8346Y-0.3346
X2.8346Y-0.3346
X3.5433Y0.3346
X3.5433Y0.3346
X3.5433Y-0.3346
X3.5433Y-0.3346
T0
M30
